STARTFONT 2.1
FONT -FontForge-Bedstead-Medium-R-Normal--20-190-75-75-C-120-ISO10646-1
SIZE 19 75 75
FONTBOUNDINGBOX 12 20 0 -4
COMMENT "Generated by fontforge, http://fontforge.sourceforge.net"
COMMENT "Dedicated to the public domain"
STARTPROPERTIES 40
FOUNDRY "FontForge"
FAMILY_NAME "Bedstead"
WEIGHT_NAME "Medium"
SLANT "R"
SETWIDTH_NAME "Normal"
ADD_STYLE_NAME ""
PIXEL_SIZE 20
POINT_SIZE 190
RESOLUTION_X 75
RESOLUTION_Y 75
SPACING "C"
AVERAGE_WIDTH 120
CHARSET_REGISTRY "ISO10646"
CHARSET_ENCODING "1"
FONTNAME_REGISTRY ""
CHARSET_COLLECTIONS "ASCII ISOLatin1Encoding ISO8859-2 ISO8859-5 ISO8859-7 ISO8859-9 ISO8859-8 ISO10646-1"
FONT_NAME "Bedstead"
FACE_NAME "Bedstead"
COPYRIGHT "Dedicated to the public domain"
FONT_VERSION "002.003"
FONT_ASCENT 16
FONT_DESCENT 4
UNDERLINE_POSITION -1
UNDERLINE_THICKNESS 2
X_HEIGHT 9
CAP_HEIGHT 13
RAW_ASCENT 800
RAW_DESCENT 200
NORM_SPACE 12
RELATIVE_WEIGHT 50
RELATIVE_SETWIDTH 50
SUPERSCRIPT_X 0
SUPERSCRIPT_Y 4
SUPERSCRIPT_SIZE 14
SUBSCRIPT_X 0
SUBSCRIPT_Y 4
SUBSCRIPT_SIZE 14
FIGURE_WIDTH 12
AVG_LOWERCASE_WIDTH 120
AVG_UPPERCASE_WIDTH 120
ENDPROPERTIES
CHARS 2006
STARTCHAR space
ENCODING 32
SWIDTH 600 0
DWIDTH 12 0
BBX 1 1 0 0
BITMAP
00
ENDCHAR
STARTCHAR exclam
ENCODING 33
SWIDTH 600 0
DWIDTH 12 0
BBX 2 14 6 0
BITMAP
C0
C0
C0
C0
C0
C0
C0
C0
C0
C0
00
00
C0
C0
ENDCHAR
STARTCHAR quotedbl
ENCODING 34
SWIDTH 600 0
DWIDTH 12 0
BBX 6 6 4 8
BITMAP
CC
CC
CC
CC
CC
CC
ENDCHAR
STARTCHAR numbersign
ENCODING 35
SWIDTH 600 0
DWIDTH 12 0
BBX 10 14 2 0
BITMAP
3300
3300
3300
3300
FFC0
FFC0
3300
3300
FFC0
FFC0
3300
3300
3300
3300
ENDCHAR
STARTCHAR dollar
ENCODING 36
SWIDTH 600 0
DWIDTH 12 0
BBX 10 14 2 0
BITMAP
3F00
7F80
EDC0
CCC0
CC00
EC00
7F00
3F80
0DC0
0CC0
CCC0
EDC0
7F80
3F00
ENDCHAR
STARTCHAR percent
ENCODING 37
SWIDTH 600 0
DWIDTH 12 0
BBX 10 14 2 0
BITMAP
F000
F000
F0C0
F1C0
0380
0700
0E00
1C00
3800
7000
E3C0
C3C0
03C0
03C0
ENDCHAR
STARTCHAR ampersand
ENCODING 38
SWIDTH 600 0
DWIDTH 12 0
BBX 10 14 2 0
BITMAP
3000
7800
FC00
CC00
CC00
FC00
7800
7800
FCC0
CFC0
C780
E780
7FC0
3CC0
ENDCHAR
STARTCHAR quotesingle
ENCODING 39
SWIDTH 600 0
DWIDTH 12 0
BBX 2 6 6 8
BITMAP
C0
C0
C0
C0
C0
C0
ENDCHAR
STARTCHAR parenleft
ENCODING 40
SWIDTH 600 0
DWIDTH 12 0
BBX 6 14 4 0
BITMAP
0C
1C
38
70
E0
C0
C0
C0
C0
E0
70
38
1C
0C
ENDCHAR
STARTCHAR parenright
ENCODING 41
SWIDTH 600 0
DWIDTH 12 0
BBX 6 14 4 0
BITMAP
C0
E0
70
38
1C
0C
0C
0C
0C
1C
38
70
E0
C0
ENDCHAR
STARTCHAR asterisk
ENCODING 42
SWIDTH 600 0
DWIDTH 12 0
BBX 10 14 2 0
BITMAP
0C00
0C00
CCC0
EDC0
7F80
3F00
0C00
0C00
3F00
7F80
EDC0
CCC0
0C00
0C00
ENDCHAR
STARTCHAR plus
ENCODING 43
SWIDTH 600 0
DWIDTH 12 0
BBX 10 10 2 2
BITMAP
0C00
0C00
0C00
0C00
FFC0
FFC0
0C00
0C00
0C00
0C00
ENDCHAR
STARTCHAR comma
ENCODING 44
SWIDTH 600 0
DWIDTH 12 0
BBX 4 6 4 -2
BITMAP
30
30
30
70
E0
C0
ENDCHAR
STARTCHAR hyphen
ENCODING 45
SWIDTH 600 0
DWIDTH 12 0
BBX 6 2 4 6
BITMAP
FC
FC
ENDCHAR
STARTCHAR period
ENCODING 46
SWIDTH 600 0
DWIDTH 12 0
BBX 2 2 6 0
BITMAP
C0
C0
ENDCHAR
STARTCHAR slash
ENCODING 47
SWIDTH 600 0
DWIDTH 12 0
BBX 10 10 2 2
BITMAP
00C0
01C0
0380
0700
0E00
1C00
3800
7000
E000
C000
ENDCHAR
STARTCHAR zero
ENCODING 48
SWIDTH 600 0
DWIDTH 12 0
BBX 10 14 2 0
BITMAP
0C00
1E00
3F00
7380
E1C0
C0C0
C0C0
C0C0
C0C0
E1C0
7380
3F00
1E00
0C00
ENDCHAR
STARTCHAR one
ENCODING 49
SWIDTH 600 0
DWIDTH 12 0
BBX 6 14 4 0
BITMAP
30
30
F0
F0
30
30
30
30
30
30
30
30
FC
FC
ENDCHAR
STARTCHAR two
ENCODING 50
SWIDTH 600 0
DWIDTH 12 0
BBX 10 14 2 0
BITMAP
3F00
7F80
E1C0
C0C0
00C0
01C0
0F80
1F00
3800
7000
E000
C000
FFC0
FFC0
ENDCHAR
STARTCHAR three
ENCODING 51
SWIDTH 600 0
DWIDTH 12 0
BBX 10 14 2 0
BITMAP
FFC0
FFC0
00C0
01C0
0380
0300
0F00
0F80
01C0
00C0
C0C0
E1C0
7F80
3F00
ENDCHAR
STARTCHAR four
ENCODING 52
SWIDTH 600 0
DWIDTH 12 0
BBX 10 14 2 0
BITMAP
0300
0300
0F00
1F00
3B00
7300
E300
C300
FFC0
FFC0
0300
0300
0300
0300
ENDCHAR
STARTCHAR five
ENCODING 53
SWIDTH 600 0
DWIDTH 12 0
BBX 10 14 2 0
BITMAP
FFC0
FFC0
C000
C000
FF00
FF80
01C0
00C0
00C0
00C0
C0C0
E1C0
7F80
3F00
ENDCHAR
STARTCHAR six
ENCODING 54
SWIDTH 600 0
DWIDTH 12 0
BBX 10 14 2 0
BITMAP
0F00
1F00
3800
7000
E000
C000
FF00
FF80
C1C0
C0C0
C0C0
E1C0
7F80
3F00
ENDCHAR
STARTCHAR seven
ENCODING 55
SWIDTH 600 0
DWIDTH 12 0
BBX 10 14 2 0
BITMAP
FFC0
FFC0
00C0
01C0
0380
0700
0E00
1C00
3800
3000
3000
3000
3000
3000
ENDCHAR
STARTCHAR eight
ENCODING 56
SWIDTH 600 0
DWIDTH 12 0
BBX 10 14 2 0
BITMAP
3F00
7F80
E1C0
C0C0
C0C0
E1C0
7F80
7F80
E1C0
C0C0
C0C0
E1C0
7F80
3F00
ENDCHAR
STARTCHAR nine
ENCODING 57
SWIDTH 600 0
DWIDTH 12 0
BBX 10 14 2 0
BITMAP
3F00
7F80
E1C0
C0C0
C0C0
E0C0
7FC0
3FC0
00C0
01C0
0380
0700
3E00
3C00
ENDCHAR
STARTCHAR colon
ENCODING 58
SWIDTH 600 0
DWIDTH 12 0
BBX 2 10 6 0
BITMAP
C0
C0
00
00
00
00
00
00
C0
C0
ENDCHAR
STARTCHAR semicolon
ENCODING 59
SWIDTH 600 0
DWIDTH 12 0
BBX 4 12 4 -2
BITMAP
30
30
00
00
00
00
30
30
30
70
E0
C0
ENDCHAR
STARTCHAR less
ENCODING 60
SWIDTH 600 0
DWIDTH 12 0
BBX 8 14 2 0
BITMAP
03
07
0E
1C
38
70
E0
E0
70
38
1C
0E
07
03
ENDCHAR
STARTCHAR equal
ENCODING 61
SWIDTH 600 0
DWIDTH 12 0
BBX 10 6 2 4
BITMAP
FFC0
FFC0
0000
0000
FFC0
FFC0
ENDCHAR
STARTCHAR greater
ENCODING 62
SWIDTH 600 0
DWIDTH 12 0
BBX 8 14 4 0
BITMAP
C0
E0
70
38
1C
0E
07
07
0E
1C
38
70
E0
C0
ENDCHAR
STARTCHAR question
ENCODING 63
SWIDTH 600 0
DWIDTH 12 0
BBX 10 14 2 0
BITMAP
3F00
7F80
E1C0
C1C0
0380
0700
0E00
0C00
0C00
0C00
0000
0000
0C00
0C00
ENDCHAR
STARTCHAR at
ENCODING 64
SWIDTH 600 0
DWIDTH 12 0
BBX 10 14 2 0
BITMAP
3F00
7F80
E1C0
C0C0
CFC0
CFC0
CCC0
CCC0
CFC0
CFC0
C000
E000
7F00
3F00
ENDCHAR
STARTCHAR A
ENCODING 65
SWIDTH 600 0
DWIDTH 12 0
BBX 10 14 2 0
BITMAP
0C00
1E00
3F00
7380
E1C0
C0C0
C0C0
C0C0
FFC0
FFC0
C0C0
C0C0
C0C0
C0C0
ENDCHAR
STARTCHAR B
ENCODING 66
SWIDTH 600 0
DWIDTH 12 0
BBX 10 14 2 0
BITMAP
FF00
FF80
C1C0
C0C0
C0C0
C1C0
FF80
FF80
C1C0
C0C0
C0C0
C1C0
FF80
FF00
ENDCHAR
STARTCHAR C
ENCODING 67
SWIDTH 600 0
DWIDTH 12 0
BBX 10 14 2 0
BITMAP
3F00
7F80
E1C0
C0C0
C000
C000
C000
C000
C000
C000
C0C0
E1C0
7F80
3F00
ENDCHAR
STARTCHAR D
ENCODING 68
SWIDTH 600 0
DWIDTH 12 0
BBX 10 14 2 0
BITMAP
FF00
FF80
C1C0
C0C0
C0C0
C0C0
C0C0
C0C0
C0C0
C0C0
C0C0
C1C0
FF80
FF00
ENDCHAR
STARTCHAR E
ENCODING 69
SWIDTH 600 0
DWIDTH 12 0
BBX 10 14 2 0
BITMAP
FFC0
FFC0
C000
C000
C000
C000
FF00
FF00
C000
C000
C000
C000
FFC0
FFC0
ENDCHAR
STARTCHAR F
ENCODING 70
SWIDTH 600 0
DWIDTH 12 0
BBX 10 14 2 0
BITMAP
FFC0
FFC0
C000
C000
C000
C000
FF00
FF00
C000
C000
C000
C000
C000
C000
ENDCHAR
STARTCHAR G
ENCODING 71
SWIDTH 600 0
DWIDTH 12 0
BBX 10 14 2 0
BITMAP
3F00
7F80
E1C0
C0C0
C000
C000
C000
C000
C3C0
C3C0
C0C0
E0C0
7FC0
3FC0
ENDCHAR
STARTCHAR H
ENCODING 72
SWIDTH 600 0
DWIDTH 12 0
BBX 10 14 2 0
BITMAP
C0C0
C0C0
C0C0
C0C0
C0C0
C0C0
FFC0
FFC0
C0C0
C0C0
C0C0
C0C0
C0C0
C0C0
ENDCHAR
STARTCHAR I
ENCODING 73
SWIDTH 600 0
DWIDTH 12 0
BBX 6 14 4 0
BITMAP
FC
FC
30
30
30
30
30
30
30
30
30
30
FC
FC
ENDCHAR
STARTCHAR J
ENCODING 74
SWIDTH 600 0
DWIDTH 12 0
BBX 10 14 2 0
BITMAP
00C0
00C0
00C0
00C0
00C0
00C0
00C0
00C0
00C0
00C0
C0C0
E1C0
7F80
3F00
ENDCHAR
STARTCHAR K
ENCODING 75
SWIDTH 600 0
DWIDTH 12 0
BBX 10 14 2 0
BITMAP
C0C0
C1C0
C380
C700
CE00
DC00
F800
F800
DC00
CE00
C700
C380
C1C0
C0C0
ENDCHAR
STARTCHAR L
ENCODING 76
SWIDTH 600 0
DWIDTH 12 0
BBX 10 14 2 0
BITMAP
C000
C000
C000
C000
C000
C000
C000
C000
C000
C000
C000
C000
FFC0
FFC0
ENDCHAR
STARTCHAR M
ENCODING 77
SWIDTH 600 0
DWIDTH 12 0
BBX 10 14 2 0
BITMAP
C0C0
C0C0
F3C0
FFC0
DEC0
CCC0
CCC0
CCC0
C0C0
C0C0
C0C0
C0C0
C0C0
C0C0
ENDCHAR
STARTCHAR N
ENCODING 78
SWIDTH 600 0
DWIDTH 12 0
BBX 10 14 2 0
BITMAP
C0C0
C0C0
C0C0
C0C0
F0C0
F8C0
DCC0
CEC0
C7C0
C3C0
C0C0
C0C0
C0C0
C0C0
ENDCHAR
STARTCHAR O
ENCODING 79
SWIDTH 600 0
DWIDTH 12 0
BBX 10 14 2 0
BITMAP
3F00
7F80
E1C0
C0C0
C0C0
C0C0
C0C0
C0C0
C0C0
C0C0
C0C0
E1C0
7F80
3F00
ENDCHAR
STARTCHAR P
ENCODING 80
SWIDTH 600 0
DWIDTH 12 0
BBX 10 14 2 0
BITMAP
FF00
FF80
C1C0
C0C0
C0C0
C1C0
FF80
FF00
C000
C000
C000
C000
C000
C000
ENDCHAR
STARTCHAR Q
ENCODING 81
SWIDTH 600 0
DWIDTH 12 0
BBX 10 14 2 0
BITMAP
3F00
7F80
E1C0
C0C0
C0C0
C0C0
C0C0
C0C0
CCC0
CFC0
C780
E780
7FC0
3CC0
ENDCHAR
STARTCHAR R
ENCODING 82
SWIDTH 600 0
DWIDTH 12 0
BBX 10 14 2 0
BITMAP
FF00
FF80
C1C0
C0C0
C0C0
C1C0
FF80
FF00
CC00
CE00
C700
C380
C1C0
C0C0
ENDCHAR
STARTCHAR S
ENCODING 83
SWIDTH 600 0
DWIDTH 12 0
BBX 10 14 2 0
BITMAP
3F00
7F80
E1C0
C0C0
C000
E000
7F00
3F80
01C0
00C0
C0C0
E1C0
7F80
3F00
ENDCHAR
STARTCHAR T
ENCODING 84
SWIDTH 600 0
DWIDTH 12 0
BBX 10 14 2 0
BITMAP
FFC0
FFC0
0C00
0C00
0C00
0C00
0C00
0C00
0C00
0C00
0C00
0C00
0C00
0C00
ENDCHAR
STARTCHAR U
ENCODING 85
SWIDTH 600 0
DWIDTH 12 0
BBX 10 14 2 0
BITMAP
C0C0
C0C0
C0C0
C0C0
C0C0
C0C0
C0C0
C0C0
C0C0
C0C0
C0C0
E1C0
7F80
3F00
ENDCHAR
STARTCHAR V
ENCODING 86
SWIDTH 600 0
DWIDTH 12 0
BBX 10 14 2 0
BITMAP
C0C0
C0C0
C0C0
C0C0
C0C0
E1C0
7380
3300
3300
3F00
1E00
0C00
0C00
0C00
ENDCHAR
STARTCHAR W
ENCODING 87
SWIDTH 600 0
DWIDTH 12 0
BBX 10 14 2 0
BITMAP
C0C0
C0C0
C0C0
C0C0
C0C0
C0C0
CCC0
CCC0
CCC0
CCC0
CCC0
FFC0
7F80
3300
ENDCHAR
STARTCHAR X
ENCODING 88
SWIDTH 600 0
DWIDTH 12 0
BBX 10 14 2 0
BITMAP
C0C0
C0C0
C0C0
E1C0
7380
3F00
1E00
1E00
3F00
7380
E1C0
C0C0
C0C0
C0C0
ENDCHAR
STARTCHAR Y
ENCODING 89
SWIDTH 600 0
DWIDTH 12 0
BBX 10 14 2 0
BITMAP
C0C0
C0C0
C0C0
E1C0
7380
3F00
1E00
0C00
0C00
0C00
0C00
0C00
0C00
0C00
ENDCHAR
STARTCHAR Z
ENCODING 90
SWIDTH 600 0
DWIDTH 12 0
BBX 10 14 2 0
BITMAP
FFC0
FFC0
00C0
01C0
0380
0700
0E00
1C00
3800
7000
E000
C000
FFC0
FFC0
ENDCHAR
STARTCHAR bracketleft
ENCODING 91
SWIDTH 600 0
DWIDTH 12 0
BBX 8 14 4 0
BITMAP
FF
FF
C0
C0
C0
C0
C0
C0
C0
C0
C0
C0
FF
FF
ENDCHAR
STARTCHAR backslash
ENCODING 92
SWIDTH 600 0
DWIDTH 12 0
BBX 10 10 2 2
BITMAP
C000
E000
7000
3800
1C00
0E00
0700
0380
01C0
00C0
ENDCHAR
STARTCHAR bracketright
ENCODING 93
SWIDTH 600 0
DWIDTH 12 0
BBX 8 14 2 0
BITMAP
FF
FF
03
03
03
03
03
03
03
03
03
03
FF
FF
ENDCHAR
STARTCHAR asciicircum
ENCODING 94
SWIDTH 600 0
DWIDTH 12 0
BBX 10 6 2 8
BITMAP
0C00
1E00
3F00
7380
E1C0
C0C0
ENDCHAR
STARTCHAR underscore
ENCODING 95
SWIDTH 600 0
DWIDTH 12 0
BBX 10 2 2 0
BITMAP
FFC0
FFC0
ENDCHAR
STARTCHAR grave
ENCODING 96
SWIDTH 600 0
DWIDTH 12 0
BBX 6 6 4 8
BITMAP
C0
E0
70
38
1C
0C
ENDCHAR
STARTCHAR a
ENCODING 97
SWIDTH 600 0
DWIDTH 12 0
BBX 10 10 2 0
BITMAP
3F00
3F80
01C0
00C0
3FC0
7FC0
E0C0
E0C0
7FC0
3FC0
ENDCHAR
STARTCHAR b
ENCODING 98
SWIDTH 600 0
DWIDTH 12 0
BBX 10 14 2 0
BITMAP
C000
C000
C000
C000
FF00
FF80
C1C0
C0C0
C0C0
C0C0
C0C0
C1C0
FF80
FF00
ENDCHAR
STARTCHAR c
ENCODING 99
SWIDTH 600 0
DWIDTH 12 0
BBX 10 10 2 0
BITMAP
3FC0
7FC0
E000
C000
C000
C000
C000
E000
7FC0
3FC0
ENDCHAR
STARTCHAR d
ENCODING 100
SWIDTH 600 0
DWIDTH 12 0
BBX 10 14 2 0
BITMAP
00C0
00C0
00C0
00C0
3FC0
7FC0
E0C0
C0C0
C0C0
C0C0
C0C0
E0C0
7FC0
3FC0
ENDCHAR
STARTCHAR e
ENCODING 101
SWIDTH 600 0
DWIDTH 12 0
BBX 10 10 2 0
BITMAP
3F00
7F80
E1C0
C0C0
FFC0
FFC0
C000
E000
7F00
3F00
ENDCHAR
STARTCHAR f
ENCODING 102
SWIDTH 600 0
DWIDTH 12 0
BBX 6 14 4 0
BITMAP
0C
1C
38
30
30
30
FC
FC
30
30
30
30
30
30
ENDCHAR
STARTCHAR g
ENCODING 103
SWIDTH 600 0
DWIDTH 12 0
BBX 10 14 2 -4
BITMAP
3FC0
7FC0
E0C0
C0C0
C0C0
C0C0
C0C0
E0C0
7FC0
3FC0
00C0
01C0
3F80
3F00
ENDCHAR
STARTCHAR h
ENCODING 104
SWIDTH 600 0
DWIDTH 12 0
BBX 10 14 2 0
BITMAP
C000
C000
C000
C000
FF00
FF80
C1C0
C0C0
C0C0
C0C0
C0C0
C0C0
C0C0
C0C0
ENDCHAR
STARTCHAR i
ENCODING 105
SWIDTH 600 0
DWIDTH 12 0
BBX 6 14 4 0
BITMAP
30
30
00
00
F0
F0
30
30
30
30
30
30
FC
FC
ENDCHAR
STARTCHAR j
ENCODING 106
SWIDTH 600 0
DWIDTH 12 0
BBX 4 18 4 -4
BITMAP
30
30
00
00
30
30
30
30
30
30
30
30
30
30
30
70
E0
C0
ENDCHAR
STARTCHAR k
ENCODING 107
SWIDTH 600 0
DWIDTH 12 0
BBX 8 14 4 0
BITMAP
C0
C0
C0
C0
C3
C7
CE
DC
F8
F8
DC
CE
C7
C3
ENDCHAR
STARTCHAR l
ENCODING 108
SWIDTH 600 0
DWIDTH 12 0
BBX 6 14 4 0
BITMAP
F0
F0
30
30
30
30
30
30
30
30
30
30
FC
FC
ENDCHAR
STARTCHAR m
ENCODING 109
SWIDTH 600 0
DWIDTH 12 0
BBX 10 10 2 0
BITMAP
F300
FF80
DFC0
CCC0
CCC0
CCC0
CCC0
CCC0
CCC0
CCC0
ENDCHAR
STARTCHAR n
ENCODING 110
SWIDTH 600 0
DWIDTH 12 0
BBX 10 10 2 0
BITMAP
FF00
FF80
C1C0
C0C0
C0C0
C0C0
C0C0
C0C0
C0C0
C0C0
ENDCHAR
STARTCHAR o
ENCODING 111
SWIDTH 600 0
DWIDTH 12 0
BBX 10 10 2 0
BITMAP
3F00
7F80
E1C0
C0C0
C0C0
C0C0
C0C0
E1C0
7F80
3F00
ENDCHAR
STARTCHAR p
ENCODING 112
SWIDTH 600 0
DWIDTH 12 0
BBX 10 14 2 -4
BITMAP
FF00
FF80
C1C0
C0C0
C0C0
C0C0
C0C0
C1C0
FF80
FF00
C000
C000
C000
C000
ENDCHAR
STARTCHAR q
ENCODING 113
SWIDTH 600 0
DWIDTH 12 0
BBX 10 14 2 -4
BITMAP
3FC0
7FC0
E0C0
C0C0
C0C0
C0C0
C0C0
E0C0
7FC0
3FC0
00C0
00C0
00C0
00C0
ENDCHAR
STARTCHAR r
ENCODING 114
SWIDTH 600 0
DWIDTH 12 0
BBX 8 10 4 0
BITMAP
CF
DF
F8
F0
C0
C0
C0
C0
C0
C0
ENDCHAR
STARTCHAR s
ENCODING 115
SWIDTH 600 0
DWIDTH 12 0
BBX 10 10 2 0
BITMAP
3FC0
7FC0
E000
E000
7F00
3F80
01C0
01C0
FF80
FF00
ENDCHAR
STARTCHAR t
ENCODING 116
SWIDTH 600 0
DWIDTH 12 0
BBX 6 14 4 0
BITMAP
30
30
30
30
FC
FC
30
30
30
30
30
38
1C
0C
ENDCHAR
STARTCHAR u
ENCODING 117
SWIDTH 600 0
DWIDTH 12 0
BBX 10 10 2 0
BITMAP
C0C0
C0C0
C0C0
C0C0
C0C0
C0C0
C0C0
E0C0
7FC0
3FC0
ENDCHAR
STARTCHAR v
ENCODING 118
SWIDTH 600 0
DWIDTH 12 0
BBX 10 10 2 0
BITMAP
C0C0
C0C0
C0C0
E1C0
7380
3300
3300
3F00
1E00
0C00
ENDCHAR
STARTCHAR w
ENCODING 119
SWIDTH 600 0
DWIDTH 12 0
BBX 10 10 2 0
BITMAP
C0C0
C0C0
C0C0
C0C0
CCC0
CCC0
CCC0
FFC0
7F80
3300
ENDCHAR
STARTCHAR x
ENCODING 120
SWIDTH 600 0
DWIDTH 12 0
BBX 10 10 2 0
BITMAP
C0C0
E1C0
7380
3F00
1E00
1E00
3F00
7380
E1C0
C0C0
ENDCHAR
STARTCHAR y
ENCODING 121
SWIDTH 600 0
DWIDTH 12 0
BBX 10 14 2 -4
BITMAP
C0C0
C0C0
C0C0
C0C0
C0C0
C0C0
C0C0
E0C0
7FC0
3FC0
00C0
01C0
3F80
3F00
ENDCHAR
STARTCHAR z
ENCODING 122
SWIDTH 600 0
DWIDTH 12 0
BBX 10 10 2 0
BITMAP
FFC0
FFC0
0300
0700
0E00
1C00
3800
3000
FFC0
FFC0
ENDCHAR
STARTCHAR braceleft
ENCODING 123
SWIDTH 600 0
DWIDTH 12 0
BBX 8 14 4 0
BITMAP
0F
1F
38
30
30
70
E0
E0
70
30
30
38
1F
0F
ENDCHAR
STARTCHAR bar
ENCODING 124
SWIDTH 600 0
DWIDTH 12 0
BBX 2 14 6 0
BITMAP
C0
C0
C0
C0
C0
C0
C0
C0
C0
C0
C0
C0
C0
C0
ENDCHAR
STARTCHAR braceright
ENCODING 125
SWIDTH 600 0
DWIDTH 12 0
BBX 8 14 2 0
BITMAP
F0
F8
1C
0C
0C
0E
07
07
0E
0C
0C
1C
F8
F0
ENDCHAR
STARTCHAR asciitilde
ENCODING 126
SWIDTH 600 0
DWIDTH 12 0
BBX 10 6 2 8
BITMAP
3000
7800
FCC0
CFC0
0780
0300
ENDCHAR
STARTCHAR uni00A0
ENCODING 160
SWIDTH 600 0
DWIDTH 12 0
BBX 1 1 0 0
BITMAP
00
ENDCHAR
STARTCHAR exclamdown
ENCODING 161
SWIDTH 600 0
DWIDTH 12 0
BBX 2 14 6 -4
BITMAP
C0
C0
00
00
C0
C0
C0
C0
C0
C0
C0
C0
C0
C0
ENDCHAR
STARTCHAR cent
ENCODING 162
SWIDTH 600 0
DWIDTH 12 0
BBX 10 14 2 -2
BITMAP
0C00
0C00
3FC0
7FC0
EC00
CC00
CC00
CC00
CC00
EC00
7FC0
3FC0
0C00
0C00
ENDCHAR
STARTCHAR sterling
ENCODING 163
SWIDTH 600 0
DWIDTH 12 0
BBX 10 14 2 0
BITMAP
0F00
1F80
39C0
30C0
3000
3000
FC00
FC00
3000
3000
3000
3000
FFC0
FFC0
ENDCHAR
STARTCHAR currency
ENCODING 164
SWIDTH 600 0
DWIDTH 12 0
BBX 10 10 2 0
BITMAP
C0C0
E1C0
7F80
3F00
3300
3300
3F00
7F80
E1C0
C0C0
ENDCHAR
STARTCHAR yen
ENCODING 165
SWIDTH 600 0
DWIDTH 12 0
BBX 10 14 2 0
BITMAP
C0C0
E1C0
7380
3300
FFC0
FFC0
0C00
0C00
FFC0
FFC0
0C00
0C00
0C00
0C00
ENDCHAR
STARTCHAR brokenbar
ENCODING 166
SWIDTH 600 0
DWIDTH 12 0
BBX 2 14 6 0
BITMAP
C0
C0
C0
C0
C0
C0
00
00
C0
C0
C0
C0
C0
C0
ENDCHAR
STARTCHAR section
ENCODING 167
SWIDTH 600 0
DWIDTH 12 0
BBX 10 18 2 -4
BITMAP
3F00
7F80
E1C0
C0C0
C000
E000
7F00
7F80
E1C0
E1C0
7F80
3F80
01C0
00C0
C0C0
E1C0
7F80
3F00
ENDCHAR
STARTCHAR dieresis
ENCODING 168
SWIDTH 600 0
DWIDTH 12 0
BBX 6 2 4 12
BITMAP
CC
CC
ENDCHAR
STARTCHAR copyright
ENCODING 169
SWIDTH 600 0
DWIDTH 12 0
BBX 10 18 2 -4
BITMAP
3F00
7F80
E1C0
C0C0
CCC0
DEC0
FFC0
F3C0
F0C0
F0C0
F3C0
FFC0
DEC0
CCC0
C0C0
E1C0
7F80
3F00
ENDCHAR
STARTCHAR ordfeminine
ENCODING 170
SWIDTH 600 0
DWIDTH 12 0
BBX 10 14 2 0
BITMAP
3F00
3F80
01C0
00C0
3FC0
7FC0
E0C0
E0C0
7FC0
3FC0
0000
0000
FFC0
FFC0
ENDCHAR
STARTCHAR guillemotleft
ENCODING 171
SWIDTH 600 0
DWIDTH 12 0
BBX 10 6 2 2
BITMAP
30C0
71C0
E380
E380
71C0
30C0
ENDCHAR
STARTCHAR logicalnot
ENCODING 172
SWIDTH 600 0
DWIDTH 12 0
BBX 10 6 2 4
BITMAP
FFC0
FFC0
00C0
00C0
00C0
00C0
ENDCHAR
STARTCHAR registered
ENCODING 174
SWIDTH 600 0
DWIDTH 12 0
BBX 10 18 2 -4
BITMAP
3F00
7F80
E1C0
C0C0
FCC0
FEC0
F7C0
F3C0
F3C0
F7C0
FEC0
FEC0
F7C0
F3C0
C0C0
E1C0
7F80
3F00
ENDCHAR
STARTCHAR macron
ENCODING 175
SWIDTH 600 0
DWIDTH 12 0
BBX 6 2 4 12
BITMAP
FC
FC
ENDCHAR
STARTCHAR degree
ENCODING 176
SWIDTH 600 0
DWIDTH 12 0
BBX 8 6 4 8
BITMAP
3C
7E
E7
E7
7E
3C
ENDCHAR
STARTCHAR plusminus
ENCODING 177
SWIDTH 600 0
DWIDTH 12 0
BBX 10 14 2 0
BITMAP
0C00
0C00
0C00
0C00
FFC0
FFC0
0C00
0C00
0C00
0C00
0000
0000
FFC0
FFC0
ENDCHAR
STARTCHAR twosuperior
ENCODING 178
SWIDTH 600 0
DWIDTH 12 0
BBX 6 10 4 4
BITMAP
F0
F8
1C
1C
38
70
E0
C0
FC
FC
ENDCHAR
STARTCHAR threesuperior
ENCODING 179
SWIDTH 600 0
DWIDTH 12 0
BBX 6 10 4 4
BITMAP
F0
F8
1C
1C
F8
F8
1C
1C
F8
F0
ENDCHAR
STARTCHAR acute
ENCODING 180
SWIDTH 600 0
DWIDTH 12 0
BBX 6 6 4 8
BITMAP
0C
1C
38
70
E0
C0
ENDCHAR
STARTCHAR mu
ENCODING 181
SWIDTH 600 0
DWIDTH 12 0
BBX 10 14 2 -4
BITMAP
C300
C300
C300
C300
C300
C300
C300
C780
FFC0
FCC0
C000
C000
C000
C000
ENDCHAR
STARTCHAR paragraph
ENCODING 182
SWIDTH 600 0
DWIDTH 12 0
BBX 10 14 2 0
BITMAP
3CC0
7CC0
ECC0
CCC0
CCC0
ECC0
7CC0
3CC0
0CC0
0CC0
0CC0
0CC0
0CC0
0CC0
ENDCHAR
STARTCHAR periodcentered
ENCODING 183
SWIDTH 600 0
DWIDTH 12 0
BBX 2 2 6 6
BITMAP
C0
C0
ENDCHAR
STARTCHAR cedilla
ENCODING 184
SWIDTH 600 0
DWIDTH 12 0
BBX 4 6 6 -4
BITMAP
C0
E0
70
70
E0
C0
ENDCHAR
STARTCHAR onesuperior
ENCODING 185
SWIDTH 600 0
DWIDTH 12 0
BBX 6 10 4 4
BITMAP
30
30
F0
F0
30
30
30
30
FC
FC
ENDCHAR
STARTCHAR ordmasculine
ENCODING 186
SWIDTH 600 0
DWIDTH 12 0
BBX 10 14 2 0
BITMAP
3F00
7F80
E1C0
C0C0
C0C0
C0C0
C0C0
E1C0
7F80
3F00
0000
0000
FFC0
FFC0
ENDCHAR
STARTCHAR guillemotright
ENCODING 187
SWIDTH 600 0
DWIDTH 12 0
BBX 10 6 2 2
BITMAP
C300
E380
71C0
71C0
E380
C300
ENDCHAR
STARTCHAR onequarter
ENCODING 188
SWIDTH 600 0
DWIDTH 12 0
BBX 8 18 4 -4
BITMAP
C0
C0
C0
C0
C0
C0
C0
C0
C3
C3
0F
1F
3B
33
3F
3F
03
03
ENDCHAR
STARTCHAR onehalf
ENCODING 189
SWIDTH 600 0
DWIDTH 12 0
BBX 10 18 2 -4
BITMAP
C000
C000
C000
C000
C000
C000
C000
C000
CF00
CF80
01C0
01C0
0380
0700
0E00
0C00
0FC0
0FC0
ENDCHAR
STARTCHAR threequarters
ENCODING 190
SWIDTH 600 0
DWIDTH 12 0
BBX 10 18 2 -4
BITMAP
F000
F800
1C00
1C00
F800
F800
1C00
1C00
F8C0
F0C0
03C0
07C0
0EC0
0CC0
0FC0
0FC0
00C0
00C0
ENDCHAR
STARTCHAR questiondown
ENCODING 191
SWIDTH 600 0
DWIDTH 12 0
BBX 10 14 2 -4
BITMAP
0C00
0C00
0000
0000
0C00
0C00
0C00
1C00
3800
7000
E0C0
E1C0
7F80
3F00
ENDCHAR
STARTCHAR Agrave
ENCODING 192
SWIDTH 600 0
DWIDTH 12 0
BBX 10 14 2 0
BITMAP
3000
3800
1C00
0C00
3F00
7F80
E1C0
C0C0
FFC0
FFC0
C0C0
C0C0
C0C0
C0C0
ENDCHAR
STARTCHAR Aacute
ENCODING 193
SWIDTH 600 0
DWIDTH 12 0
BBX 10 14 2 0
BITMAP
0300
0700
0E00
0C00
3F00
7F80
E1C0
C0C0
FFC0
FFC0
C0C0
C0C0
C0C0
C0C0
ENDCHAR
STARTCHAR Acircumflex
ENCODING 194
SWIDTH 600 0
DWIDTH 12 0
BBX 10 14 2 0
BITMAP
0C00
1E00
3F00
3300
3F00
7F80
E1C0
C0C0
FFC0
FFC0
C0C0
C0C0
C0C0
C0C0
ENDCHAR
STARTCHAR Atilde
ENCODING 195
SWIDTH 600 0
DWIDTH 12 0
BBX 10 14 2 0
BITMAP
0CC0
1FC0
3F80
3300
3F00
7F80
E1C0
C0C0
FFC0
FFC0
C0C0
C0C0
C0C0
C0C0
ENDCHAR
STARTCHAR Adieresis
ENCODING 196
SWIDTH 600 0
DWIDTH 12 0
BBX 10 14 2 0
BITMAP
3300
3300
0000
0000
3F00
7F80
E1C0
C0C0
FFC0
FFC0
C0C0
C0C0
C0C0
C0C0
ENDCHAR
STARTCHAR Aring
ENCODING 197
SWIDTH 600 0
DWIDTH 12 0
BBX 10 14 2 0
BITMAP
0C00
0C00
0000
0000
3F00
7F80
E1C0
C0C0
FFC0
FFC0
C0C0
C0C0
C0C0
C0C0
ENDCHAR
STARTCHAR AE
ENCODING 198
SWIDTH 600 0
DWIDTH 12 0
BBX 10 14 2 0
BITMAP
3FC0
7FC0
EC00
CC00
CC00
CC00
CF00
CF00
FC00
FC00
CC00
CC00
CFC0
CFC0
ENDCHAR
STARTCHAR Ccedilla
ENCODING 199
SWIDTH 600 0
DWIDTH 12 0
BBX 10 18 2 -4
BITMAP
3F00
7F80
E1C0
C0C0
C000
C000
C000
C000
C000
C000
C0C0
E1C0
7F80
3F00
0C00
1C00
3800
3000
ENDCHAR
STARTCHAR Egrave
ENCODING 200
SWIDTH 600 0
DWIDTH 12 0
BBX 10 14 2 0
BITMAP
3000
3800
1C00
0C00
FFC0
FFC0
C000
C000
FF00
FF00
C000
C000
FFC0
FFC0
ENDCHAR
STARTCHAR Eacute
ENCODING 201
SWIDTH 600 0
DWIDTH 12 0
BBX 10 14 2 0
BITMAP
0300
0700
0E00
0C00
FFC0
FFC0
C000
C000
FF00
FF00
C000
C000
FFC0
FFC0
ENDCHAR
STARTCHAR Ecircumflex
ENCODING 202
SWIDTH 600 0
DWIDTH 12 0
BBX 10 14 2 0
BITMAP
0C00
1E00
3F00
3300
FFC0
FFC0
C000
C000
FF00
FF00
C000
C000
FFC0
FFC0
ENDCHAR
STARTCHAR Edieresis
ENCODING 203
SWIDTH 600 0
DWIDTH 12 0
BBX 10 14 2 0
BITMAP
3300
3300
0000
0000
FFC0
FFC0
C000
C000
FF00
FF00
C000
C000
FFC0
FFC0
ENDCHAR
STARTCHAR Igrave
ENCODING 204
SWIDTH 600 0
DWIDTH 12 0
BBX 6 14 4 0
BITMAP
C0
E0
70
30
00
00
FC
FC
30
30
30
30
FC
FC
ENDCHAR
STARTCHAR Iacute
ENCODING 205
SWIDTH 600 0
DWIDTH 12 0
BBX 6 14 4 0
BITMAP
0C
1C
38
30
00
00
FC
FC
30
30
30
30
FC
FC
ENDCHAR
STARTCHAR Icircumflex
ENCODING 206
SWIDTH 600 0
DWIDTH 12 0
BBX 6 14 4 0
BITMAP
30
78
FC
CC
00
00
FC
FC
30
30
30
30
FC
FC
ENDCHAR
STARTCHAR Idieresis
ENCODING 207
SWIDTH 600 0
DWIDTH 12 0
BBX 6 14 4 0
BITMAP
CC
CC
00
00
FC
FC
30
30
30
30
30
30
FC
FC
ENDCHAR
STARTCHAR Eth
ENCODING 208
SWIDTH 600 0
DWIDTH 12 0
BBX 10 14 2 0
BITMAP
3F00
3F80
31C0
30C0
30C0
30C0
FCC0
FCC0
30C0
30C0
30C0
31C0
3F80
3F00
ENDCHAR
STARTCHAR Ntilde
ENCODING 209
SWIDTH 600 0
DWIDTH 12 0
BBX 10 14 2 0
BITMAP
0CC0
1FC0
3F80
3300
0000
0000
F0C0
F8C0
DCC0
CEC0
C7C0
C3C0
C0C0
C0C0
ENDCHAR
STARTCHAR Ograve
ENCODING 210
SWIDTH 600 0
DWIDTH 12 0
BBX 10 14 2 0
BITMAP
3000
3800
1C00
0C00
3F00
7F80
E1C0
C0C0
C0C0
C0C0
C0C0
E1C0
7F80
3F00
ENDCHAR
STARTCHAR Oacute
ENCODING 211
SWIDTH 600 0
DWIDTH 12 0
BBX 10 14 2 0
BITMAP
0300
0700
0E00
0C00
3F00
7F80
E1C0
C0C0
C0C0
C0C0
C0C0
E1C0
7F80
3F00
ENDCHAR
STARTCHAR Ocircumflex
ENCODING 212
SWIDTH 600 0
DWIDTH 12 0
BBX 10 14 2 0
BITMAP
0C00
1E00
3F00
3300
3F00
7F80
E1C0
C0C0
C0C0
C0C0
C0C0
E1C0
7F80
3F00
ENDCHAR
STARTCHAR Otilde
ENCODING 213
SWIDTH 600 0
DWIDTH 12 0
BBX 10 14 2 0
BITMAP
0CC0
1FC0
3F80
3300
3F00
7F80
E1C0
C0C0
C0C0
C0C0
C0C0
E1C0
7F80
3F00
ENDCHAR
STARTCHAR Odieresis
ENCODING 214
SWIDTH 600 0
DWIDTH 12 0
BBX 10 14 2 0
BITMAP
3300
3300
0000
0000
3F00
7F80
E1C0
C0C0
C0C0
C0C0
C0C0
E1C0
7F80
3F00
ENDCHAR
STARTCHAR multiply
ENCODING 215
SWIDTH 600 0
DWIDTH 12 0
BBX 10 10 2 2
BITMAP
C0C0
E1C0
7380
3F00
1E00
1E00
3F00
7380
E1C0
C0C0
ENDCHAR
STARTCHAR Oslash
ENCODING 216
SWIDTH 600 0
DWIDTH 12 0
BBX 10 14 2 0
BITMAP
3F00
7F80
E1C0
C0C0
C3C0
C7C0
CEC0
DCC0
F8C0
F0C0
C0C0
E1C0
7F80
3F00
ENDCHAR
STARTCHAR Ugrave
ENCODING 217
SWIDTH 600 0
DWIDTH 12 0
BBX 10 14 2 0
BITMAP
3000
3800
1C00
0C00
C0C0
C0C0
C0C0
C0C0
C0C0
C0C0
C0C0
E1C0
7F80
3F00
ENDCHAR
STARTCHAR Uacute
ENCODING 218
SWIDTH 600 0
DWIDTH 12 0
BBX 10 14 2 0
BITMAP
0300
0700
0E00
0C00
C0C0
C0C0
C0C0
C0C0
C0C0
C0C0
C0C0
E1C0
7F80
3F00
ENDCHAR
STARTCHAR Ucircumflex
ENCODING 219
SWIDTH 600 0
DWIDTH 12 0
BBX 10 14 2 0
BITMAP
0C00
1E00
3F00
3300
0000
0000
C0C0
C0C0
C0C0
C0C0
C0C0
E1C0
7F80
3F00
ENDCHAR
STARTCHAR Udieresis
ENCODING 220
SWIDTH 600 0
DWIDTH 12 0
BBX 10 14 2 0
BITMAP
3300
3300
0000
0000
C0C0
C0C0
C0C0
C0C0
C0C0
C0C0
C0C0
E1C0
7F80
3F00
ENDCHAR
STARTCHAR Yacute
ENCODING 221
SWIDTH 600 0
DWIDTH 12 0
BBX 10 14 2 0
BITMAP
0300
0700
0E00
0C00
C0C0
E1C0
7380
3F00
1E00
0C00
0C00
0C00
0C00
0C00
ENDCHAR
STARTCHAR Thorn
ENCODING 222
SWIDTH 600 0
DWIDTH 12 0
BBX 10 14 2 0
BITMAP
C000
C000
FF00
FF80
C1C0
C0C0
C0C0
C1C0
FF80
FF00
C000
C000
C000
C000
ENDCHAR
STARTCHAR germandbls
ENCODING 223
SWIDTH 600 0
DWIDTH 12 0
BBX 10 18 2 -4
BITMAP
3C00
7E00
E700
C300
C300
C300
CF00
CF80
C1C0
C0C0
C0C0
C1C0
CF80
CF00
C000
C000
C000
C000
ENDCHAR
STARTCHAR agrave
ENCODING 224
SWIDTH 600 0
DWIDTH 12 0
BBX 10 14 2 0
BITMAP
3000
3800
1C00
0C00
3F00
3F80
01C0
00C0
3FC0
7FC0
E0C0
E0C0
7FC0
3FC0
ENDCHAR
STARTCHAR aacute
ENCODING 225
SWIDTH 600 0
DWIDTH 12 0
BBX 10 14 2 0
BITMAP
0300
0700
0E00
0C00
3F00
3F80
01C0
00C0
3FC0
7FC0
E0C0
E0C0
7FC0
3FC0
ENDCHAR
STARTCHAR acircumflex
ENCODING 226
SWIDTH 600 0
DWIDTH 12 0
BBX 10 14 2 0
BITMAP
0C00
1E00
3F00
3300
3F00
3F80
01C0
00C0
3FC0
7FC0
E0C0
E0C0
7FC0
3FC0
ENDCHAR
STARTCHAR atilde
ENCODING 227
SWIDTH 600 0
DWIDTH 12 0
BBX 10 14 2 0
BITMAP
0CC0
1FC0
3F80
3300
3F00
3F80
01C0
00C0
3FC0
7FC0
E0C0
E0C0
7FC0
3FC0
ENDCHAR
STARTCHAR adieresis
ENCODING 228
SWIDTH 600 0
DWIDTH 12 0
BBX 10 14 2 0
BITMAP
3300
3300
0000
0000
3F00
3F80
01C0
00C0
3FC0
7FC0
E0C0
E0C0
7FC0
3FC0
ENDCHAR
STARTCHAR aring
ENCODING 229
SWIDTH 600 0
DWIDTH 12 0
BBX 10 14 2 0
BITMAP
0C00
0C00
0000
0000
3F00
3F80
01C0
00C0
3FC0
7FC0
E0C0
E0C0
7FC0
3FC0
ENDCHAR
STARTCHAR ae
ENCODING 230
SWIDTH 600 0
DWIDTH 12 0
BBX 10 10 2 0
BITMAP
3300
3F80
1FC0
0CC0
3FC0
7FC0
EC00
EC00
7F00
3F00
ENDCHAR
STARTCHAR ccedilla
ENCODING 231
SWIDTH 600 0
DWIDTH 12 0
BBX 10 14 2 -4
BITMAP
3FC0
7FC0
E000
C000
C000
C000
C000
E000
7FC0
3FC0
0300
0700
0E00
0C00
ENDCHAR
STARTCHAR egrave
ENCODING 232
SWIDTH 600 0
DWIDTH 12 0
BBX 10 14 2 0
BITMAP
3000
3800
1C00
0C00
3F00
7F80
E1C0
C0C0
FFC0
FFC0
C000
E000
7F00
3F00
ENDCHAR
STARTCHAR eacute
ENCODING 233
SWIDTH 600 0
DWIDTH 12 0
BBX 10 14 2 0
BITMAP
0300
0700
0E00
0C00
3F00
7F80
E1C0
C0C0
FFC0
FFC0
C000
E000
7F00
3F00
ENDCHAR
STARTCHAR ecircumflex
ENCODING 234
SWIDTH 600 0
DWIDTH 12 0
BBX 10 14 2 0
BITMAP
0C00
1E00
3F00
3300
3F00
7F80
E1C0
C0C0
FFC0
FFC0
C000
E000
7F00
3F00
ENDCHAR
STARTCHAR edieresis
ENCODING 235
SWIDTH 600 0
DWIDTH 12 0
BBX 10 14 2 0
BITMAP
3300
3300
0000
0000
3F00
7F80
E1C0
C0C0
FFC0
FFC0
C000
E000
7F00
3F00
ENDCHAR
STARTCHAR igrave
ENCODING 236
SWIDTH 600 0
DWIDTH 12 0
BBX 6 14 4 0
BITMAP
C0
E0
70
30
00
00
F0
F0
30
30
30
30
FC
FC
ENDCHAR
STARTCHAR iacute
ENCODING 237
SWIDTH 600 0
DWIDTH 12 0
BBX 6 14 4 0
BITMAP
0C
1C
38
30
00
00
F0
F0
30
30
30
30
FC
FC
ENDCHAR
STARTCHAR icircumflex
ENCODING 238
SWIDTH 600 0
DWIDTH 12 0
BBX 6 14 4 0
BITMAP
30
78
FC
CC
00
00
F0
F0
30
30
30
30
FC
FC
ENDCHAR
STARTCHAR idieresis
ENCODING 239
SWIDTH 600 0
DWIDTH 12 0
BBX 6 14 4 0
BITMAP
CC
CC
00
00
F0
F0
30
30
30
30
30
30
FC
FC
ENDCHAR
STARTCHAR eth
ENCODING 240
SWIDTH 600 0
DWIDTH 12 0
BBX 10 14 2 0
BITMAP
F300
FF00
1E00
1E00
3F00
3380
01C0
00C0
3FC0
7FC0
E0C0
E1C0
7F80
3F00
ENDCHAR
STARTCHAR ntilde
ENCODING 241
SWIDTH 600 0
DWIDTH 12 0
BBX 10 14 2 0
BITMAP
0CC0
1FC0
3F80
3300
FF00
FF80
C1C0
C0C0
C0C0
C0C0
C0C0
C0C0
C0C0
C0C0
ENDCHAR
STARTCHAR ograve
ENCODING 242
SWIDTH 600 0
DWIDTH 12 0
BBX 10 14 2 0
BITMAP
3000
3800
1C00
0C00
0000
0000
3F00
7F80
E1C0
C0C0
C0C0
E1C0
7F80
3F00
ENDCHAR
STARTCHAR oacute
ENCODING 243
SWIDTH 600 0
DWIDTH 12 0
BBX 10 14 2 0
BITMAP
0300
0700
0E00
0C00
0000
0000
3F00
7F80
E1C0
C0C0
C0C0
E1C0
7F80
3F00
ENDCHAR
STARTCHAR ocircumflex
ENCODING 244
SWIDTH 600 0
DWIDTH 12 0
BBX 10 14 2 0
BITMAP
0C00
1E00
3F00
3300
0000
0000
3F00
7F80
E1C0
C0C0
C0C0
E1C0
7F80
3F00
ENDCHAR
STARTCHAR otilde
ENCODING 245
SWIDTH 600 0
DWIDTH 12 0
BBX 10 14 2 0
BITMAP
0CC0
1FC0
3F80
3300
0000
0000
3F00
7F80
E1C0
C0C0
C0C0
E1C0
7F80
3F00
ENDCHAR
STARTCHAR odieresis
ENCODING 246
SWIDTH 600 0
DWIDTH 12 0
BBX 10 12 2 0
BITMAP
3300
3300
0000
0000
3F00
7F80
E1C0
C0C0
C0C0
E1C0
7F80
3F00
ENDCHAR
STARTCHAR divide
ENCODING 247
SWIDTH 600 0
DWIDTH 12 0
BBX 10 10 2 2
BITMAP
0C00
0C00
0000
0000
FFC0
FFC0
0000
0000
0C00
0C00
ENDCHAR
STARTCHAR oslash
ENCODING 248
SWIDTH 600 0
DWIDTH 12 0
BBX 10 10 2 0
BITMAP
3CC0
7FC0
E780
C780
CFC0
FCC0
78C0
79C0
FF80
CF00
ENDCHAR
STARTCHAR ugrave
ENCODING 249
SWIDTH 600 0
DWIDTH 12 0
BBX 10 14 2 0
BITMAP
3000
3800
1C00
0C00
C0C0
C0C0
C0C0
C0C0
C0C0
C0C0
C0C0
E0C0
7FC0
3FC0
ENDCHAR
STARTCHAR uacute
ENCODING 250
SWIDTH 600 0
DWIDTH 12 0
BBX 10 14 2 0
BITMAP
0300
0700
0E00
0C00
C0C0
C0C0
C0C0
C0C0
C0C0
C0C0
C0C0
E0C0
7FC0
3FC0
ENDCHAR
STARTCHAR ucircumflex
ENCODING 251
SWIDTH 600 0
DWIDTH 12 0
BBX 10 14 2 0
BITMAP
0C00
1E00
3F00
3300
0000
0000
C0C0
C0C0
C0C0
C0C0
C0C0
E0C0
7FC0
3FC0
ENDCHAR
STARTCHAR udieresis
ENCODING 252
SWIDTH 600 0
DWIDTH 12 0
BBX 10 12 2 0
BITMAP
3300
3300
0000
0000
C0C0
C0C0
C0C0
C0C0
C0C0
E0C0
7FC0
3FC0
ENDCHAR
STARTCHAR yacute
ENCODING 253
SWIDTH 600 0
DWIDTH 12 0
BBX 10 18 2 -4
BITMAP
0300
0700
0E00
0C00
C0C0
C0C0
C0C0
C0C0
C0C0
C0C0
C0C0
E0C0
7FC0
3FC0
00C0
01C0
3F80
3F00
ENDCHAR
STARTCHAR thorn
ENCODING 254
SWIDTH 600 0
DWIDTH 12 0
BBX 10 18 2 -4
BITMAP
C000
C000
C000
C000
FF00
FF80
C1C0
C0C0
C0C0
C0C0
C0C0
C1C0
FF80
FF00
C000
C000
C000
C000
ENDCHAR
STARTCHAR ydieresis
ENCODING 255
SWIDTH 600 0
DWIDTH 12 0
BBX 10 18 2 -4
BITMAP
3300
3300
0000
0000
C0C0
C0C0
C0C0
C0C0
C0C0
C0C0
C0C0
E0C0
7FC0
3FC0
00C0
01C0
3F80
3F00
ENDCHAR
STARTCHAR Amacron
ENCODING 256
SWIDTH 600 0
DWIDTH 12 0
BBX 10 14 2 0
BITMAP
3F00
3F00
0000
0000
3F00
7F80
E1C0
C0C0
FFC0
FFC0
C0C0
C0C0
C0C0
C0C0
ENDCHAR
STARTCHAR amacron
ENCODING 257
SWIDTH 600 0
DWIDTH 12 0
BBX 10 14 2 0
BITMAP
3F00
3F00
0000
0000
3F00
3F80
01C0
00C0
3FC0
7FC0
E0C0
E0C0
7FC0
3FC0
ENDCHAR
STARTCHAR Aogonek
ENCODING 260
SWIDTH 600 0
DWIDTH 12 0
BBX 10 18 2 -4
BITMAP
0C00
1E00
3F00
7380
E1C0
C0C0
C0C0
C0C0
FFC0
FFC0
C0C0
C0C0
C0C0
C1C0
0380
0380
01C0
00C0
ENDCHAR
STARTCHAR aogonek
ENCODING 261
SWIDTH 600 0
DWIDTH 12 0
BBX 10 14 2 -4
BITMAP
3F00
3F80
01C0
00C0
3FC0
7FC0
E0C0
E0C0
7FC0
3FC0
0300
0380
01C0
00C0
ENDCHAR
STARTCHAR Cacute
ENCODING 262
SWIDTH 600 0
DWIDTH 12 0
BBX 10 14 2 0
BITMAP
0300
0700
0E00
0C00
3F00
7F80
E1C0
C0C0
C000
C000
C0C0
E1C0
7F80
3F00
ENDCHAR
STARTCHAR cacute
ENCODING 263
SWIDTH 600 0
DWIDTH 12 0
BBX 10 14 2 0
BITMAP
0300
0700
0E00
0C00
3FC0
7FC0
E000
C000
C000
C000
C000
E000
7FC0
3FC0
ENDCHAR
STARTCHAR Ccircumflex
ENCODING 264
SWIDTH 600 0
DWIDTH 12 0
BBX 10 14 2 0
BITMAP
0C00
1E00
3F00
3300
3F00
7F80
E1C0
C0C0
C000
C000
C0C0
E1C0
7F80
3F00
ENDCHAR
STARTCHAR ccircumflex
ENCODING 265
SWIDTH 600 0
DWIDTH 12 0
BBX 10 14 2 0
BITMAP
0C00
1E00
3F00
3300
3FC0
7FC0
E000
C000
C000
C000
C000
E000
7FC0
3FC0
ENDCHAR
STARTCHAR Cdotaccent
ENCODING 266
SWIDTH 600 0
DWIDTH 12 0
BBX 10 14 2 0
BITMAP
0C00
0C00
0000
0000
3F00
7F80
E1C0
C0C0
C000
C000
C0C0
E1C0
7F80
3F00
ENDCHAR
STARTCHAR cdotaccent
ENCODING 267
SWIDTH 600 0
DWIDTH 12 0
BBX 10 14 2 0
BITMAP
0C00
0C00
0000
0000
3FC0
7FC0
E000
C000
C000
C000
C000
E000
7FC0
3FC0
ENDCHAR
STARTCHAR Ccaron
ENCODING 268
SWIDTH 600 0
DWIDTH 12 0
BBX 10 14 2 0
BITMAP
3300
3F00
1E00
0C00
3F00
7F80
E1C0
C0C0
C000
C000
C0C0
E1C0
7F80
3F00
ENDCHAR
STARTCHAR ccaron
ENCODING 269
SWIDTH 600 0
DWIDTH 12 0
BBX 10 14 2 0
BITMAP
3300
3F00
1E00
0C00
3FC0
7FC0
E000
C000
C000
C000
C000
E000
7FC0
3FC0
ENDCHAR
STARTCHAR Dcaron
ENCODING 270
SWIDTH 600 0
DWIDTH 12 0
BBX 10 14 2 0
BITMAP
3300
3F00
1E00
0C00
FF00
FF80
C1C0
C0C0
C0C0
C0C0
C0C0
C1C0
FF80
FF00
ENDCHAR
STARTCHAR dcaron
ENCODING 271
SWIDTH 600 0
DWIDTH 12 0
BBX 10 14 2 0
BITMAP
0CC0
0CC0
0CC0
0CC0
3C00
7C00
EC00
CC00
CC00
CC00
CC00
EC00
7C00
3C00
ENDCHAR
STARTCHAR Dcroat
ENCODING 272
SWIDTH 600 0
DWIDTH 12 0
BBX 10 14 2 0
BITMAP
3F00
3F80
31C0
30C0
30C0
30C0
FCC0
FCC0
30C0
30C0
30C0
31C0
3F80
3F00
ENDCHAR
STARTCHAR dcroat
ENCODING 273
SWIDTH 600 0
DWIDTH 12 0
BBX 10 14 2 0
BITMAP
0300
0300
0FC0
0FC0
0300
0300
3F00
7F00
E300
C300
C300
E300
7F00
3F00
ENDCHAR
STARTCHAR Emacron
ENCODING 274
SWIDTH 600 0
DWIDTH 12 0
BBX 10 14 2 0
BITMAP
3F00
3F00
0000
0000
FFC0
FFC0
C000
C000
FF00
FF00
C000
C000
FFC0
FFC0
ENDCHAR
STARTCHAR emacron
ENCODING 275
SWIDTH 600 0
DWIDTH 12 0
BBX 10 14 2 0
BITMAP
3F00
3F00
0000
0000
3F00
7F80
E1C0
C0C0
FFC0
FFC0
C000
E000
7F00
3F00
ENDCHAR
STARTCHAR Edotaccent
ENCODING 278
SWIDTH 600 0
DWIDTH 12 0
BBX 10 14 2 0
BITMAP
0C00
0C00
0000
0000
FFC0
FFC0
C000
C000
FF00
FF00
C000
C000
FFC0
FFC0
ENDCHAR
STARTCHAR edotaccent
ENCODING 279
SWIDTH 600 0
DWIDTH 12 0
BBX 10 14 2 0
BITMAP
0C00
0C00
0000
0000
3F00
7F80
E1C0
C0C0
FFC0
FFC0
C000
E000
7F00
3F00
ENDCHAR
STARTCHAR Eogonek
ENCODING 280
SWIDTH 600 0
DWIDTH 12 0
BBX 10 18 2 -4
BITMAP
FFC0
FFC0
C000
C000
C000
C000
FF00
FF00
C000
C000
C000
C000
FFC0
FFC0
0300
0380
01C0
00C0
ENDCHAR
STARTCHAR eogonek
ENCODING 281
SWIDTH 600 0
DWIDTH 12 0
BBX 10 14 2 -4
BITMAP
3F00
7F80
E1C0
C0C0
FFC0
FFC0
C000
E000
7F00
3F00
0300
0380
01C0
00C0
ENDCHAR
STARTCHAR Ecaron
ENCODING 282
SWIDTH 600 0
DWIDTH 12 0
BBX 10 14 2 0
BITMAP
3300
3F00
1E00
0C00
FFC0
FFC0
C000
C000
FF00
FF00
C000
C000
FFC0
FFC0
ENDCHAR
STARTCHAR ecaron
ENCODING 283
SWIDTH 600 0
DWIDTH 12 0
BBX 10 14 2 0
BITMAP
3300
3F00
1E00
0C00
3F00
7F80
E1C0
C0C0
FFC0
FFC0
C000
E000
7F00
3F00
ENDCHAR
STARTCHAR Gcircumflex
ENCODING 284
SWIDTH 600 0
DWIDTH 12 0
BBX 10 14 2 0
BITMAP
0C00
1E00
3F00
3300
3FC0
7FC0
E000
C000
C3C0
C3C0
C0C0
E0C0
7FC0
3FC0
ENDCHAR
STARTCHAR gcircumflex
ENCODING 285
SWIDTH 600 0
DWIDTH 12 0
BBX 10 18 2 -4
BITMAP
0C00
1E00
3F00
3300
3FC0
7FC0
E0C0
C0C0
C0C0
C0C0
C0C0
E0C0
7FC0
3FC0
00C0
01C0
3F80
3F00
ENDCHAR
STARTCHAR Gdotaccent
ENCODING 288
SWIDTH 600 0
DWIDTH 12 0
BBX 10 14 2 0
BITMAP
0C00
0C00
0000
0000
3FC0
7FC0
E000
C000
C3C0
C3C0
C0C0
E0C0
7FC0
3FC0
ENDCHAR
STARTCHAR gdotaccent
ENCODING 289
SWIDTH 600 0
DWIDTH 12 0
BBX 10 18 2 -4
BITMAP
0C00
0C00
0000
0000
3FC0
7FC0
E0C0
C0C0
C0C0
C0C0
C0C0
E0C0
7FC0
3FC0
00C0
01C0
3F80
3F00
ENDCHAR
STARTCHAR Hbar
ENCODING 294
SWIDTH 600 0
DWIDTH 12 0
BBX 10 14 2 0
BITMAP
C0C0
C0C0
FFC0
FFC0
C0C0
C0C0
FFC0
FFC0
C0C0
C0C0
C0C0
C0C0
C0C0
C0C0
ENDCHAR
STARTCHAR hbar
ENCODING 295
SWIDTH 600 0
DWIDTH 12 0
BBX 10 14 2 0
BITMAP
3000
3000
FC00
FC00
3000
3000
3F00
3F80
31C0
30C0
30C0
30C0
30C0
30C0
ENDCHAR
STARTCHAR Itilde
ENCODING 296
SWIDTH 600 0
DWIDTH 12 0
BBX 8 14 4 0
BITMAP
33
7F
FE
CC
00
00
FC
FC
30
30
30
30
FC
FC
ENDCHAR
STARTCHAR itilde
ENCODING 297
SWIDTH 600 0
DWIDTH 12 0
BBX 8 14 4 0
BITMAP
33
7F
FE
CC
00
00
F0
F0
30
30
30
30
FC
FC
ENDCHAR
STARTCHAR Imacron
ENCODING 298
SWIDTH 600 0
DWIDTH 12 0
BBX 6 14 4 0
BITMAP
FC
FC
00
00
FC
FC
30
30
30
30
30
30
FC
FC
ENDCHAR
STARTCHAR imacron
ENCODING 299
SWIDTH 600 0
DWIDTH 12 0
BBX 6 14 4 0
BITMAP
FC
FC
00
00
F0
F0
30
30
30
30
30
30
FC
FC
ENDCHAR
STARTCHAR Iogonek
ENCODING 302
SWIDTH 600 0
DWIDTH 12 0
BBX 6 18 4 -4
BITMAP
FC
FC
30
30
30
30
30
30
30
30
30
30
FC
FC
30
38
1C
0C
ENDCHAR
STARTCHAR iogonek
ENCODING 303
SWIDTH 600 0
DWIDTH 12 0
BBX 6 18 4 -4
BITMAP
30
30
00
00
F0
F0
30
30
30
30
30
30
FC
FC
30
38
1C
0C
ENDCHAR
STARTCHAR Idotaccent
ENCODING 304
SWIDTH 600 0
DWIDTH 12 0
BBX 6 14 4 0
BITMAP
30
30
00
00
FC
FC
30
30
30
30
30
30
FC
FC
ENDCHAR
STARTCHAR dotlessi
ENCODING 305
SWIDTH 600 0
DWIDTH 12 0
BBX 6 10 4 0
BITMAP
F0
F0
30
30
30
30
30
30
FC
FC
ENDCHAR
STARTCHAR IJ
ENCODING 306
SWIDTH 600 0
DWIDTH 12 0
BBX 10 14 2 0
BITMAP
C0C0
C0C0
C0C0
C0C0
C0C0
C0C0
C0C0
C0C0
C0C0
C0C0
CCC0
CFC0
C780
C300
ENDCHAR
STARTCHAR ij
ENCODING 307
SWIDTH 600 0
DWIDTH 12 0
BBX 10 18 2 -4
BITMAP
30C0
30C0
0000
0000
F0C0
F0C0
30C0
30C0
30C0
30C0
30C0
30C0
FCC0
FCC0
00C0
01C0
0380
0300
ENDCHAR
STARTCHAR Jcircumflex
ENCODING 308
SWIDTH 600 0
DWIDTH 12 0
BBX 10 14 2 0
BITMAP
0300
0780
0FC0
0CC0
0000
0000
0300
0300
0300
0300
C300
E700
7E00
3C00
ENDCHAR
STARTCHAR jcircumflex
ENCODING 309
SWIDTH 600 0
DWIDTH 12 0
BBX 6 18 4 -4
BITMAP
30
78
FC
CC
00
00
30
30
30
30
30
30
30
30
30
70
E0
C0
ENDCHAR
STARTCHAR kgreenlandic
ENCODING 312
SWIDTH 600 0
DWIDTH 12 0
BBX 10 10 2 0
BITMAP
C0C0
C1C0
C380
C700
FE00
FE00
C700
C380
C1C0
C0C0
ENDCHAR
STARTCHAR Lcaron
ENCODING 317
SWIDTH 600 0
DWIDTH 12 0
BBX 10 14 2 0
BITMAP
C300
C300
C300
C700
CE00
CC00
C000
C000
C000
C000
C000
C000
FFC0
FFC0
ENDCHAR
STARTCHAR lcaron
ENCODING 318
SWIDTH 600 0
DWIDTH 12 0
BBX 10 14 2 0
BITMAP
F0C0
F0C0
30C0
31C0
3380
3300
3000
3000
3000
3000
3000
3000
FC00
FC00
ENDCHAR
STARTCHAR Ldot
ENCODING 319
SWIDTH 600 0
DWIDTH 12 0
BBX 10 14 2 0
BITMAP
C000
C000
C000
C000
C000
C000
C0C0
C0C0
C000
C000
C000
C000
FFC0
FFC0
ENDCHAR
STARTCHAR ldot
ENCODING 320
SWIDTH 600 0
DWIDTH 12 0
BBX 10 14 2 0
BITMAP
F000
F000
3000
3000
3000
3000
30C0
30C0
3000
3000
3000
3000
FC00
FC00
ENDCHAR
STARTCHAR Lslash
ENCODING 321
SWIDTH 600 0
DWIDTH 12 0
BBX 10 14 2 0
BITMAP
3000
3000
3000
3000
3C00
3C00
F000
F000
3000
3000
3000
3000
3FC0
3FC0
ENDCHAR
STARTCHAR lslash
ENCODING 322
SWIDTH 600 0
DWIDTH 12 0
BBX 6 14 4 0
BITMAP
F0
F0
30
30
3C
3C
F0
F0
30
30
30
30
FC
FC
ENDCHAR
STARTCHAR Nacute
ENCODING 323
SWIDTH 600 0
DWIDTH 12 0
BBX 10 14 2 0
BITMAP
0300
0700
0E00
0C00
C0C0
C0C0
F0C0
F8C0
DCC0
CEC0
C7C0
C3C0
C0C0
C0C0
ENDCHAR
STARTCHAR nacute
ENCODING 324
SWIDTH 600 0
DWIDTH 12 0
BBX 10 14 2 0
BITMAP
0300
0700
0E00
0C00
FF00
FF80
C1C0
C0C0
C0C0
C0C0
C0C0
C0C0
C0C0
C0C0
ENDCHAR
STARTCHAR Ncaron
ENCODING 327
SWIDTH 600 0
DWIDTH 12 0
BBX 10 14 2 0
BITMAP
3300
3F00
1E00
0C00
C0C0
C0C0
F0C0
F8C0
DCC0
CEC0
C7C0
C3C0
C0C0
C0C0
ENDCHAR
STARTCHAR ncaron
ENCODING 328
SWIDTH 600 0
DWIDTH 12 0
BBX 10 14 2 0
BITMAP
3300
3F00
1E00
0C00
FF00
FF80
C1C0
C0C0
C0C0
C0C0
C0C0
C0C0
C0C0
C0C0
ENDCHAR
STARTCHAR napostrophe
ENCODING 329
SWIDTH 600 0
DWIDTH 12 0
BBX 10 14 2 0
BITMAP
C000
C000
C000
C000
CF00
CF80
0DC0
0CC0
0CC0
0CC0
0CC0
0CC0
0CC0
0CC0
ENDCHAR
STARTCHAR Eng
ENCODING 330
SWIDTH 600 0
DWIDTH 12 0
BBX 10 18 2 -4
BITMAP
C0C0
C0C0
C0C0
C0C0
F0C0
F8C0
DCC0
CEC0
C7C0
C3C0
C0C0
C0C0
C0C0
C0C0
00C0
01C0
3F80
3F00
ENDCHAR
STARTCHAR eng
ENCODING 331
SWIDTH 600 0
DWIDTH 12 0
BBX 10 14 2 -4
BITMAP
FF00
FF80
C1C0
C0C0
C0C0
C0C0
C0C0
C0C0
C0C0
C0C0
00C0
01C0
3F80
3F00
ENDCHAR
STARTCHAR Omacron
ENCODING 332
SWIDTH 600 0
DWIDTH 12 0
BBX 10 14 2 0
BITMAP
3F00
3F00
0000
0000
3F00
7F80
E1C0
C0C0
C0C0
C0C0
C0C0
E1C0
7F80
3F00
ENDCHAR
STARTCHAR omacron
ENCODING 333
SWIDTH 600 0
DWIDTH 12 0
BBX 10 12 2 0
BITMAP
3F00
3F00
0000
0000
3F00
7F80
E1C0
C0C0
C0C0
E1C0
7F80
3F00
ENDCHAR
STARTCHAR OE
ENCODING 338
SWIDTH 600 0
DWIDTH 12 0
BBX 10 14 2 0
BITMAP
3FC0
7FC0
EC00
CC00
CC00
CC00
CF00
CF00
CC00
CC00
CC00
EC00
7FC0
3FC0
ENDCHAR
STARTCHAR oe
ENCODING 339
SWIDTH 600 0
DWIDTH 12 0
BBX 10 10 2 0
BITMAP
3300
7F80
FFC0
CCC0
CFC0
CFC0
CC00
FE00
7FC0
33C0
ENDCHAR
STARTCHAR Racute
ENCODING 340
SWIDTH 600 0
DWIDTH 12 0
BBX 10 14 2 0
BITMAP
0300
0700
0E00
0C00
FF00
FF80
C1C0
C1C0
FF80
FF00
C300
C380
C1C0
C0C0
ENDCHAR
STARTCHAR racute
ENCODING 341
SWIDTH 600 0
DWIDTH 12 0
BBX 8 14 4 0
BITMAP
03
07
0E
0C
CF
DF
F8
F0
C0
C0
C0
C0
C0
C0
ENDCHAR
STARTCHAR Rcaron
ENCODING 344
SWIDTH 600 0
DWIDTH 12 0
BBX 10 14 2 0
BITMAP
3300
3F00
1E00
0C00
FF00
FF80
C1C0
C1C0
FF80
FF00
C300
C380
C1C0
C0C0
ENDCHAR
STARTCHAR rcaron
ENCODING 345
SWIDTH 600 0
DWIDTH 12 0
BBX 8 14 4 0
BITMAP
33
3F
1E
0C
CF
DF
F8
F0
C0
C0
C0
C0
C0
C0
ENDCHAR
STARTCHAR sacute
ENCODING 347
SWIDTH 600 0
DWIDTH 12 0
BBX 10 14 2 0
BITMAP
0300
0700
0E00
0C00
3FC0
7FC0
E000
E000
7F00
3F80
01C0
01C0
FF80
FF00
ENDCHAR
STARTCHAR Scedilla
ENCODING 350
SWIDTH 600 0
DWIDTH 12 0
BBX 10 18 2 -4
BITMAP
3F00
7F80
E1C0
C0C0
C000
E000
7F00
3F80
01C0
00C0
C0C0
E1C0
7F80
3F00
0C00
1C00
3800
3000
ENDCHAR
STARTCHAR scedilla
ENCODING 351
SWIDTH 600 0
DWIDTH 12 0
BBX 10 14 2 -4
BITMAP
3FC0
7FC0
E000
E000
7F00
3F80
01C0
01C0
FF80
FF00
0C00
1C00
3800
3000
ENDCHAR
STARTCHAR scaron
ENCODING 353
SWIDTH 600 0
DWIDTH 12 0
BBX 10 14 2 0
BITMAP
3300
3F00
1E00
0C00
3FC0
7FC0
E000
E000
7F00
3F80
01C0
01C0
FF80
FF00
ENDCHAR
STARTCHAR uni0162
ENCODING 354
SWIDTH 600 0
DWIDTH 12 0
BBX 10 18 2 -4
BITMAP
FFC0
FFC0
0C00
0C00
0C00
0C00
0C00
0C00
0C00
0C00
0C00
0C00
0C00
0E00
0700
0700
0E00
0C00
ENDCHAR
STARTCHAR uni0163
ENCODING 355
SWIDTH 600 0
DWIDTH 12 0
BBX 8 18 4 -4
BITMAP
30
30
30
30
FC
FC
30
30
30
30
33
3F
1E
0C
0C
1C
38
30
ENDCHAR
STARTCHAR Tcaron
ENCODING 356
SWIDTH 600 0
DWIDTH 12 0
BBX 10 14 2 0
BITMAP
3300
3F00
1E00
0C00
FFC0
FFC0
0C00
0C00
0C00
0C00
0C00
0C00
0C00
0C00
ENDCHAR
STARTCHAR tcaron
ENCODING 357
SWIDTH 600 0
DWIDTH 12 0
BBX 10 14 2 0
BITMAP
30C0
30C0
30C0
30C0
FC00
FC00
3000
3000
3000
3000
3000
3800
1C00
0C00
ENDCHAR
STARTCHAR Umacron
ENCODING 362
SWIDTH 600 0
DWIDTH 12 0
BBX 10 14 2 0
BITMAP
3F00
3F00
0000
0000
C0C0
C0C0
C0C0
C0C0
C0C0
C0C0
C0C0
E1C0
7F80
3F00
ENDCHAR
STARTCHAR umacron
ENCODING 363
SWIDTH 600 0
DWIDTH 12 0
BBX 10 12 2 0
BITMAP
3F00
3F00
0000
0000
C0C0
C0C0
C0C0
C0C0
C0C0
E0C0
7FC0
3FC0
ENDCHAR
STARTCHAR Uring
ENCODING 366
SWIDTH 600 0
DWIDTH 12 0
BBX 10 14 2 0
BITMAP
0C00
0C00
0000
0000
C0C0
C0C0
C0C0
C0C0
C0C0
C0C0
C0C0
E1C0
7F80
3F00
ENDCHAR
STARTCHAR uring
ENCODING 367
SWIDTH 600 0
DWIDTH 12 0
BBX 10 14 2 0
BITMAP
0C00
0C00
0000
0000
C0C0
C0C0
C0C0
C0C0
C0C0
C0C0
C0C0
E0C0
7FC0
3FC0
ENDCHAR
STARTCHAR Uogonek
ENCODING 370
SWIDTH 600 0
DWIDTH 12 0
BBX 10 18 2 -4
BITMAP
C0C0
C0C0
C0C0
C0C0
C0C0
C0C0
C0C0
C0C0
C0C0
C0C0
C0C0
E1C0
7F80
3F00
0C00
0E00
0700
0300
ENDCHAR
STARTCHAR uogonek
ENCODING 371
SWIDTH 600 0
DWIDTH 12 0
BBX 10 14 2 -4
BITMAP
C0C0
C0C0
C0C0
C0C0
C0C0
C0C0
C0C0
E0C0
7FC0
3FC0
0300
0380
01C0
00C0
ENDCHAR
STARTCHAR Wcircumflex
ENCODING 372
SWIDTH 600 0
DWIDTH 12 0
BBX 10 14 2 0
BITMAP
0C00
1E00
3F00
3300
0000
0000
C0C0
C0C0
CCC0
CCC0
CCC0
FFC0
7F80
3300
ENDCHAR
STARTCHAR wcircumflex
ENCODING 373
SWIDTH 600 0
DWIDTH 12 0
BBX 10 14 2 0
BITMAP
0C00
1E00
3F00
3300
0000
0000
C0C0
C0C0
C0C0
C0C0
CCC0
FFC0
7F80
3300
ENDCHAR
STARTCHAR Ycircumflex
ENCODING 374
SWIDTH 600 0
DWIDTH 12 0
BBX 10 14 2 0
BITMAP
0C00
1E00
3F00
3300
0000
0000
C0C0
E1C0
7380
3F00
1E00
0C00
0C00
0C00
ENDCHAR
STARTCHAR ycircumflex
ENCODING 375
SWIDTH 600 0
DWIDTH 12 0
BBX 10 18 2 -4
BITMAP
0C00
1E00
3F00
3300
0000
0000
C0C0
C0C0
C0C0
C0C0
C0C0
E0C0
7FC0
3FC0
00C0
01C0
3F80
3F00
ENDCHAR
STARTCHAR Ydieresis
ENCODING 376
SWIDTH 600 0
DWIDTH 12 0
BBX 10 14 2 0
BITMAP
3300
3300
0000
0000
C0C0
E1C0
7380
3F00
1E00
0C00
0C00
0C00
0C00
0C00
ENDCHAR
STARTCHAR Zacute
ENCODING 377
SWIDTH 600 0
DWIDTH 12 0
BBX 10 14 2 0
BITMAP
0300
0700
0E00
0C00
FFC0
FFC0
00C0
01C0
3F80
7F00
E000
C000
FFC0
FFC0
ENDCHAR
STARTCHAR zacute
ENCODING 378
SWIDTH 600 0
DWIDTH 12 0
BBX 10 14 2 0
BITMAP
0300
0700
0E00
0C00
FFC0
FFC0
0300
0700
0E00
1C00
3800
3000
FFC0
FFC0
ENDCHAR
STARTCHAR Zdotaccent
ENCODING 379
SWIDTH 600 0
DWIDTH 12 0
BBX 10 14 2 0
BITMAP
0C00
0C00
0000
0000
FFC0
FFC0
00C0
01C0
3F80
7F00
E000
C000
FFC0
FFC0
ENDCHAR
STARTCHAR zdotaccent
ENCODING 380
SWIDTH 600 0
DWIDTH 12 0
BBX 10 14 2 0
BITMAP
0C00
0C00
0000
0000
FFC0
FFC0
0300
0700
0E00
1C00
3800
3000
FFC0
FFC0
ENDCHAR
STARTCHAR Zcaron
ENCODING 381
SWIDTH 600 0
DWIDTH 12 0
BBX 10 14 2 0
BITMAP
3300
3F00
1E00
0C00
FFC0
FFC0
00C0
01C0
3F80
7F00
E000
C000
FFC0
FFC0
ENDCHAR
STARTCHAR zcaron
ENCODING 382
SWIDTH 600 0
DWIDTH 12 0
BBX 10 14 2 0
BITMAP
3300
3F00
1E00
0C00
FFC0
FFC0
0300
0700
0E00
1C00
3800
3000
FFC0
FFC0
ENDCHAR
STARTCHAR longs
ENCODING 383
SWIDTH 600 0
DWIDTH 12 0
BBX 4 14 6 0
BITMAP
30
70
E0
C0
C0
C0
C0
C0
C0
C0
C0
C0
C0
C0
ENDCHAR
STARTCHAR uni0188
ENCODING 392
SWIDTH 600 0
DWIDTH 12 0
BBX 10 14 2 0
BITMAP
03C0
03C0
0300
0300
3FC0
7FC0
E000
C000
C000
C000
C000
E000
7FC0
3FC0
ENDCHAR
STARTCHAR uni018E
ENCODING 398
SWIDTH 600 0
DWIDTH 12 0
BBX 10 14 2 0
BITMAP
FFC0
FFC0
00C0
00C0
00C0
00C0
3FC0
3FC0
00C0
00C0
00C0
00C0
FFC0
FFC0
ENDCHAR
STARTCHAR uni018F
ENCODING 399
SWIDTH 600 0
DWIDTH 12 0
BBX 10 14 2 0
BITMAP
3F00
7F80
E1C0
C0C0
00C0
00C0
FFC0
FFC0
C0C0
C0C0
C0C0
E1C0
7F80
3F00
ENDCHAR
STARTCHAR florin
ENCODING 402
SWIDTH 600 0
DWIDTH 12 0
BBX 6 18 4 -4
BITMAP
0C
1C
38
30
30
30
FC
FC
30
30
30
30
30
30
30
70
E0
C0
ENDCHAR
STARTCHAR uni0199
ENCODING 409
SWIDTH 600 0
DWIDTH 12 0
BBX 8 14 4 0
BITMAP
3C
7C
E0
C0
C3
C7
CE
DC
F8
F8
DC
CE
C7
C3
ENDCHAR
STARTCHAR uni019B
ENCODING 411
SWIDTH 600 0
DWIDTH 12 0
BBX 10 14 2 0
BITMAP
F000
F800
1C00
0C00
3F00
3F00
0C00
1E00
3F00
3300
3300
7380
E1C0
C0C0
ENDCHAR
STARTCHAR uni019E
ENCODING 414
SWIDTH 600 0
DWIDTH 12 0
BBX 10 14 2 -4
BITMAP
FF00
FF80
C1C0
C0C0
C0C0
C0C0
C0C0
C0C0
C0C0
C0C0
00C0
00C0
00C0
00C0
ENDCHAR
STARTCHAR uni01A5
ENCODING 421
SWIDTH 600 0
DWIDTH 12 0
BBX 10 18 2 -4
BITMAP
3C00
7C00
E000
C000
FF00
FF80
C1C0
C0C0
C0C0
C0C0
C0C0
C1C0
FF80
FF00
C000
C000
C000
C000
ENDCHAR
STARTCHAR uni01A7
ENCODING 423
SWIDTH 600 0
DWIDTH 12 0
BBX 10 14 2 0
BITMAP
3F00
7F80
E1C0
C0C0
00C0
01C0
3F80
7F00
E000
C000
C0C0
E1C0
7F80
3F00
ENDCHAR
STARTCHAR uni01A8
ENCODING 424
SWIDTH 600 0
DWIDTH 12 0
BBX 10 10 2 0
BITMAP
3F00
3F80
01C0
01C0
3F80
7F00
E000
E000
7F00
3F00
ENDCHAR
STARTCHAR uni01AB
ENCODING 427
SWIDTH 600 0
DWIDTH 12 0
BBX 6 16 4 -2
BITMAP
30
30
30
30
FC
FC
30
30
30
30
30
38
1C
1C
F8
F0
ENDCHAR
STARTCHAR uni01AD
ENCODING 429
SWIDTH 600 0
DWIDTH 12 0
BBX 6 14 4 0
BITMAP
0C
1C
38
30
FC
FC
30
30
30
30
30
38
1C
0C
ENDCHAR
STARTCHAR uni01BB
ENCODING 443
SWIDTH 600 0
DWIDTH 12 0
BBX 10 14 2 0
BITMAP
3F00
7F80
E1C0
C0C0
0CC0
0FC0
0780
0780
3FC0
7CC0
E000
C000
FFC0
FFC0
ENDCHAR
STARTCHAR uni01C0
ENCODING 448
SWIDTH 600 0
DWIDTH 12 0
BBX 2 18 6 -4
BITMAP
C0
C0
C0
C0
C0
C0
C0
C0
C0
C0
C0
C0
C0
C0
C0
C0
C0
C0
ENDCHAR
STARTCHAR uni01C1
ENCODING 449
SWIDTH 600 0
DWIDTH 12 0
BBX 6 18 4 -4
BITMAP
CC
CC
CC
CC
CC
CC
CC
CC
CC
CC
CC
CC
CC
CC
CC
CC
CC
CC
ENDCHAR
STARTCHAR uni01C2
ENCODING 450
SWIDTH 600 0
DWIDTH 12 0
BBX 10 18 2 -4
BITMAP
0C00
0C00
0C00
0C00
0C00
0C00
FFC0
FFC0
0C00
0C00
FFC0
FFC0
0C00
0C00
0C00
0C00
0C00
0C00
ENDCHAR
STARTCHAR uni01C3
ENCODING 451
SWIDTH 600 0
DWIDTH 12 0
BBX 2 14 6 0
BITMAP
C0
C0
C0
C0
C0
C0
C0
C0
C0
C0
00
00
C0
C0
ENDCHAR
STARTCHAR uni01DD
ENCODING 477
SWIDTH 600 0
DWIDTH 12 0
BBX 10 10 2 0
BITMAP
3F00
3F80
01C0
00C0
FFC0
FFC0
C0C0
E1C0
7F80
3F00
ENDCHAR
STARTCHAR uni01E2
ENCODING 482
SWIDTH 600 0
DWIDTH 12 0
BBX 10 14 2 0
BITMAP
3F00
3F00
0000
0000
3FC0
7FC0
EC00
CC00
CF00
CF00
FC00
FC00
CFC0
CFC0
ENDCHAR
STARTCHAR uni01E3
ENCODING 483
SWIDTH 600 0
DWIDTH 12 0
BBX 10 14 2 0
BITMAP
3F00
3F00
0000
0000
3300
3F80
1FC0
0CC0
3FC0
7FC0
EC00
EC00
7F00
3F00
ENDCHAR
STARTCHAR uni01F0
ENCODING 496
SWIDTH 600 0
DWIDTH 12 0
BBX 6 18 4 -4
BITMAP
CC
FC
78
30
00
00
30
30
30
30
30
30
30
30
30
70
E0
C0
ENDCHAR
STARTCHAR uni0232
ENCODING 562
SWIDTH 600 0
DWIDTH 12 0
BBX 10 14 2 0
BITMAP
3F00
3F00
0000
0000
C0C0
E1C0
7380
3F00
1E00
0C00
0C00
0C00
0C00
0C00
ENDCHAR
STARTCHAR uni0233
ENCODING 563
SWIDTH 600 0
DWIDTH 12 0
BBX 10 18 2 -4
BITMAP
3F00
3F00
0000
0000
C0C0
C0C0
C0C0
C0C0
C0C0
C0C0
C0C0
E0C0
7FC0
3FC0
00C0
01C0
3F80
3F00
ENDCHAR
STARTCHAR uni0237
ENCODING 567
SWIDTH 600 0
DWIDTH 12 0
BBX 4 14 4 -4
BITMAP
30
30
30
30
30
30
30
30
30
30
30
70
E0
C0
ENDCHAR
STARTCHAR uni023F
ENCODING 575
SWIDTH 600 0
DWIDTH 12 0
BBX 10 14 2 -4
BITMAP
3FC0
7FC0
E000
E000
7F00
3F80
01C0
01C0
FF80
FF00
0C00
0E00
07C0
03C0
ENDCHAR
STARTCHAR uni0240
ENCODING 576
SWIDTH 600 0
DWIDTH 12 0
BBX 10 14 2 -4
BITMAP
FFC0
FFC0
0300
0700
0E00
1C00
3800
3000
F000
F800
1C00
0E00
07C0
03C0
ENDCHAR
STARTCHAR uni0245
ENCODING 581
SWIDTH 600 0
DWIDTH 12 0
BBX 10 14 2 0
BITMAP
0C00
0C00
0C00
1E00
3F00
3300
3300
7380
E1C0
C0C0
C0C0
C0C0
C0C0
C0C0
ENDCHAR
STARTCHAR uni0250
ENCODING 592
SWIDTH 600 0
DWIDTH 12 0
BBX 10 10 2 0
BITMAP
FF00
FF80
C1C0
C1C0
FF80
FF00
C000
E000
7F00
3F00
ENDCHAR
STARTCHAR uni0251
ENCODING 593
SWIDTH 600 0
DWIDTH 12 0
BBX 10 10 2 0
BITMAP
3FC0
7FC0
E0C0
C0C0
C0C0
C0C0
C3C0
E7C0
7EC0
3CC0
ENDCHAR
STARTCHAR uni0252
ENCODING 594
SWIDTH 600 0
DWIDTH 12 0
BBX 10 10 2 0
BITMAP
CF00
DF80
F9C0
F0C0
C0C0
C0C0
C0C0
C1C0
FF80
FF00
ENDCHAR
STARTCHAR uni0253
ENCODING 595
SWIDTH 600 0
DWIDTH 12 0
BBX 10 14 2 0
BITMAP
3C00
7C00
E000
C000
FF00
FF80
C1C0
C0C0
C0C0
C0C0
C0C0
C1C0
FF80
FF00
ENDCHAR
STARTCHAR uni0254
ENCODING 596
SWIDTH 600 0
DWIDTH 12 0
BBX 10 10 2 0
BITMAP
FF00
FF80
01C0
00C0
00C0
00C0
00C0
01C0
FF80
FF00
ENDCHAR
STARTCHAR uni0255
ENCODING 597
SWIDTH 600 0
DWIDTH 12 0
BBX 10 12 2 -2
BITMAP
3FC0
7FC0
E000
C000
C300
C780
CFC0
EDC0
7F80
3F00
0C00
0C00
ENDCHAR
STARTCHAR uni0256
ENCODING 598
SWIDTH 600 0
DWIDTH 12 0
BBX 10 18 2 -4
BITMAP
0300
0300
0300
0300
3F00
7F00
E300
C300
C300
C300
C300
E300
7F00
3F00
0300
0380
01C0
00C0
ENDCHAR
STARTCHAR uni0257
ENCODING 599
SWIDTH 600 0
DWIDTH 12 0
BBX 10 14 2 0
BITMAP
00C0
01C0
0380
0300
3F00
7F00
E300
C300
C300
C300
C300
E300
7F00
3F00
ENDCHAR
STARTCHAR uni0258
ENCODING 600
SWIDTH 600 0
DWIDTH 12 0
BBX 10 10 2 0
BITMAP
3F00
7F80
E1C0
C0C0
FFC0
FFC0
00C0
01C0
3F80
3F00
ENDCHAR
STARTCHAR uni0259
ENCODING 601
SWIDTH 600 0
DWIDTH 12 0
BBX 10 10 2 0
BITMAP
3F00
3F80
01C0
00C0
FFC0
FFC0
C0C0
E1C0
7F80
3F00
ENDCHAR
STARTCHAR uni025A
ENCODING 602
SWIDTH 600 0
DWIDTH 12 0
BBX 10 10 2 0
BITMAP
F000
F800
1C00
0C00
FCC0
FDC0
CF80
FF00
7800
3000
ENDCHAR
STARTCHAR uni025B
ENCODING 603
SWIDTH 600 0
DWIDTH 12 0
BBX 10 10 2 0
BITMAP
3FC0
7FC0
E000
E000
7F00
7F00
E000
E000
7FC0
3FC0
ENDCHAR
STARTCHAR uni025C
ENCODING 604
SWIDTH 600 0
DWIDTH 12 0
BBX 10 10 2 0
BITMAP
FF00
FF80
01C0
01C0
3F80
3F80
01C0
01C0
FF80
FF00
ENDCHAR
STARTCHAR uni025D
ENCODING 605
SWIDTH 600 0
DWIDTH 12 0
BBX 10 10 2 0
BITMAP
F000
F800
1C00
1C00
F8C0
F9C0
1F80
1F00
F800
F000
ENDCHAR
STARTCHAR uni025E
ENCODING 606
SWIDTH 600 0
DWIDTH 12 0
BBX 10 10 2 0
BITMAP
3F00
7F80
E1C0
C1C0
CF80
CF80
C1C0
E1C0
7F80
3F00
ENDCHAR
STARTCHAR uni025F
ENCODING 607
SWIDTH 600 0
DWIDTH 12 0
BBX 6 14 4 -4
BITMAP
30
30
30
30
30
30
FC
FC
30
30
30
70
E0
C0
ENDCHAR
STARTCHAR uni0260
ENCODING 608
SWIDTH 600 0
DWIDTH 12 0
BBX 10 18 2 -4
BITMAP
00C0
01C0
0380
0300
3F00
7F00
E300
C300
C300
C300
C300
E300
7F00
3F00
0300
0700
3E00
3C00
ENDCHAR
STARTCHAR uni0261
ENCODING 609
SWIDTH 600 0
DWIDTH 12 0
BBX 10 14 2 -4
BITMAP
3FC0
7FC0
E0C0
C0C0
C0C0
C0C0
C0C0
E0C0
7FC0
3FC0
00C0
01C0
3F80
3F00
ENDCHAR
STARTCHAR uni0262
ENCODING 610
SWIDTH 600 0
DWIDTH 12 0
BBX 10 10 2 0
BITMAP
3FC0
7FC0
E000
C000
C3C0
C3C0
C0C0
E0C0
7FC0
3FC0
ENDCHAR
STARTCHAR uni0263
ENCODING 611
SWIDTH 600 0
DWIDTH 12 0
BBX 10 14 2 -4
BITMAP
C0C0
E1C0
7380
3300
3300
3F00
1E00
1E00
3F00
3300
3300
3F00
1E00
0C00
ENDCHAR
STARTCHAR uni0264
ENCODING 612
SWIDTH 600 0
DWIDTH 12 0
BBX 10 10 2 0
BITMAP
F3C0
FFC0
1E00
1E00
3F00
3300
3300
3F00
1E00
0C00
ENDCHAR
STARTCHAR uni0265
ENCODING 613
SWIDTH 600 0
DWIDTH 12 0
BBX 10 14 2 -4
BITMAP
C0C0
C0C0
C0C0
C0C0
C0C0
C0C0
C0C0
E0C0
7FC0
3FC0
00C0
00C0
00C0
00C0
ENDCHAR
STARTCHAR uni0266
ENCODING 614
SWIDTH 600 0
DWIDTH 12 0
BBX 10 14 2 0
BITMAP
3C00
7C00
E000
C000
FF00
FF80
C1C0
C0C0
C0C0
C0C0
C0C0
C0C0
C0C0
C0C0
ENDCHAR
STARTCHAR uni0267
ENCODING 615
SWIDTH 600 0
DWIDTH 12 0
BBX 10 18 2 -4
BITMAP
3C00
7C00
E000
C000
FF00
FF80
C1C0
C0C0
C0C0
C0C0
C0C0
C0C0
C0C0
C0C0
00C0
01C0
0F80
0F00
ENDCHAR
STARTCHAR uni0268
ENCODING 616
SWIDTH 600 0
DWIDTH 12 0
BBX 6 14 4 0
BITMAP
30
30
00
00
F0
F0
30
30
FC
FC
30
30
FC
FC
ENDCHAR
STARTCHAR uni0269
ENCODING 617
SWIDTH 600 0
DWIDTH 12 0
BBX 6 10 4 0
BITMAP
F0
F0
30
30
30
30
30
38
1C
0C
ENDCHAR
STARTCHAR uni026A
ENCODING 618
SWIDTH 600 0
DWIDTH 12 0
BBX 6 10 4 0
BITMAP
FC
FC
30
30
30
30
30
30
FC
FC
ENDCHAR
STARTCHAR uni026B
ENCODING 619
SWIDTH 600 0
DWIDTH 12 0
BBX 10 14 2 0
BITMAP
3C00
3C00
0C00
0C00
3CC0
7DC0
EF80
CF00
0C00
0C00
0C00
0C00
3F00
3F00
ENDCHAR
STARTCHAR uni026C
ENCODING 620
SWIDTH 600 0
DWIDTH 12 0
BBX 10 14 2 0
BITMAP
3C00
3C00
0C00
0C00
3C00
7C00
ECC0
EDC0
7F80
3F00
0C00
0C00
3F00
3F00
ENDCHAR
STARTCHAR uni026D
ENCODING 621
SWIDTH 600 0
DWIDTH 12 0
BBX 6 18 4 -4
BITMAP
F0
F0
30
30
30
30
30
30
30
30
30
30
30
30
30
38
1C
0C
ENDCHAR
STARTCHAR uni026E
ENCODING 622
SWIDTH 600 0
DWIDTH 12 0
BBX 10 18 2 -4
BITMAP
F000
F000
3000
3000
3FC0
3FC0
30C0
31C0
3380
3380
31C0
30C0
FCC0
FCC0
00C0
01C0
0F80
0F00
ENDCHAR
STARTCHAR uni026F
ENCODING 623
SWIDTH 600 0
DWIDTH 12 0
BBX 10 10 2 0
BITMAP
CCC0
CCC0
CCC0
CCC0
CCC0
CCC0
CCC0
FEC0
7FC0
33C0
ENDCHAR
STARTCHAR uni0270
ENCODING 624
SWIDTH 600 0
DWIDTH 12 0
BBX 10 14 2 -4
BITMAP
CCC0
CCC0
CCC0
CCC0
CCC0
CCC0
CCC0
FEC0
7FC0
33C0
00C0
00C0
00C0
00C0
ENDCHAR
STARTCHAR uni0271
ENCODING 625
SWIDTH 600 0
DWIDTH 12 0
BBX 10 14 2 -4
BITMAP
F300
FF80
DFC0
CCC0
CCC0
CCC0
CCC0
CCC0
CCC0
CCC0
00C0
01C0
0380
0300
ENDCHAR
STARTCHAR uni0272
ENCODING 626
SWIDTH 600 0
DWIDTH 12 0
BBX 10 14 2 -4
BITMAP
3F00
3F80
31C0
30C0
30C0
30C0
30C0
30C0
30C0
30C0
3000
7000
E000
C000
ENDCHAR
STARTCHAR uni0273
ENCODING 627
SWIDTH 600 0
DWIDTH 12 0
BBX 10 14 2 -4
BITMAP
FC00
FE00
C700
C300
C300
C300
C300
C300
C300
C300
0300
0380
01C0
00C0
ENDCHAR
STARTCHAR uni0274
ENCODING 628
SWIDTH 600 0
DWIDTH 12 0
BBX 10 10 2 0
BITMAP
C0C0
C0C0
F0C0
F8C0
DCC0
CEC0
C7C0
C3C0
C0C0
C0C0
ENDCHAR
STARTCHAR uni0275
ENCODING 629
SWIDTH 600 0
DWIDTH 12 0
BBX 10 10 2 0
BITMAP
3F00
7F80
E1C0
C0C0
FFC0
FFC0
C0C0
E1C0
7F80
3F00
ENDCHAR
STARTCHAR uni0276
ENCODING 630
SWIDTH 600 0
DWIDTH 12 0
BBX 10 10 2 0
BITMAP
3FC0
7FC0
EC00
CC00
CFC0
CFC0
CC00
EC00
7FC0
3FC0
ENDCHAR
STARTCHAR uni0277
ENCODING 631
SWIDTH 600 0
DWIDTH 12 0
BBX 10 10 2 0
BITMAP
3F00
7F80
E1C0
C0C0
CCC0
CCC0
CCC0
FFC0
7F80
3300
ENDCHAR
STARTCHAR uni0278
ENCODING 632
SWIDTH 600 0
DWIDTH 12 0
BBX 10 18 2 -4
BITMAP
0C00
0C00
0C00
0C00
3F00
7F80
EDC0
CCC0
CCC0
CCC0
CCC0
EDC0
7F80
3F00
0C00
0C00
0C00
0C00
ENDCHAR
STARTCHAR uni0279
ENCODING 633
SWIDTH 600 0
DWIDTH 12 0
BBX 8 10 2 0
BITMAP
03
03
03
03
03
03
0F
1F
FB
F3
ENDCHAR
STARTCHAR uni027A
ENCODING 634
SWIDTH 600 0
DWIDTH 12 0
BBX 8 14 2 0
BITMAP
03
03
03
03
03
03
03
03
03
03
0F
1F
FB
F3
ENDCHAR
STARTCHAR uni027B
ENCODING 635
SWIDTH 600 0
DWIDTH 12 0
BBX 10 14 2 -4
BITMAP
0300
0300
0300
0300
0300
0300
0F00
1F00
FB00
F300
0300
0380
01C0
00C0
ENDCHAR
STARTCHAR uni027C
ENCODING 636
SWIDTH 600 0
DWIDTH 12 0
BBX 8 14 4 -4
BITMAP
CF
DF
F8
F0
C0
C0
C0
C0
C0
C0
C0
C0
C0
C0
ENDCHAR
STARTCHAR uni027D
ENCODING 637
SWIDTH 600 0
DWIDTH 12 0
BBX 8 14 4 -4
BITMAP
CF
DF
F8
F0
C0
C0
C0
C0
C0
C0
C0
E0
70
30
ENDCHAR
STARTCHAR uni027E
ENCODING 638
SWIDTH 600 0
DWIDTH 12 0
BBX 8 10 4 0
BITMAP
3C
7E
E7
C3
C0
C0
C0
C0
C0
C0
ENDCHAR
STARTCHAR uni0280
ENCODING 640
SWIDTH 600 0
DWIDTH 12 0
BBX 10 10 2 0
BITMAP
FF00
FF80
C1C0
C1C0
FF80
FF00
C300
C380
C1C0
C0C0
ENDCHAR
STARTCHAR uni0281
ENCODING 641
SWIDTH 600 0
DWIDTH 12 0
BBX 10 10 2 0
BITMAP
C0C0
C1C0
C380
C300
FF00
FF80
C1C0
C1C0
FF80
FF00
ENDCHAR
STARTCHAR uni0282
ENCODING 642
SWIDTH 600 0
DWIDTH 12 0
BBX 10 14 2 -4
BITMAP
3FC0
7FC0
E000
E000
7F00
3F80
01C0
01C0
FF80
FF00
C000
E000
7000
3000
ENDCHAR
STARTCHAR uni0283
ENCODING 643
SWIDTH 600 0
DWIDTH 12 0
BBX 6 18 4 -4
BITMAP
0C
1C
38
30
30
30
30
30
30
30
30
30
30
30
30
70
E0
C0
ENDCHAR
STARTCHAR uni0284
ENCODING 644
SWIDTH 600 0
DWIDTH 12 0
BBX 6 18 4 -4
BITMAP
0C
1C
38
30
30
30
30
30
30
30
FC
FC
30
30
30
70
E0
C0
ENDCHAR
STARTCHAR uni0286
ENCODING 646
SWIDTH 600 0
DWIDTH 12 0
BBX 8 18 2 -4
BITMAP
03
07
0E
0C
0C
0C
0C
0C
0C
0C
3F
7F
EC
CC
CC
FC
78
30
ENDCHAR
STARTCHAR uni0287
ENCODING 647
SWIDTH 600 0
DWIDTH 12 0
BBX 6 14 4 -4
BITMAP
C0
E0
70
30
30
30
30
30
FC
FC
30
30
30
30
ENDCHAR
STARTCHAR uni0288
ENCODING 648
SWIDTH 600 0
DWIDTH 12 0
BBX 6 18 4 -4
BITMAP
30
30
30
30
FC
FC
30
30
30
30
30
30
30
30
30
38
1C
0C
ENDCHAR
STARTCHAR uni0289
ENCODING 649
SWIDTH 600 0
DWIDTH 12 0
BBX 10 10 2 0
BITMAP
3300
3300
FFC0
FFC0
3300
3300
3300
3B00
1F00
0F00
ENDCHAR
STARTCHAR uni028A
ENCODING 650
SWIDTH 600 0
DWIDTH 12 0
BBX 10 10 2 0
BITMAP
F3C0
F3C0
3300
7380
E1C0
C0C0
C0C0
E1C0
7F80
3F00
ENDCHAR
STARTCHAR uni028B
ENCODING 651
SWIDTH 600 0
DWIDTH 12 0
BBX 10 10 2 0
BITMAP
F300
F380
31C0
30C0
30C0
31C0
3380
3700
3E00
3C00
ENDCHAR
STARTCHAR uni028C
ENCODING 652
SWIDTH 600 0
DWIDTH 12 0
BBX 10 10 2 0
BITMAP
0C00
1E00
3F00
3300
3300
7380
E1C0
C0C0
C0C0
C0C0
ENDCHAR
STARTCHAR uni028D
ENCODING 653
SWIDTH 600 0
DWIDTH 12 0
BBX 10 10 2 0
BITMAP
3300
7F80
FFC0
CCC0
CCC0
CCC0
C0C0
C0C0
C0C0
C0C0
ENDCHAR
STARTCHAR uni028E
ENCODING 654
SWIDTH 600 0
DWIDTH 12 0
BBX 10 14 2 0
BITMAP
3F00
7F00
E000
C000
FC00
FE00
C700
C380
C1C0
C0C0
C0C0
C0C0
C0C0
C0C0
ENDCHAR
STARTCHAR uni028F
ENCODING 655
SWIDTH 600 0
DWIDTH 12 0
BBX 10 10 2 0
BITMAP
C0C0
E1C0
7380
3F00
1E00
0C00
0C00
0C00
0C00
0C00
ENDCHAR
STARTCHAR uni0290
ENCODING 656
SWIDTH 600 0
DWIDTH 12 0
BBX 10 14 2 -4
BITMAP
FF00
FF00
0C00
1C00
3800
7000
E000
C000
FF00
FF00
0300
0380
01C0
00C0
ENDCHAR
STARTCHAR uni0291
ENCODING 657
SWIDTH 600 0
DWIDTH 12 0
BBX 10 14 2 -4
BITMAP
FFC0
FFC0
0300
0700
0E00
1C00
3800
3000
FF00
FF80
0DC0
0FC0
0780
0300
ENDCHAR
STARTCHAR uni0292
ENCODING 658
SWIDTH 600 0
DWIDTH 12 0
BBX 10 14 2 -4
BITMAP
FFC0
FFC0
0300
0700
0E00
0C00
3F00
3F80
01C0
00C0
C0C0
E1C0
7F80
3F00
ENDCHAR
STARTCHAR uni0293
ENCODING 659
SWIDTH 600 0
DWIDTH 12 0
BBX 10 14 2 -4
BITMAP
FFC0
FFC0
0300
0700
0E00
0E00
0700
0380
31C0
78C0
FCC0
EDC0
7F80
3F00
ENDCHAR
STARTCHAR uni0294
ENCODING 660
SWIDTH 600 0
DWIDTH 12 0
BBX 10 14 2 0
BITMAP
3F00
7F80
E1C0
C1C0
0380
0700
0E00
0C00
0C00
0C00
0C00
0C00
0C00
0C00
ENDCHAR
STARTCHAR uni0295
ENCODING 661
SWIDTH 600 0
DWIDTH 12 0
BBX 10 14 2 0
BITMAP
3F00
7F80
E1C0
E0C0
7000
3800
1C00
0C00
0C00
0C00
0C00
0C00
0C00
0C00
ENDCHAR
STARTCHAR uni0296
ENCODING 662
SWIDTH 600 0
DWIDTH 12 0
BBX 10 14 2 0
BITMAP
0C00
0C00
0C00
0C00
0C00
0C00
0C00
0E00
0700
0380
C1C0
E1C0
7F80
3F00
ENDCHAR
STARTCHAR uni0297
ENCODING 663
SWIDTH 600 0
DWIDTH 12 0
BBX 10 18 2 -4
BITMAP
3F00
7F80
E1C0
C0C0
C000
C000
C000
C000
C000
C000
C000
C000
C000
C000
C0C0
E1C0
7F80
3F00
ENDCHAR
STARTCHAR uni0298
ENCODING 664
SWIDTH 600 0
DWIDTH 12 0
BBX 10 14 2 0
BITMAP
3F00
7F80
E1C0
C0C0
C0C0
C0C0
CCC0
CCC0
C0C0
C0C0
C0C0
E1C0
7F80
3F00
ENDCHAR
STARTCHAR uni0299
ENCODING 665
SWIDTH 600 0
DWIDTH 12 0
BBX 10 10 2 0
BITMAP
FF00
FF80
C1C0
C1C0
FF80
FF80
C1C0
C1C0
FF80
FF00
ENDCHAR
STARTCHAR uni029A
ENCODING 666
SWIDTH 600 0
DWIDTH 12 0
BBX 10 10 2 0
BITMAP
3F00
7F80
E1C0
E0C0
7CC0
7CC0
E0C0
E1C0
7F80
3F00
ENDCHAR
STARTCHAR uni029B
ENCODING 667
SWIDTH 600 0
DWIDTH 12 0
BBX 10 14 2 0
BITMAP
00C0
01C0
0380
0300
3F00
7F00
E000
C000
CF00
CF00
C300
E300
7F00
3F00
ENDCHAR
STARTCHAR uni029C
ENCODING 668
SWIDTH 600 0
DWIDTH 12 0
BBX 10 10 2 0
BITMAP
C0C0
C0C0
C0C0
C0C0
FFC0
FFC0
C0C0
C0C0
C0C0
C0C0
ENDCHAR
STARTCHAR uni029D
ENCODING 669
SWIDTH 600 0
DWIDTH 12 0
BBX 8 18 2 -4
BITMAP
0C
0C
00
00
0C
0C
0C
0C
0C
0C
3F
7F
EC
CC
CC
FC
78
30
ENDCHAR
STARTCHAR uni029E
ENCODING 670
SWIDTH 600 0
DWIDTH 12 0
BBX 8 14 2 -4
BITMAP
C3
E3
73
3B
1F
1F
3B
73
E3
C3
03
03
03
03
ENDCHAR
STARTCHAR uni029F
ENCODING 671
SWIDTH 600 0
DWIDTH 12 0
BBX 10 10 2 0
BITMAP
C000
C000
C000
C000
C000
C000
C000
C000
FFC0
FFC0
ENDCHAR
STARTCHAR uni02A0
ENCODING 672
SWIDTH 600 0
DWIDTH 12 0
BBX 10 18 2 -4
BITMAP
0F00
0F80
01C0
00C0
3FC0
7FC0
E0C0
C0C0
C0C0
C0C0
C0C0
E0C0
7FC0
3FC0
00C0
00C0
00C0
00C0
ENDCHAR
STARTCHAR uni02A1
ENCODING 673
SWIDTH 600 0
DWIDTH 12 0
BBX 10 14 2 0
BITMAP
3F00
7F80
E1C0
C1C0
0380
0700
0E00
0C00
FFC0
FFC0
0C00
0C00
0C00
0C00
ENDCHAR
STARTCHAR uni02A2
ENCODING 674
SWIDTH 600 0
DWIDTH 12 0
BBX 10 14 2 0
BITMAP
3F00
7F80
E1C0
E0C0
7000
3800
1C00
0C00
FFC0
FFC0
0C00
0C00
0C00
0C00
ENDCHAR
STARTCHAR uni02A3
ENCODING 675
SWIDTH 600 0
DWIDTH 12 0
BBX 10 14 2 0
BITMAP
0C00
0C00
0C00
0C00
3FC0
7FC0
ECC0
CDC0
CF80
CF00
CF00
EF00
7FC0
3FC0
ENDCHAR
STARTCHAR uni02A4
ENCODING 676
SWIDTH 600 0
DWIDTH 12 0
BBX 10 18 2 -4
BITMAP
0C00
0C00
0C00
0C00
3FC0
7FC0
ECC0
CDC0
CF80
CF80
CDC0
ECC0
7CC0
3CC0
00C0
01C0
0F80
0F00
ENDCHAR
STARTCHAR uni02A5
ENCODING 677
SWIDTH 600 0
DWIDTH 12 0
BBX 10 18 2 -4
BITMAP
0C00
0C00
0C00
0C00
3FC0
7FC0
ECC0
CDC0
CF80
CF00
CF00
EF00
7FC0
3FC0
0CC0
0FC0
0780
0300
ENDCHAR
STARTCHAR uni02A6
ENCODING 678
SWIDTH 600 0
DWIDTH 12 0
BBX 10 14 2 0
BITMAP
C000
C000
C000
C000
FFC0
FFC0
CC00
CE00
C700
C380
C1C0
E1C0
7F80
3F00
ENDCHAR
STARTCHAR uni02A7
ENCODING 679
SWIDTH 600 0
DWIDTH 12 0
BBX 10 18 2 -4
BITMAP
30C0
31C0
3380
3300
FF00
FF00
3300
3300
3300
3300
3300
3B00
1F00
0F00
0300
0700
0E00
0C00
ENDCHAR
STARTCHAR uni02A8
ENCODING 680
SWIDTH 600 0
DWIDTH 12 0
BBX 10 18 2 -4
BITMAP
C000
C000
F000
F000
C3C0
C7C0
CE00
CC00
CC00
CC00
CC00
EC00
7F00
3F80
0DC0
0FC0
0780
0300
ENDCHAR
STARTCHAR uni02A9
ENCODING 681
SWIDTH 600 0
DWIDTH 12 0
BBX 10 18 2 -4
BITMAP
3000
7000
E000
C000
C000
C000
FF00
FF80
CDC0
CCC0
CCC0
CCC0
CCC0
CCC0
00C0
01C0
0F80
0F00
ENDCHAR
STARTCHAR uni02AA
ENCODING 682
SWIDTH 600 0
DWIDTH 12 0
BBX 10 14 2 0
BITMAP
F000
F000
3000
3000
33C0
37C0
3E00
3E00
3700
3380
31C0
31C0
FF80
FF00
ENDCHAR
STARTCHAR uni02AB
ENCODING 683
SWIDTH 600 0
DWIDTH 12 0
BBX 10 14 2 0
BITMAP
F000
F000
3000
3000
3FC0
3FC0
30C0
31C0
3380
3700
3E00
3C00
FFC0
FFC0
ENDCHAR
STARTCHAR uni02AC
ENCODING 684
SWIDTH 600 0
DWIDTH 12 0
BBX 10 10 2 0
BITMAP
CCC0
FFC0
7F80
3300
0000
0000
CCC0
FFC0
7F80
3300
ENDCHAR
STARTCHAR uni02AD
ENCODING 685
SWIDTH 600 0
DWIDTH 12 0
BBX 6 10 4 0
BITMAP
FC
FC
CC
CC
00
00
FC
FC
CC
CC
ENDCHAR
STARTCHAR uni02B0
ENCODING 688
SWIDTH 600 0
DWIDTH 12 0
BBX 6 10 2 4
BITMAP
C0
C0
C0
C0
F0
F8
DC
CC
CC
CC
ENDCHAR
STARTCHAR uni02B2
ENCODING 690
SWIDTH 600 0
DWIDTH 12 0
BBX 4 12 2 2
BITMAP
30
30
00
00
30
30
30
30
30
70
E0
C0
ENDCHAR
STARTCHAR uni02B9
ENCODING 697
SWIDTH 600 0
DWIDTH 12 0
BBX 4 8 2 6
BITMAP
30
30
30
70
E0
C0
C0
C0
ENDCHAR
STARTCHAR uni02BA
ENCODING 698
SWIDTH 600 0
DWIDTH 12 0
BBX 10 8 2 6
BITMAP
30C0
30C0
30C0
71C0
E380
C300
C300
C300
ENDCHAR
STARTCHAR uni02BC
ENCODING 700
SWIDTH 600 0
DWIDTH 12 0
BBX 4 6 4 8
BITMAP
30
30
30
70
E0
C0
ENDCHAR
STARTCHAR circumflex
ENCODING 710
SWIDTH 600 0
DWIDTH 12 0
BBX 6 4 4 10
BITMAP
30
78
FC
CC
ENDCHAR
STARTCHAR caron
ENCODING 711
SWIDTH 600 0
DWIDTH 12 0
BBX 6 4 4 10
BITMAP
CC
FC
78
30
ENDCHAR
STARTCHAR uni02C8
ENCODING 712
SWIDTH 600 0
DWIDTH 12 0
BBX 2 6 6 8
BITMAP
C0
C0
C0
C0
C0
C0
ENDCHAR
STARTCHAR uni02CC
ENCODING 716
SWIDTH 600 0
DWIDTH 12 0
BBX 2 6 6 -4
BITMAP
C0
C0
C0
C0
C0
C0
ENDCHAR
STARTCHAR uni02D0
ENCODING 720
SWIDTH 600 0
DWIDTH 12 0
BBX 6 10 4 0
BITMAP
CC
FC
78
30
00
00
30
78
FC
CC
ENDCHAR
STARTCHAR uni02D1
ENCODING 721
SWIDTH 600 0
DWIDTH 12 0
BBX 6 4 4 6
BITMAP
CC
FC
78
30
ENDCHAR
STARTCHAR breve
ENCODING 728
SWIDTH 600 0
DWIDTH 12 0
BBX 10 4 2 10
BITMAP
C0C0
E1C0
7F80
3F00
ENDCHAR
STARTCHAR dotaccent
ENCODING 729
SWIDTH 600 0
DWIDTH 12 0
BBX 2 2 6 12
BITMAP
C0
C0
ENDCHAR
STARTCHAR ring
ENCODING 730
SWIDTH 600 0
DWIDTH 12 0
BBX 6 6 4 8
BITMAP
30
78
FC
FC
78
30
ENDCHAR
STARTCHAR ogonek
ENCODING 731
SWIDTH 600 0
DWIDTH 12 0
BBX 4 6 4 -4
BITMAP
30
70
E0
E0
70
30
ENDCHAR
STARTCHAR tilde
ENCODING 732
SWIDTH 600 0
DWIDTH 12 0
BBX 8 4 4 10
BITMAP
33
7F
FE
CC
ENDCHAR
STARTCHAR hungarumlaut
ENCODING 733
SWIDTH 600 0
DWIDTH 12 0
BBX 10 4 2 10
BITMAP
30C0
71C0
E380
C300
ENDCHAR
STARTCHAR uni02E0
ENCODING 736
SWIDTH 600 0
DWIDTH 12 0
BBX 6 10 2 4
BITMAP
CC
FC
78
78
FC
CC
CC
FC
78
30
ENDCHAR
STARTCHAR uni02E1
ENCODING 737
SWIDTH 600 0
DWIDTH 12 0
BBX 6 10 2 4
BITMAP
F0
F0
30
30
30
30
30
30
FC
FC
ENDCHAR
STARTCHAR uni02E2
ENCODING 738
SWIDTH 600 0
DWIDTH 12 0
BBX 6 6 2 4
BITMAP
3C
3C
30
30
F0
F0
ENDCHAR
STARTCHAR uni02E3
ENCODING 739
SWIDTH 600 0
DWIDTH 12 0
BBX 6 6 2 4
BITMAP
CC
FC
78
78
FC
CC
ENDCHAR
STARTCHAR uni02E4
ENCODING 740
SWIDTH 600 0
DWIDTH 12 0
BBX 6 10 2 4
BITMAP
30
78
FC
CC
C0
E0
70
30
30
30
ENDCHAR
STARTCHAR uni02E5
ENCODING 741
SWIDTH 600 0
DWIDTH 12 0
BBX 10 14 2 0
BITMAP
FFC0
FFC0
00C0
00C0
00C0
00C0
00C0
00C0
00C0
00C0
00C0
00C0
00C0
00C0
ENDCHAR
STARTCHAR uni02E6
ENCODING 742
SWIDTH 600 0
DWIDTH 12 0
BBX 10 14 2 0
BITMAP
00C0
00C0
FFC0
FFC0
00C0
00C0
00C0
00C0
00C0
00C0
00C0
00C0
00C0
00C0
ENDCHAR
STARTCHAR uni02E7
ENCODING 743
SWIDTH 600 0
DWIDTH 12 0
BBX 10 14 2 0
BITMAP
00C0
00C0
00C0
00C0
00C0
00C0
FFC0
FFC0
00C0
00C0
00C0
00C0
00C0
00C0
ENDCHAR
STARTCHAR uni02E8
ENCODING 744
SWIDTH 600 0
DWIDTH 12 0
BBX 10 14 2 0
BITMAP
00C0
00C0
00C0
00C0
00C0
00C0
00C0
00C0
00C0
00C0
FFC0
FFC0
00C0
00C0
ENDCHAR
STARTCHAR uni02E9
ENCODING 745
SWIDTH 600 0
DWIDTH 12 0
BBX 10 14 2 0
BITMAP
00C0
00C0
00C0
00C0
00C0
00C0
00C0
00C0
00C0
00C0
00C0
00C0
FFC0
FFC0
ENDCHAR
STARTCHAR uni037F
ENCODING 895
SWIDTH 600 0
DWIDTH 12 0
BBX 10 14 2 0
BITMAP
00C0
00C0
00C0
00C0
00C0
00C0
00C0
00C0
00C0
00C0
C0C0
E1C0
7F80
3F00
ENDCHAR
STARTCHAR tonos
ENCODING 900
SWIDTH 600 0
DWIDTH 12 0
BBX 2 2 6 12
BITMAP
C0
C0
ENDCHAR
STARTCHAR dieresistonos
ENCODING 901
SWIDTH 600 0
DWIDTH 12 0
BBX 10 4 2 10
BITMAP
0C00
0C00
CCC0
CCC0
ENDCHAR
STARTCHAR Alphatonos
ENCODING 902
SWIDTH 600 0
DWIDTH 12 0
BBX 10 14 2 0
BITMAP
C300
C780
CFC0
CCC0
0CC0
0CC0
0CC0
0CC0
0FC0
0FC0
0CC0
0CC0
0CC0
0CC0
ENDCHAR
STARTCHAR Epsilontonos
ENCODING 904
SWIDTH 600 0
DWIDTH 12 0
BBX 10 14 2 0
BITMAP
CFC0
CFC0
CC00
CC00
0C00
0C00
0F00
0F00
0C00
0C00
0C00
0C00
0FC0
0FC0
ENDCHAR
STARTCHAR Etatonos
ENCODING 905
SWIDTH 600 0
DWIDTH 12 0
BBX 10 14 2 0
BITMAP
CCC0
CCC0
CCC0
CCC0
0CC0
0CC0
0FC0
0FC0
0CC0
0CC0
0CC0
0CC0
0CC0
0CC0
ENDCHAR
STARTCHAR Iotatonos
ENCODING 906
SWIDTH 600 0
DWIDTH 12 0
BBX 10 14 2 0
BITMAP
CFC0
CFC0
C300
C300
0300
0300
0300
0300
0300
0300
0300
0300
0FC0
0FC0
ENDCHAR
STARTCHAR Omicrontonos
ENCODING 908
SWIDTH 600 0
DWIDTH 12 0
BBX 10 14 2 0
BITMAP
C300
C780
CFC0
CCC0
0CC0
0CC0
0CC0
0CC0
0CC0
0CC0
0CC0
0FC0
0780
0300
ENDCHAR
STARTCHAR Upsilontonos
ENCODING 910
SWIDTH 600 0
DWIDTH 12 0
BBX 10 14 2 0
BITMAP
CCC0
CCC0
CCC0
CCC0
0CC0
0FC0
0780
0300
0300
0300
0300
0300
0300
0300
ENDCHAR
STARTCHAR Omegatonos
ENCODING 911
SWIDTH 600 0
DWIDTH 12 0
BBX 10 14 2 0
BITMAP
C300
C780
CFC0
CCC0
0CC0
0CC0
0CC0
0CC0
0CC0
0FC0
0780
0300
0FC0
0FC0
ENDCHAR
STARTCHAR iotadieresistonos
ENCODING 912
SWIDTH 600 0
DWIDTH 12 0
BBX 10 14 2 0
BITMAP
0C00
0C00
CCC0
CCC0
0000
0000
3C00
3C00
0C00
0C00
0C00
0E00
0700
0300
ENDCHAR
STARTCHAR Alpha
ENCODING 913
SWIDTH 600 0
DWIDTH 12 0
BBX 10 14 2 0
BITMAP
0C00
1E00
3F00
7380
E1C0
C0C0
C0C0
C0C0
FFC0
FFC0
C0C0
C0C0
C0C0
C0C0
ENDCHAR
STARTCHAR Beta
ENCODING 914
SWIDTH 600 0
DWIDTH 12 0
BBX 10 14 2 0
BITMAP
FF00
FF80
C1C0
C0C0
C0C0
C1C0
FF80
FF80
C1C0
C0C0
C0C0
C1C0
FF80
FF00
ENDCHAR
STARTCHAR Gamma
ENCODING 915
SWIDTH 600 0
DWIDTH 12 0
BBX 10 14 2 0
BITMAP
FFC0
FFC0
C000
C000
C000
C000
C000
C000
C000
C000
C000
C000
C000
C000
ENDCHAR
STARTCHAR uni0394
ENCODING 916
SWIDTH 600 0
DWIDTH 12 0
BBX 10 14 2 0
BITMAP
0C00
0C00
0C00
1E00
3F00
3300
3300
7380
E1C0
C0C0
C0C0
C0C0
FFC0
FFC0
ENDCHAR
STARTCHAR Epsilon
ENCODING 917
SWIDTH 600 0
DWIDTH 12 0
BBX 10 14 2 0
BITMAP
FFC0
FFC0
C000
C000
C000
C000
FF00
FF00
C000
C000
C000
C000
FFC0
FFC0
ENDCHAR
STARTCHAR Zeta
ENCODING 918
SWIDTH 600 0
DWIDTH 12 0
BBX 10 14 2 0
BITMAP
FFC0
FFC0
00C0
01C0
0380
0700
0E00
1C00
3800
7000
E000
C000
FFC0
FFC0
ENDCHAR
STARTCHAR Eta
ENCODING 919
SWIDTH 600 0
DWIDTH 12 0
BBX 10 14 2 0
BITMAP
C0C0
C0C0
C0C0
C0C0
C0C0
C0C0
FFC0
FFC0
C0C0
C0C0
C0C0
C0C0
C0C0
C0C0
ENDCHAR
STARTCHAR Theta
ENCODING 920
SWIDTH 600 0
DWIDTH 12 0
BBX 10 14 2 0
BITMAP
3F00
7F80
E1C0
C0C0
C0C0
C0C0
FFC0
FFC0
C0C0
C0C0
C0C0
E1C0
7F80
3F00
ENDCHAR
STARTCHAR Iota
ENCODING 921
SWIDTH 600 0
DWIDTH 12 0
BBX 6 14 4 0
BITMAP
FC
FC
30
30
30
30
30
30
30
30
30
30
FC
FC
ENDCHAR
STARTCHAR Kappa
ENCODING 922
SWIDTH 600 0
DWIDTH 12 0
BBX 10 14 2 0
BITMAP
C0C0
C1C0
C380
C700
CE00
DC00
F800
F800
DC00
CE00
C700
C380
C1C0
C0C0
ENDCHAR
STARTCHAR Lambda
ENCODING 923
SWIDTH 600 0
DWIDTH 12 0
BBX 10 14 2 0
BITMAP
0C00
0C00
0C00
1E00
3F00
3300
3300
7380
E1C0
C0C0
C0C0
C0C0
C0C0
C0C0
ENDCHAR
STARTCHAR Mu
ENCODING 924
SWIDTH 600 0
DWIDTH 12 0
BBX 10 14 2 0
BITMAP
C0C0
C0C0
F3C0
FFC0
DEC0
CCC0
CCC0
CCC0
C0C0
C0C0
C0C0
C0C0
C0C0
C0C0
ENDCHAR
STARTCHAR Nu
ENCODING 925
SWIDTH 600 0
DWIDTH 12 0
BBX 10 14 2 0
BITMAP
C0C0
C0C0
C0C0
C0C0
F0C0
F8C0
DCC0
CEC0
C7C0
C3C0
C0C0
C0C0
C0C0
C0C0
ENDCHAR
STARTCHAR Xi
ENCODING 926
SWIDTH 600 0
DWIDTH 12 0
BBX 10 14 2 0
BITMAP
FFC0
FFC0
0000
0000
0000
0000
3F00
3F00
0000
0000
0000
0000
FFC0
FFC0
ENDCHAR
STARTCHAR Omicron
ENCODING 927
SWIDTH 600 0
DWIDTH 12 0
BBX 10 14 2 0
BITMAP
3F00
7F80
E1C0
C0C0
C0C0
C0C0
C0C0
C0C0
C0C0
C0C0
C0C0
E1C0
7F80
3F00
ENDCHAR
STARTCHAR Pi
ENCODING 928
SWIDTH 600 0
DWIDTH 12 0
BBX 10 14 2 0
BITMAP
FFC0
FFC0
C0C0
C0C0
C0C0
C0C0
C0C0
C0C0
C0C0
C0C0
C0C0
C0C0
C0C0
C0C0
ENDCHAR
STARTCHAR Rho
ENCODING 929
SWIDTH 600 0
DWIDTH 12 0
BBX 10 14 2 0
BITMAP
FF00
FF80
C1C0
C0C0
C0C0
C1C0
FF80
FF00
C000
C000
C000
C000
C000
C000
ENDCHAR
STARTCHAR Sigma
ENCODING 931
SWIDTH 600 0
DWIDTH 12 0
BBX 10 14 2 0
BITMAP
FFC0
FFC0
C000
E000
7000
3800
1C00
1C00
3800
7000
E000
C000
FFC0
FFC0
ENDCHAR
STARTCHAR Tau
ENCODING 932
SWIDTH 600 0
DWIDTH 12 0
BBX 10 14 2 0
BITMAP
FFC0
FFC0
0C00
0C00
0C00
0C00
0C00
0C00
0C00
0C00
0C00
0C00
0C00
0C00
ENDCHAR
STARTCHAR Upsilon
ENCODING 933
SWIDTH 600 0
DWIDTH 12 0
BBX 10 14 2 0
BITMAP
C0C0
C0C0
C0C0
E1C0
7380
3F00
1E00
0C00
0C00
0C00
0C00
0C00
0C00
0C00
ENDCHAR
STARTCHAR Phi
ENCODING 934
SWIDTH 600 0
DWIDTH 12 0
BBX 10 14 2 0
BITMAP
0C00
0C00
3F00
7F80
EDC0
CCC0
CCC0
CCC0
CCC0
EDC0
7F80
3F00
0C00
0C00
ENDCHAR
STARTCHAR Chi
ENCODING 935
SWIDTH 600 0
DWIDTH 12 0
BBX 10 14 2 0
BITMAP
C0C0
C0C0
C0C0
E1C0
7380
3F00
1E00
1E00
3F00
7380
E1C0
C0C0
C0C0
C0C0
ENDCHAR
STARTCHAR Psi
ENCODING 936
SWIDTH 600 0
DWIDTH 12 0
BBX 10 14 2 0
BITMAP
CCC0
CCC0
CCC0
CCC0
CCC0
CCC0
CCC0
CCC0
CCC0
EDC0
7F80
3F00
0C00
0C00
ENDCHAR
STARTCHAR uni03A9
ENCODING 937
SWIDTH 600 0
DWIDTH 12 0
BBX 10 14 2 0
BITMAP
3F00
7F80
E1C0
C0C0
C0C0
C0C0
C0C0
C0C0
C0C0
E1C0
7380
3300
F3C0
F3C0
ENDCHAR
STARTCHAR Iotadieresis
ENCODING 938
SWIDTH 600 0
DWIDTH 12 0
BBX 6 14 4 0
BITMAP
CC
CC
00
00
FC
FC
30
30
30
30
30
30
FC
FC
ENDCHAR
STARTCHAR Upsilondieresis
ENCODING 939
SWIDTH 600 0
DWIDTH 12 0
BBX 10 14 2 0
BITMAP
3300
3300
0000
0000
C0C0
E1C0
7380
3F00
1E00
0C00
0C00
0C00
0C00
0C00
ENDCHAR
STARTCHAR alphatonos
ENCODING 940
SWIDTH 600 0
DWIDTH 12 0
BBX 10 14 2 0
BITMAP
0C00
0C00
0000
0000
3CC0
7FC0
E780
C300
C300
C300
C300
E780
7FC0
3CC0
ENDCHAR
STARTCHAR epsilontonos
ENCODING 941
SWIDTH 600 0
DWIDTH 12 0
BBX 10 14 2 0
BITMAP
0C00
0C00
0000
0000
3FC0
7FC0
E000
E000
7F00
7F00
E000
E000
7FC0
3FC0
ENDCHAR
STARTCHAR etatonos
ENCODING 942
SWIDTH 600 0
DWIDTH 12 0
BBX 10 18 2 -4
BITMAP
0C00
0C00
0000
0000
FF00
FF80
C1C0
C0C0
C0C0
C0C0
C0C0
C0C0
C0C0
C0C0
00C0
00C0
00C0
00C0
ENDCHAR
STARTCHAR iotatonos
ENCODING 943
SWIDTH 600 0
DWIDTH 12 0
BBX 6 14 4 0
BITMAP
30
30
00
00
F0
F0
30
30
30
30
30
38
1C
0C
ENDCHAR
STARTCHAR upsilondieresistonos
ENCODING 944
SWIDTH 600 0
DWIDTH 12 0
BBX 10 14 2 0
BITMAP
0C00
0C00
CCC0
CCC0
0000
0000
C300
C380
C1C0
C0C0
C0C0
E1C0
7F80
3F00
ENDCHAR
STARTCHAR alpha
ENCODING 945
SWIDTH 600 0
DWIDTH 12 0
BBX 10 10 2 0
BITMAP
3CC0
7FC0
E780
C300
C300
C300
C300
E780
7FC0
3CC0
ENDCHAR
STARTCHAR beta
ENCODING 946
SWIDTH 600 0
DWIDTH 12 0
BBX 10 18 2 -4
BITMAP
3F00
7F80
E1C0
C0C0
C0C0
C1C0
FF80
FF80
C1C0
C0C0
C0C0
C1C0
FF80
FF00
C000
C000
C000
C000
ENDCHAR
STARTCHAR gamma
ENCODING 947
SWIDTH 600 0
DWIDTH 12 0
BBX 10 14 2 -4
BITMAP
C0C0
C0C0
C0C0
E1C0
7380
3300
3300
3F00
1E00
0C00
0C00
0C00
0C00
0C00
ENDCHAR
STARTCHAR delta
ENCODING 948
SWIDTH 600 0
DWIDTH 12 0
BBX 10 14 2 0
BITMAP
3FC0
7FC0
E000
E000
7F00
7F80
E1C0
C0C0
C0C0
C0C0
C0C0
E1C0
7F80
3F00
ENDCHAR
STARTCHAR epsilon
ENCODING 949
SWIDTH 600 0
DWIDTH 12 0
BBX 10 10 2 0
BITMAP
3FC0
7FC0
E000
E000
7F00
7F00
E000
E000
7FC0
3FC0
ENDCHAR
STARTCHAR zeta
ENCODING 950
SWIDTH 600 0
DWIDTH 12 0
BBX 8 18 2 -4
BITMAP
FF
FF
03
07
0E
1C
38
70
E0
C0
C0
E0
7C
3E
07
07
0E
0C
ENDCHAR
STARTCHAR eta
ENCODING 951
SWIDTH 600 0
DWIDTH 12 0
BBX 10 14 2 -4
BITMAP
FF00
FF80
C1C0
C0C0
C0C0
C0C0
C0C0
C0C0
C0C0
C0C0
00C0
00C0
00C0
00C0
ENDCHAR
STARTCHAR theta
ENCODING 952
SWIDTH 600 0
DWIDTH 12 0
BBX 8 14 2 0
BITMAP
3C
7E
E7
C3
C3
C3
FF
FF
C3
C3
C3
E7
7E
3C
ENDCHAR
STARTCHAR iota
ENCODING 953
SWIDTH 600 0
DWIDTH 12 0
BBX 6 10 4 0
BITMAP
F0
F0
30
30
30
30
30
38
1C
0C
ENDCHAR
STARTCHAR kappa
ENCODING 954
SWIDTH 600 0
DWIDTH 12 0
BBX 8 10 4 0
BITMAP
C3
C7
CE
DC
F8
F8
DC
CE
C7
C3
ENDCHAR
STARTCHAR lambda
ENCODING 955
SWIDTH 600 0
DWIDTH 12 0
BBX 10 14 2 0
BITMAP
F000
F800
1C00
0C00
0C00
1E00
3F00
3300
3300
7380
E1C0
C0C0
C0C0
C0C0
ENDCHAR
STARTCHAR uni03BC
ENCODING 956
SWIDTH 600 0
DWIDTH 12 0
BBX 10 14 2 -4
BITMAP
C300
C300
C300
C300
C300
C300
C300
C780
FFC0
FCC0
C000
C000
C000
C000
ENDCHAR
STARTCHAR nu
ENCODING 957
SWIDTH 600 0
DWIDTH 12 0
BBX 10 10 2 0
BITMAP
C0C0
C0C0
C0C0
E0C0
70C0
31C0
3380
3F00
1E00
0C00
ENDCHAR
STARTCHAR xi
ENCODING 958
SWIDTH 600 0
DWIDTH 12 0
BBX 10 18 2 -4
BITMAP
3F00
7F00
E000
C000
C000
E000
7F00
7F00
E000
C000
C000
E000
7F00
3F80
01C0
01C0
0380
0300
ENDCHAR
STARTCHAR omicron
ENCODING 959
SWIDTH 600 0
DWIDTH 12 0
BBX 10 10 2 0
BITMAP
3F00
7F80
E1C0
C0C0
C0C0
C0C0
C0C0
E1C0
7F80
3F00
ENDCHAR
STARTCHAR pi
ENCODING 960
SWIDTH 600 0
DWIDTH 12 0
BBX 10 10 2 0
BITMAP
FFC0
FFC0
3300
3300
3300
3300
3300
3380
31C0
30C0
ENDCHAR
STARTCHAR rho
ENCODING 961
SWIDTH 600 0
DWIDTH 12 0
BBX 10 14 2 -4
BITMAP
3F00
7F80
E1C0
C0C0
C0C0
C0C0
C0C0
C1C0
FF80
FF00
C000
C000
C000
C000
ENDCHAR
STARTCHAR sigma1
ENCODING 962
SWIDTH 600 0
DWIDTH 12 0
BBX 10 14 2 -4
BITMAP
3FC0
7FC0
E000
C000
C000
C000
C000
E000
7F00
3F80
01C0
01C0
0380
0300
ENDCHAR
STARTCHAR sigma
ENCODING 963
SWIDTH 600 0
DWIDTH 12 0
BBX 10 10 2 0
BITMAP
3FC0
7FC0
E300
C380
C1C0
C0C0
C0C0
E1C0
7F80
3F00
ENDCHAR
STARTCHAR tau
ENCODING 964
SWIDTH 600 0
DWIDTH 12 0
BBX 10 10 2 0
BITMAP
FFC0
FFC0
0C00
0C00
0C00
0C00
0C00
0E00
0700
0300
ENDCHAR
STARTCHAR upsilon
ENCODING 965
SWIDTH 600 0
DWIDTH 12 0
BBX 10 10 2 0
BITMAP
C300
C380
C1C0
C0C0
C0C0
C0C0
C0C0
E1C0
7F80
3F00
ENDCHAR
STARTCHAR phi
ENCODING 966
SWIDTH 600 0
DWIDTH 12 0
BBX 10 14 2 -4
BITMAP
CF00
CF80
CDC0
CCC0
CCC0
CCC0
CCC0
EDC0
7F80
3F00
0C00
0C00
0C00
0C00
ENDCHAR
STARTCHAR chi
ENCODING 967
SWIDTH 600 0
DWIDTH 12 0
BBX 10 14 2 -4
BITMAP
C0C0
E0C0
70C0
31C0
3380
3F00
1E00
1E00
3F00
7300
E300
C380
C1C0
C0C0
ENDCHAR
STARTCHAR psi
ENCODING 968
SWIDTH 600 0
DWIDTH 12 0
BBX 10 14 2 -4
BITMAP
CCC0
CCC0
CCC0
CCC0
CCC0
CCC0
CCC0
EDC0
7F80
3F00
0C00
0C00
0C00
0C00
ENDCHAR
STARTCHAR omega
ENCODING 969
SWIDTH 600 0
DWIDTH 12 0
BBX 10 10 2 0
BITMAP
3300
7380
E1C0
C0C0
CCC0
CCC0
CCC0
FFC0
7F80
3300
ENDCHAR
STARTCHAR iotadieresis
ENCODING 970
SWIDTH 600 0
DWIDTH 12 0
BBX 6 14 4 0
BITMAP
CC
CC
00
00
F0
F0
30
30
30
30
30
38
1C
0C
ENDCHAR
STARTCHAR upsilondieresis
ENCODING 971
SWIDTH 600 0
DWIDTH 12 0
BBX 10 14 2 0
BITMAP
3300
3300
0000
0000
C300
C380
C1C0
C0C0
C0C0
C0C0
C0C0
E1C0
7F80
3F00
ENDCHAR
STARTCHAR omicrontonos
ENCODING 972
SWIDTH 600 0
DWIDTH 12 0
BBX 10 14 2 0
BITMAP
0C00
0C00
0000
0000
3F00
7F80
E1C0
C0C0
C0C0
C0C0
C0C0
E1C0
7F80
3F00
ENDCHAR
STARTCHAR upsilontonos
ENCODING 973
SWIDTH 600 0
DWIDTH 12 0
BBX 10 14 2 0
BITMAP
0C00
0C00
0000
0000
C300
C380
C1C0
C0C0
C0C0
C0C0
C0C0
E1C0
7F80
3F00
ENDCHAR
STARTCHAR omegatonos
ENCODING 974
SWIDTH 600 0
DWIDTH 12 0
BBX 10 14 2 0
BITMAP
0C00
0C00
0000
0000
3300
7380
E1C0
C0C0
CCC0
CCC0
CCC0
FFC0
7F80
3300
ENDCHAR
STARTCHAR phi1
ENCODING 981
SWIDTH 600 0
DWIDTH 12 0
BBX 10 18 2 -4
BITMAP
0C00
0C00
0C00
0C00
3F00
7F80
EDC0
CCC0
CCC0
CCC0
CCC0
EDC0
7F80
3F00
0C00
0C00
0C00
0C00
ENDCHAR
STARTCHAR uni03F3
ENCODING 1011
SWIDTH 600 0
DWIDTH 12 0
BBX 4 18 4 -4
BITMAP
30
30
00
00
30
30
30
30
30
30
30
30
30
30
30
70
E0
C0
ENDCHAR
STARTCHAR uni0400
ENCODING 1024
SWIDTH 600 0
DWIDTH 12 0
BBX 10 14 2 0
BITMAP
3000
3800
1C00
0C00
FFC0
FFC0
C000
C000
FF00
FF00
C000
C000
FFC0
FFC0
ENDCHAR
STARTCHAR uni0401
ENCODING 1025
SWIDTH 600 0
DWIDTH 12 0
BBX 10 14 2 0
BITMAP
3300
3300
0000
0000
FFC0
FFC0
C000
C000
FF00
FF00
C000
C000
FFC0
FFC0
ENDCHAR
STARTCHAR uni0402
ENCODING 1026
SWIDTH 600 0
DWIDTH 12 0
BBX 10 18 2 -4
BITMAP
FF00
FF00
3000
3000
3000
3000
3F00
3F80
31C0
30C0
30C0
30C0
30C0
30C0
00C0
01C0
0380
0300
ENDCHAR
STARTCHAR uni0404
ENCODING 1028
SWIDTH 600 0
DWIDTH 12 0
BBX 10 14 2 0
BITMAP
0F00
1F80
39C0
70C0
E000
C000
FC00
FC00
C000
E000
70C0
39C0
1F80
0F00
ENDCHAR
STARTCHAR uni0405
ENCODING 1029
SWIDTH 600 0
DWIDTH 12 0
BBX 10 14 2 0
BITMAP
3F00
7F80
E1C0
C0C0
C000
E000
7F00
3F80
01C0
00C0
C0C0
E1C0
7F80
3F00
ENDCHAR
STARTCHAR uni0406
ENCODING 1030
SWIDTH 600 0
DWIDTH 12 0
BBX 6 14 4 0
BITMAP
FC
FC
30
30
30
30
30
30
30
30
30
30
FC
FC
ENDCHAR
STARTCHAR uni0407
ENCODING 1031
SWIDTH 600 0
DWIDTH 12 0
BBX 6 14 4 0
BITMAP
CC
CC
00
00
FC
FC
30
30
30
30
30
30
FC
FC
ENDCHAR
STARTCHAR uni0408
ENCODING 1032
SWIDTH 600 0
DWIDTH 12 0
BBX 10 14 2 0
BITMAP
00C0
00C0
00C0
00C0
00C0
00C0
00C0
00C0
00C0
00C0
C0C0
E1C0
7F80
3F00
ENDCHAR
STARTCHAR uni0409
ENCODING 1033
SWIDTH 600 0
DWIDTH 12 0
BBX 10 14 2 0
BITMAP
3C00
7C00
EC00
CC00
CC00
CC00
CFC0
CFC0
CCC0
CCC0
CCC0
CCC0
CFC0
CFC0
ENDCHAR
STARTCHAR uni040A
ENCODING 1034
SWIDTH 600 0
DWIDTH 12 0
BBX 10 14 2 0
BITMAP
CC00
CC00
CC00
CC00
CC00
CC00
FFC0
FFC0
CCC0
CCC0
CCC0
CCC0
CFC0
CFC0
ENDCHAR
STARTCHAR uni040B
ENCODING 1035
SWIDTH 600 0
DWIDTH 12 0
BBX 10 14 2 0
BITMAP
FF00
FF00
3000
3000
3000
3000
3F00
3F80
31C0
30C0
30C0
30C0
30C0
30C0
ENDCHAR
STARTCHAR uni040E
ENCODING 1038
SWIDTH 600 0
DWIDTH 12 0
BBX 10 14 2 0
BITMAP
CCC0
CCC0
C0C0
C0C0
C0C0
C0C0
FFC0
FFC0
00C0
00C0
00C0
00C0
FFC0
FFC0
ENDCHAR
STARTCHAR uni040F
ENCODING 1039
SWIDTH 600 0
DWIDTH 12 0
BBX 10 16 2 -2
BITMAP
C0C0
C0C0
C0C0
C0C0
C0C0
C0C0
C0C0
C0C0
C0C0
C0C0
C0C0
C0C0
FFC0
FFC0
0C00
0C00
ENDCHAR
STARTCHAR uni0410
ENCODING 1040
SWIDTH 600 0
DWIDTH 12 0
BBX 10 14 2 0
BITMAP
3F00
7F80
E1C0
C0C0
C0C0
C0C0
C0C0
C0C0
FFC0
FFC0
C0C0
C0C0
C0C0
C0C0
ENDCHAR
STARTCHAR uni0411
ENCODING 1041
SWIDTH 600 0
DWIDTH 12 0
BBX 10 14 2 0
BITMAP
FFC0
FFC0
C000
C000
C000
C000
FFC0
FFC0
C0C0
C0C0
C0C0
C0C0
FFC0
FFC0
ENDCHAR
STARTCHAR uni0412
ENCODING 1042
SWIDTH 600 0
DWIDTH 12 0
BBX 10 14 2 0
BITMAP
FF00
FF80
C1C0
C0C0
C0C0
C1C0
FF80
FF80
C1C0
C0C0
C0C0
C1C0
FF80
FF00
ENDCHAR
STARTCHAR uni0413
ENCODING 1043
SWIDTH 600 0
DWIDTH 12 0
BBX 10 14 2 0
BITMAP
FFC0
FFC0
C000
C000
C000
C000
C000
C000
C000
C000
C000
C000
C000
C000
ENDCHAR
STARTCHAR uni0414
ENCODING 1044
SWIDTH 600 0
DWIDTH 12 0
BBX 10 16 2 -2
BITMAP
0F00
1F00
3B00
3300
3300
3300
3300
3300
3300
3300
3300
3300
FFC0
FFC0
C0C0
C0C0
ENDCHAR
STARTCHAR uni0415
ENCODING 1045
SWIDTH 600 0
DWIDTH 12 0
BBX 10 14 2 0
BITMAP
FFC0
FFC0
C000
C000
C000
C000
FF00
FF00
C000
C000
C000
C000
FFC0
FFC0
ENDCHAR
STARTCHAR uni0416
ENCODING 1046
SWIDTH 600 0
DWIDTH 12 0
BBX 10 14 2 0
BITMAP
CCC0
CCC0
CCC0
CCC0
CCC0
EDC0
7F80
7F80
EDC0
CCC0
CCC0
CCC0
CCC0
CCC0
ENDCHAR
STARTCHAR uni0417
ENCODING 1047
SWIDTH 600 0
DWIDTH 12 0
BBX 10 14 2 0
BITMAP
3F00
7F80
E1C0
C0C0
00C0
01C0
0F80
0F80
01C0
00C0
C0C0
E1C0
7F80
3F00
ENDCHAR
STARTCHAR uni0418
ENCODING 1048
SWIDTH 600 0
DWIDTH 12 0
BBX 10 14 2 0
BITMAP
C0C0
C0C0
C0C0
C0C0
C3C0
C7C0
CEC0
DCC0
F8C0
F0C0
C0C0
C0C0
C0C0
C0C0
ENDCHAR
STARTCHAR uni0419
ENCODING 1049
SWIDTH 600 0
DWIDTH 12 0
BBX 10 14 2 0
BITMAP
CCC0
CCC0
C0C0
C0C0
C3C0
C7C0
CEC0
DCC0
F8C0
F0C0
C0C0
C0C0
C0C0
C0C0
ENDCHAR
STARTCHAR uni041A
ENCODING 1050
SWIDTH 600 0
DWIDTH 12 0
BBX 10 14 2 0
BITMAP
C0C0
C1C0
C380
C700
CE00
DC00
F800
F800
DC00
CE00
C700
C380
C1C0
C0C0
ENDCHAR
STARTCHAR uni041B
ENCODING 1051
SWIDTH 600 0
DWIDTH 12 0
BBX 10 14 2 0
BITMAP
0FC0
1FC0
38C0
30C0
30C0
30C0
30C0
30C0
30C0
30C0
30C0
30C0
F0C0
F0C0
ENDCHAR
STARTCHAR uni041C
ENCODING 1052
SWIDTH 600 0
DWIDTH 12 0
BBX 10 14 2 0
BITMAP
C0C0
C0C0
F3C0
FFC0
DEC0
CCC0
CCC0
CCC0
C0C0
C0C0
C0C0
C0C0
C0C0
C0C0
ENDCHAR
STARTCHAR uni041D
ENCODING 1053
SWIDTH 600 0
DWIDTH 12 0
BBX 10 14 2 0
BITMAP
C0C0
C0C0
C0C0
C0C0
C0C0
C0C0
FFC0
FFC0
C0C0
C0C0
C0C0
C0C0
C0C0
C0C0
ENDCHAR
STARTCHAR uni041E
ENCODING 1054
SWIDTH 600 0
DWIDTH 12 0
BBX 10 14 2 0
BITMAP
3F00
7F80
E1C0
C0C0
C0C0
C0C0
C0C0
C0C0
C0C0
C0C0
C0C0
E1C0
7F80
3F00
ENDCHAR
STARTCHAR uni041F
ENCODING 1055
SWIDTH 600 0
DWIDTH 12 0
BBX 10 14 2 0
BITMAP
FFC0
FFC0
C0C0
C0C0
C0C0
C0C0
C0C0
C0C0
C0C0
C0C0
C0C0
C0C0
C0C0
C0C0
ENDCHAR
STARTCHAR uni0420
ENCODING 1056
SWIDTH 600 0
DWIDTH 12 0
BBX 10 14 2 0
BITMAP
FF00
FF80
C1C0
C0C0
C0C0
C1C0
FF80
FF00
C000
C000
C000
C000
C000
C000
ENDCHAR
STARTCHAR uni0421
ENCODING 1057
SWIDTH 600 0
DWIDTH 12 0
BBX 10 14 2 0
BITMAP
3F00
7F80
E1C0
C0C0
C000
C000
C000
C000
C000
C000
C0C0
E1C0
7F80
3F00
ENDCHAR
STARTCHAR uni0422
ENCODING 1058
SWIDTH 600 0
DWIDTH 12 0
BBX 10 14 2 0
BITMAP
FFC0
FFC0
0C00
0C00
0C00
0C00
0C00
0C00
0C00
0C00
0C00
0C00
0C00
0C00
ENDCHAR
STARTCHAR uni0423
ENCODING 1059
SWIDTH 600 0
DWIDTH 12 0
BBX 10 14 2 0
BITMAP
C0C0
C0C0
C0C0
C0C0
C0C0
C0C0
FFC0
FFC0
00C0
00C0
00C0
00C0
FFC0
FFC0
ENDCHAR
STARTCHAR uni0424
ENCODING 1060
SWIDTH 600 0
DWIDTH 12 0
BBX 10 14 2 0
BITMAP
0C00
0C00
FFC0
FFC0
CCC0
CCC0
CCC0
CCC0
CCC0
CCC0
FFC0
FFC0
0C00
0C00
ENDCHAR
STARTCHAR uni0425
ENCODING 1061
SWIDTH 600 0
DWIDTH 12 0
BBX 10 14 2 0
BITMAP
C0C0
C0C0
C0C0
E1C0
7380
3F00
1E00
1E00
3F00
7380
E1C0
C0C0
C0C0
C0C0
ENDCHAR
STARTCHAR uni0426
ENCODING 1062
SWIDTH 600 0
DWIDTH 12 0
BBX 10 16 2 -2
BITMAP
C300
C300
C300
C300
C300
C300
C300
C300
C300
C300
C300
C300
FFC0
FFC0
00C0
00C0
ENDCHAR
STARTCHAR uni0427
ENCODING 1063
SWIDTH 600 0
DWIDTH 12 0
BBX 10 14 2 0
BITMAP
C0C0
C0C0
C0C0
C0C0
C0C0
C0C0
FFC0
FFC0
00C0
00C0
00C0
00C0
00C0
00C0
ENDCHAR
STARTCHAR uni0428
ENCODING 1064
SWIDTH 600 0
DWIDTH 12 0
BBX 10 14 2 0
BITMAP
CCC0
CCC0
CCC0
CCC0
CCC0
CCC0
CCC0
CCC0
CCC0
CCC0
CCC0
CCC0
FFC0
FFC0
ENDCHAR
STARTCHAR uni0429
ENCODING 1065
SWIDTH 600 0
DWIDTH 12 0
BBX 10 16 2 -2
BITMAP
CCC0
CCC0
CCC0
CCC0
CCC0
CCC0
CCC0
CCC0
CCC0
CCC0
CCC0
CCC0
FFC0
FFC0
00C0
00C0
ENDCHAR
STARTCHAR uni042A
ENCODING 1066
SWIDTH 600 0
DWIDTH 12 0
BBX 10 14 2 0
BITMAP
F000
F000
3000
3000
3000
3000
3FC0
3FC0
30C0
30C0
30C0
30C0
3FC0
3FC0
ENDCHAR
STARTCHAR uni042B
ENCODING 1067
SWIDTH 600 0
DWIDTH 12 0
BBX 10 14 2 0
BITMAP
C0C0
C0C0
C0C0
C0C0
C0C0
C0C0
FCC0
FCC0
CCC0
CCC0
CCC0
CCC0
FCC0
FCC0
ENDCHAR
STARTCHAR uni042C
ENCODING 1068
SWIDTH 600 0
DWIDTH 12 0
BBX 10 14 2 0
BITMAP
C000
C000
C000
C000
C000
C000
FFC0
FFC0
C0C0
C0C0
C0C0
C0C0
FFC0
FFC0
ENDCHAR
STARTCHAR uni042D
ENCODING 1069
SWIDTH 600 0
DWIDTH 12 0
BBX 10 14 2 0
BITMAP
3C00
7E00
E700
C380
01C0
00C0
0FC0
0FC0
00C0
01C0
C380
E700
7E00
3C00
ENDCHAR
STARTCHAR uni042E
ENCODING 1070
SWIDTH 600 0
DWIDTH 12 0
BBX 10 14 2 0
BITMAP
C300
C780
CFC0
CCC0
CCC0
CCC0
FCC0
FCC0
CCC0
CCC0
CCC0
CFC0
C780
C300
ENDCHAR
STARTCHAR uni042F
ENCODING 1071
SWIDTH 600 0
DWIDTH 12 0
BBX 10 14 2 0
BITMAP
3FC0
7FC0
E0C0
C0C0
C0C0
E0C0
7FC0
3FC0
0CC0
1CC0
38C0
70C0
E0C0
C0C0
ENDCHAR
STARTCHAR uni0430
ENCODING 1072
SWIDTH 600 0
DWIDTH 12 0
BBX 10 10 2 0
BITMAP
3F00
3F80
01C0
00C0
3FC0
7FC0
E0C0
E0C0
7FC0
3FC0
ENDCHAR
STARTCHAR uni0431
ENCODING 1073
SWIDTH 600 0
DWIDTH 12 0
BBX 10 14 2 0
BITMAP
3F00
7F00
E000
C000
FF00
FF80
C1C0
C0C0
C0C0
C0C0
C0C0
C1C0
FF80
FF00
ENDCHAR
STARTCHAR uni0432
ENCODING 1074
SWIDTH 600 0
DWIDTH 12 0
BBX 10 10 2 0
BITMAP
FF00
FF80
C1C0
C1C0
FF80
FF80
C1C0
C1C0
FF80
FF00
ENDCHAR
STARTCHAR uni0433
ENCODING 1075
SWIDTH 600 0
DWIDTH 12 0
BBX 10 10 2 0
BITMAP
FFC0
FFC0
C000
C000
C000
C000
C000
C000
C000
C000
ENDCHAR
STARTCHAR uni0434
ENCODING 1076
SWIDTH 600 0
DWIDTH 12 0
BBX 10 12 2 -2
BITMAP
0F00
1F00
3B00
3300
3300
3300
3300
3300
FFC0
FFC0
C0C0
C0C0
ENDCHAR
STARTCHAR uni0435
ENCODING 1077
SWIDTH 600 0
DWIDTH 12 0
BBX 10 10 2 0
BITMAP
3F00
7F80
E1C0
C0C0
FFC0
FFC0
C000
E000
7F00
3F00
ENDCHAR
STARTCHAR uni0436
ENCODING 1078
SWIDTH 600 0
DWIDTH 12 0
BBX 10 10 2 0
BITMAP
CCC0
CCC0
CCC0
EDC0
7F80
7F80
EDC0
CCC0
CCC0
CCC0
ENDCHAR
STARTCHAR uni0437
ENCODING 1079
SWIDTH 600 0
DWIDTH 12 0
BBX 10 10 2 0
BITMAP
3F00
7F80
E1C0
C1C0
0F80
0F80
C1C0
E1C0
7F80
3F00
ENDCHAR
STARTCHAR uni0438
ENCODING 1080
SWIDTH 600 0
DWIDTH 12 0
BBX 10 10 2 0
BITMAP
C0C0
C0C0
C3C0
C7C0
CEC0
DCC0
F8C0
F0C0
C0C0
C0C0
ENDCHAR
STARTCHAR uni0439
ENCODING 1081
SWIDTH 600 0
DWIDTH 12 0
BBX 10 12 2 0
BITMAP
0C00
0C00
C0C0
C0C0
C3C0
C7C0
CEC0
DCC0
F8C0
F0C0
C0C0
C0C0
ENDCHAR
STARTCHAR uni043A
ENCODING 1082
SWIDTH 600 0
DWIDTH 12 0
BBX 10 10 2 0
BITMAP
C0C0
C1C0
C380
C700
FE00
FE00
C700
C380
C1C0
C0C0
ENDCHAR
STARTCHAR uni043B
ENCODING 1083
SWIDTH 600 0
DWIDTH 12 0
BBX 10 10 2 0
BITMAP
0FC0
1FC0
38C0
30C0
30C0
30C0
30C0
30C0
F0C0
F0C0
ENDCHAR
STARTCHAR uni043C
ENCODING 1084
SWIDTH 600 0
DWIDTH 12 0
BBX 10 10 2 0
BITMAP
C0C0
C0C0
F3C0
FFC0
DEC0
CCC0
C0C0
C0C0
C0C0
C0C0
ENDCHAR
STARTCHAR uni043D
ENCODING 1085
SWIDTH 600 0
DWIDTH 12 0
BBX 10 10 2 0
BITMAP
C0C0
C0C0
C0C0
C0C0
FFC0
FFC0
C0C0
C0C0
C0C0
C0C0
ENDCHAR
STARTCHAR uni043E
ENCODING 1086
SWIDTH 600 0
DWIDTH 12 0
BBX 10 10 2 0
BITMAP
3F00
7F80
E1C0
C0C0
C0C0
C0C0
C0C0
E1C0
7F80
3F00
ENDCHAR
STARTCHAR uni043F
ENCODING 1087
SWIDTH 600 0
DWIDTH 12 0
BBX 10 10 2 0
BITMAP
FFC0
FFC0
C0C0
C0C0
C0C0
C0C0
C0C0
C0C0
C0C0
C0C0
ENDCHAR
STARTCHAR uni0440
ENCODING 1088
SWIDTH 600 0
DWIDTH 12 0
BBX 10 14 2 -4
BITMAP
FF00
FF80
C1C0
C0C0
C0C0
C0C0
C0C0
C1C0
FF80
FF00
C000
C000
C000
C000
ENDCHAR
STARTCHAR uni0441
ENCODING 1089
SWIDTH 600 0
DWIDTH 12 0
BBX 10 10 2 0
BITMAP
3F00
7F80
E1C0
C0C0
C000
C000
C0C0
E1C0
7F80
3F00
ENDCHAR
STARTCHAR uni0442
ENCODING 1090
SWIDTH 600 0
DWIDTH 12 0
BBX 10 10 2 0
BITMAP
FFC0
FFC0
0C00
0C00
0C00
0C00
0C00
0C00
0C00
0C00
ENDCHAR
STARTCHAR uni0443
ENCODING 1091
SWIDTH 600 0
DWIDTH 12 0
BBX 10 14 2 -4
BITMAP
C0C0
C0C0
C0C0
C0C0
C0C0
C0C0
C0C0
E0C0
7FC0
3FC0
00C0
01C0
3F80
3F00
ENDCHAR
STARTCHAR uni0444
ENCODING 1092
SWIDTH 600 0
DWIDTH 12 0
BBX 10 14 2 -2
BITMAP
0C00
0C00
3F00
7F80
EDC0
CCC0
CCC0
CCC0
CCC0
EDC0
7F80
3F00
0C00
0C00
ENDCHAR
STARTCHAR uni0445
ENCODING 1093
SWIDTH 600 0
DWIDTH 12 0
BBX 10 10 2 0
BITMAP
C0C0
E1C0
7380
3F00
1E00
1E00
3F00
7380
E1C0
C0C0
ENDCHAR
STARTCHAR uni0446
ENCODING 1094
SWIDTH 600 0
DWIDTH 12 0
BBX 10 12 2 -2
BITMAP
C300
C300
C300
C300
C300
C300
C300
C300
FFC0
FFC0
00C0
00C0
ENDCHAR
STARTCHAR uni0447
ENCODING 1095
SWIDTH 600 0
DWIDTH 12 0
BBX 10 10 2 0
BITMAP
C0C0
C0C0
C0C0
C0C0
C0C0
E0C0
7FC0
3FC0
00C0
00C0
ENDCHAR
STARTCHAR uni0448
ENCODING 1096
SWIDTH 600 0
DWIDTH 12 0
BBX 10 10 2 0
BITMAP
CCC0
CCC0
CCC0
CCC0
CCC0
CCC0
CCC0
CCC0
FFC0
FFC0
ENDCHAR
STARTCHAR uni0449
ENCODING 1097
SWIDTH 600 0
DWIDTH 12 0
BBX 10 12 2 -2
BITMAP
CCC0
CCC0
CCC0
CCC0
CCC0
CCC0
CCC0
CCC0
FFC0
FFC0
00C0
00C0
ENDCHAR
STARTCHAR uni044A
ENCODING 1098
SWIDTH 600 0
DWIDTH 12 0
BBX 10 10 2 0
BITMAP
F000
F000
3000
3000
3F00
3F80
31C0
31C0
3F80
3F00
ENDCHAR
STARTCHAR uni044B
ENCODING 1099
SWIDTH 600 0
DWIDTH 12 0
BBX 10 10 2 0
BITMAP
C0C0
C0C0
C0C0
C0C0
FCC0
FCC0
CCC0
CCC0
FCC0
FCC0
ENDCHAR
STARTCHAR uni044C
ENCODING 1100
SWIDTH 600 0
DWIDTH 12 0
BBX 10 10 2 0
BITMAP
C000
C000
C000
C000
FF00
FF80
C1C0
C1C0
FF80
FF00
ENDCHAR
STARTCHAR uni044D
ENCODING 1101
SWIDTH 600 0
DWIDTH 12 0
BBX 8 10 2 0
BITMAP
3C
7E
E7
C3
0F
0F
C3
E7
7E
3C
ENDCHAR
STARTCHAR uni044E
ENCODING 1102
SWIDTH 600 0
DWIDTH 12 0
BBX 10 10 2 0
BITMAP
C300
C780
CFC0
CCC0
FCC0
FCC0
CCC0
CFC0
C780
C300
ENDCHAR
STARTCHAR uni044F
ENCODING 1103
SWIDTH 600 0
DWIDTH 12 0
BBX 10 10 2 0
BITMAP
3FC0
7FC0
E0C0
E0C0
7FC0
3FC0
0CC0
1CC0
F8C0
F0C0
ENDCHAR
STARTCHAR uni0450
ENCODING 1104
SWIDTH 600 0
DWIDTH 12 0
BBX 10 14 2 0
BITMAP
3000
3800
1C00
0C00
3F00
7F80
E1C0
C0C0
FFC0
FFC0
C000
E000
7F00
3F00
ENDCHAR
STARTCHAR uni0451
ENCODING 1105
SWIDTH 600 0
DWIDTH 12 0
BBX 10 14 2 0
BITMAP
3300
3300
0000
0000
3F00
7F80
E1C0
C0C0
FFC0
FFC0
C000
E000
7F00
3F00
ENDCHAR
STARTCHAR uni0452
ENCODING 1106
SWIDTH 600 0
DWIDTH 12 0
BBX 10 18 2 -4
BITMAP
3000
3000
FF00
FF00
3000
3000
3F00
3F80
31C0
30C0
30C0
30C0
30C0
30C0
00C0
01C0
0380
0300
ENDCHAR
STARTCHAR uni0454
ENCODING 1108
SWIDTH 600 0
DWIDTH 12 0
BBX 8 10 2 0
BITMAP
3C
7E
E7
C3
F0
F0
C3
E7
7E
3C
ENDCHAR
STARTCHAR uni0455
ENCODING 1109
SWIDTH 600 0
DWIDTH 12 0
BBX 10 10 2 0
BITMAP
3FC0
7FC0
E000
E000
7F00
3F80
01C0
01C0
FF80
FF00
ENDCHAR
STARTCHAR uni0456
ENCODING 1110
SWIDTH 600 0
DWIDTH 12 0
BBX 6 14 4 0
BITMAP
30
30
00
00
F0
F0
30
30
30
30
30
30
FC
FC
ENDCHAR
STARTCHAR uni0457
ENCODING 1111
SWIDTH 600 0
DWIDTH 12 0
BBX 6 14 4 0
BITMAP
CC
CC
00
00
F0
F0
30
30
30
30
30
30
FC
FC
ENDCHAR
STARTCHAR uni0458
ENCODING 1112
SWIDTH 600 0
DWIDTH 12 0
BBX 4 18 4 -4
BITMAP
30
30
00
00
30
30
30
30
30
30
30
30
30
30
30
70
E0
C0
ENDCHAR
STARTCHAR uni0459
ENCODING 1113
SWIDTH 600 0
DWIDTH 12 0
BBX 10 10 2 0
BITMAP
3C00
7C00
EC00
CC00
CF00
CF80
CDC0
CDC0
CF80
CF00
ENDCHAR
STARTCHAR uni045A
ENCODING 1114
SWIDTH 600 0
DWIDTH 12 0
BBX 10 10 2 0
BITMAP
CC00
CC00
CC00
CC00
FF00
FF80
CDC0
CDC0
CF80
CF00
ENDCHAR
STARTCHAR uni045B
ENCODING 1115
SWIDTH 600 0
DWIDTH 12 0
BBX 10 14 2 0
BITMAP
3000
3000
FF00
FF00
3000
3000
3F00
3F80
31C0
30C0
30C0
30C0
30C0
30C0
ENDCHAR
STARTCHAR uni045E
ENCODING 1118
SWIDTH 600 0
DWIDTH 12 0
BBX 10 16 2 -4
BITMAP
0C00
0C00
C0C0
C0C0
C0C0
C0C0
C0C0
C0C0
C0C0
E0C0
7FC0
3FC0
00C0
01C0
3F80
3F00
ENDCHAR
STARTCHAR uni045F
ENCODING 1119
SWIDTH 600 0
DWIDTH 12 0
BBX 10 12 2 -2
BITMAP
C0C0
C0C0
C0C0
C0C0
C0C0
C0C0
C0C0
C0C0
FFC0
FFC0
0C00
0C00
ENDCHAR
STARTCHAR uni0490
ENCODING 1168
SWIDTH 600 0
DWIDTH 12 0
BBX 10 14 2 0
BITMAP
00C0
00C0
FFC0
FFC0
C000
C000
C000
C000
C000
C000
C000
C000
C000
C000
ENDCHAR
STARTCHAR uni0491
ENCODING 1169
SWIDTH 600 0
DWIDTH 12 0
BBX 10 12 2 0
BITMAP
00C0
00C0
FFC0
FFC0
C000
C000
C000
C000
C000
C000
C000
C000
ENDCHAR
STARTCHAR uni0492
ENCODING 1170
SWIDTH 600 0
DWIDTH 12 0
BBX 10 14 2 0
BITMAP
3FC0
3FC0
3000
3000
3000
3000
FF00
FF00
3000
3000
3000
3000
3000
3000
ENDCHAR
STARTCHAR uni0493
ENCODING 1171
SWIDTH 600 0
DWIDTH 12 0
BBX 10 10 2 0
BITMAP
3FC0
3FC0
3000
3000
FF00
FF00
3000
3000
3000
3000
ENDCHAR
STARTCHAR uni05D0
ENCODING 1488
SWIDTH 600 0
DWIDTH 12 0
BBX 10 12 2 0
BITMAP
C0C0
E0C0
70C0
78C0
FCC0
CFC0
C780
C380
C1C0
C0C0
C0C0
C0C0
ENDCHAR
STARTCHAR uni05D1
ENCODING 1489
SWIDTH 600 0
DWIDTH 12 0
BBX 10 12 2 0
BITMAP
3F00
3F00
0300
0300
0300
0300
0300
0300
0300
0300
FFC0
FFC0
ENDCHAR
STARTCHAR uni05D2
ENCODING 1490
SWIDTH 600 0
DWIDTH 12 0
BBX 8 12 4 0
BITMAP
0F
0F
03
03
03
03
0F
1F
3B
73
E3
C3
ENDCHAR
STARTCHAR uni05D3
ENCODING 1491
SWIDTH 600 0
DWIDTH 12 0
BBX 10 12 2 0
BITMAP
FFC0
FFC0
0300
0300
0300
0300
0300
0300
0300
0300
0300
0300
ENDCHAR
STARTCHAR uni05D4
ENCODING 1492
SWIDTH 600 0
DWIDTH 12 0
BBX 10 12 2 0
BITMAP
FFC0
FFC0
00C0
00C0
00C0
00C0
C0C0
C0C0
C0C0
C0C0
C0C0
C0C0
ENDCHAR
STARTCHAR uni05D5
ENCODING 1493
SWIDTH 600 0
DWIDTH 12 0
BBX 4 12 4 0
BITMAP
F0
F0
30
30
30
30
30
30
30
30
30
30
ENDCHAR
STARTCHAR uni05D6
ENCODING 1494
SWIDTH 600 0
DWIDTH 12 0
BBX 6 12 4 0
BITMAP
FC
FC
30
70
E0
E0
70
30
30
30
30
30
ENDCHAR
STARTCHAR uni05D7
ENCODING 1495
SWIDTH 600 0
DWIDTH 12 0
BBX 10 12 2 0
BITMAP
FFC0
FFC0
C0C0
C0C0
C0C0
C0C0
C0C0
C0C0
C0C0
C0C0
C0C0
C0C0
ENDCHAR
STARTCHAR uni05D8
ENCODING 1496
SWIDTH 600 0
DWIDTH 12 0
BBX 10 12 2 0
BITMAP
C0C0
C0C0
C3C0
C7C0
CEC0
CCC0
C0C0
C0C0
C0C0
C0C0
FFC0
FFC0
ENDCHAR
STARTCHAR uni05D9
ENCODING 1497
SWIDTH 600 0
DWIDTH 12 0
BBX 4 4 4 8
BITMAP
F0
F0
30
30
ENDCHAR
STARTCHAR uni05DA
ENCODING 1498
SWIDTH 600 0
DWIDTH 12 0
BBX 10 14 2 -2
BITMAP
FFC0
FFC0
00C0
00C0
00C0
00C0
00C0
00C0
00C0
00C0
00C0
00C0
00C0
00C0
ENDCHAR
STARTCHAR uni05DB
ENCODING 1499
SWIDTH 600 0
DWIDTH 12 0
BBX 10 12 2 0
BITMAP
FFC0
FFC0
00C0
00C0
00C0
00C0
00C0
00C0
00C0
00C0
FFC0
FFC0
ENDCHAR
STARTCHAR uni05DC
ENCODING 1500
SWIDTH 600 0
DWIDTH 12 0
BBX 10 14 2 0
BITMAP
C000
C000
FFC0
FFC0
00C0
00C0
00C0
00C0
00C0
01C0
0380
0700
3E00
3C00
ENDCHAR
STARTCHAR uni05DD
ENCODING 1501
SWIDTH 600 0
DWIDTH 12 0
BBX 10 12 2 0
BITMAP
FFC0
FFC0
C0C0
C0C0
C0C0
C0C0
C0C0
C0C0
C0C0
C0C0
FFC0
FFC0
ENDCHAR
STARTCHAR uni05DE
ENCODING 1502
SWIDTH 600 0
DWIDTH 12 0
BBX 10 12 2 0
BITMAP
CF00
FF80
79C0
70C0
E0C0
C0C0
C0C0
C0C0
C0C0
C0C0
CFC0
CFC0
ENDCHAR
STARTCHAR uni05DF
ENCODING 1503
SWIDTH 600 0
DWIDTH 12 0
BBX 4 16 4 -4
BITMAP
F0
F0
30
30
30
30
30
30
30
30
30
30
30
30
30
30
ENDCHAR
STARTCHAR uni05E0
ENCODING 1504
SWIDTH 600 0
DWIDTH 12 0
BBX 6 12 4 0
BITMAP
3C
3C
0C
0C
0C
0C
0C
0C
0C
0C
FC
FC
ENDCHAR
STARTCHAR uni05E1
ENCODING 1505
SWIDTH 600 0
DWIDTH 12 0
BBX 10 12 2 0
BITMAP
FFC0
FFC0
30C0
70C0
E0C0
C0C0
C0C0
C0C0
C0C0
E1C0
7F80
3F00
ENDCHAR
STARTCHAR uni05E2
ENCODING 1506
SWIDTH 600 0
DWIDTH 12 0
BBX 10 12 2 0
BITMAP
30C0
30C0
30C0
30C0
30C0
30C0
30C0
31C0
3380
3700
FE00
FC00
ENDCHAR
STARTCHAR uni05E3
ENCODING 1507
SWIDTH 600 0
DWIDTH 12 0
BBX 10 14 2 -2
BITMAP
FFC0
FFC0
30C0
30C0
3CC0
3CC0
00C0
00C0
00C0
00C0
00C0
00C0
00C0
00C0
ENDCHAR
STARTCHAR uni05E4
ENCODING 1508
SWIDTH 600 0
DWIDTH 12 0
BBX 10 12 2 0
BITMAP
FFC0
FFC0
30C0
30C0
3CC0
3CC0
00C0
00C0
00C0
00C0
FFC0
FFC0
ENDCHAR
STARTCHAR uni05E5
ENCODING 1509
SWIDTH 600 0
DWIDTH 12 0
BBX 10 14 2 -2
BITMAP
F0C0
F1C0
3380
3700
3E00
3C00
3000
3000
3000
3000
3000
3000
3000
3000
ENDCHAR
STARTCHAR uni05E6
ENCODING 1510
SWIDTH 600 0
DWIDTH 12 0
BBX 10 12 2 0
BITMAP
C0C0
C0C0
C0C0
E1C0
7380
3F00
1E00
0E00
0700
0300
FFC0
FFC0
ENDCHAR
STARTCHAR uni05E7
ENCODING 1511
SWIDTH 600 0
DWIDTH 12 0
BBX 10 14 2 -2
BITMAP
FFC0
FFC0
00C0
00C0
30C0
30C0
30C0
31C0
3380
3300
3000
3000
3000
3000
ENDCHAR
STARTCHAR uni05E8
ENCODING 1512
SWIDTH 600 0
DWIDTH 12 0
BBX 10 12 2 0
BITMAP
FFC0
FFC0
00C0
00C0
00C0
00C0
00C0
00C0
00C0
00C0
00C0
00C0
ENDCHAR
STARTCHAR uni05E9
ENCODING 1513
SWIDTH 600 0
DWIDTH 12 0
BBX 10 12 2 0
BITMAP
CCC0
CCC0
CCC0
CCC0
CCC0
DCC0
F8C0
F0C0
C0C0
C1C0
FF80
FF00
ENDCHAR
STARTCHAR uni05EA
ENCODING 1514
SWIDTH 600 0
DWIDTH 12 0
BBX 10 12 2 0
BITMAP
3FC0
3FC0
30C0
30C0
30C0
30C0
30C0
30C0
30C0
30C0
F0C0
F0C0
ENDCHAR
STARTCHAR uni1D00
ENCODING 7424
SWIDTH 600 0
DWIDTH 12 0
BBX 10 10 2 0
BITMAP
3F00
7F80
E1C0
C0C0
FFC0
FFC0
C0C0
C0C0
C0C0
C0C0
ENDCHAR
STARTCHAR uni1D01
ENCODING 7425
SWIDTH 600 0
DWIDTH 12 0
BBX 10 10 2 0
BITMAP
3FC0
7FC0
EC00
CC00
CF00
CF00
FC00
FC00
CFC0
CFC0
ENDCHAR
STARTCHAR uni1D02
ENCODING 7426
SWIDTH 600 0
DWIDTH 12 0
BBX 10 10 2 0
BITMAP
3F00
3F80
0DC0
0DC0
FF80
FF00
CC00
FE00
7F00
3300
ENDCHAR
STARTCHAR uni1D04
ENCODING 7428
SWIDTH 600 0
DWIDTH 12 0
BBX 10 10 2 0
BITMAP
3F00
7F80
E1C0
C0C0
C000
C000
C0C0
E1C0
7F80
3F00
ENDCHAR
STARTCHAR uni1D05
ENCODING 7429
SWIDTH 600 0
DWIDTH 12 0
BBX 10 10 2 0
BITMAP
FF00
FF80
C1C0
C0C0
C0C0
C0C0
C0C0
C1C0
FF80
FF00
ENDCHAR
STARTCHAR uni1D06
ENCODING 7430
SWIDTH 600 0
DWIDTH 12 0
BBX 10 10 2 0
BITMAP
3F00
3F80
31C0
30C0
FCC0
FCC0
30C0
31C0
3F80
3F00
ENDCHAR
STARTCHAR uni1D07
ENCODING 7431
SWIDTH 600 0
DWIDTH 12 0
BBX 10 10 2 0
BITMAP
FFC0
FFC0
C000
C000
FF00
FF00
C000
C000
FFC0
FFC0
ENDCHAR
STARTCHAR uni1D09
ENCODING 7433
SWIDTH 600 0
DWIDTH 12 0
BBX 6 14 4 -4
BITMAP
FC
FC
30
30
30
30
30
30
3C
3C
00
00
30
30
ENDCHAR
STARTCHAR uni1D0A
ENCODING 7434
SWIDTH 600 0
DWIDTH 12 0
BBX 10 10 2 0
BITMAP
00C0
00C0
00C0
00C0
00C0
00C0
C0C0
E1C0
7F80
3F00
ENDCHAR
STARTCHAR uni1D0B
ENCODING 7435
SWIDTH 600 0
DWIDTH 12 0
BBX 10 10 2 0
BITMAP
C0C0
C1C0
C380
C700
FE00
FE00
C700
C380
C1C0
C0C0
ENDCHAR
STARTCHAR uni1D0D
ENCODING 7437
SWIDTH 600 0
DWIDTH 12 0
BBX 10 10 2 0
BITMAP
C0C0
C0C0
F3C0
FFC0
DEC0
CCC0
C0C0
C0C0
C0C0
C0C0
ENDCHAR
STARTCHAR uni1D0E
ENCODING 7438
SWIDTH 600 0
DWIDTH 12 0
BBX 10 10 2 0
BITMAP
C0C0
C0C0
C3C0
C7C0
CEC0
DCC0
F8C0
F0C0
C0C0
C0C0
ENDCHAR
STARTCHAR uni1D0F
ENCODING 7439
SWIDTH 600 0
DWIDTH 12 0
BBX 10 10 2 0
BITMAP
3F00
7F80
E1C0
C0C0
C0C0
C0C0
C0C0
E1C0
7F80
3F00
ENDCHAR
STARTCHAR uni1D14
ENCODING 7444
SWIDTH 600 0
DWIDTH 12 0
BBX 10 10 2 0
BITMAP
F300
FF80
1FC0
0CC0
FCC0
FCC0
CCC0
FFC0
7F80
3300
ENDCHAR
STARTCHAR uni1D18
ENCODING 7448
SWIDTH 600 0
DWIDTH 12 0
BBX 10 10 2 0
BITMAP
FF00
FF80
C1C0
C1C0
FF80
FF00
C000
C000
C000
C000
ENDCHAR
STARTCHAR uni1D19
ENCODING 7449
SWIDTH 600 0
DWIDTH 12 0
BBX 10 10 2 0
BITMAP
3FC0
7FC0
E0C0
E0C0
7FC0
3FC0
30C0
70C0
E0C0
C0C0
ENDCHAR
STARTCHAR uni1D1A
ENCODING 7450
SWIDTH 600 0
DWIDTH 12 0
BBX 10 10 2 0
BITMAP
C0C0
E0C0
70C0
30C0
3FC0
7FC0
E0C0
E0C0
7FC0
3FC0
ENDCHAR
STARTCHAR uni1D1B
ENCODING 7451
SWIDTH 600 0
DWIDTH 12 0
BBX 10 10 2 0
BITMAP
FFC0
FFC0
0C00
0C00
0C00
0C00
0C00
0C00
0C00
0C00
ENDCHAR
STARTCHAR uni1D1C
ENCODING 7452
SWIDTH 600 0
DWIDTH 12 0
BBX 10 10 2 0
BITMAP
C0C0
C0C0
C0C0
C0C0
C0C0
C0C0
C0C0
E1C0
7F80
3F00
ENDCHAR
STARTCHAR uni1D1D
ENCODING 7453
SWIDTH 600 0
DWIDTH 12 0
BBX 10 10 2 0
BITMAP
FFC0
FFC0
00C0
00C0
00C0
00C0
00C0
01C0
FF80
FF00
ENDCHAR
STARTCHAR uni1D1F
ENCODING 7455
SWIDTH 600 0
DWIDTH 12 0
BBX 10 10 2 0
BITMAP
FFC0
FFC0
00C0
01C0
FF80
FF80
01C0
01C0
FF80
FF00
ENDCHAR
STARTCHAR uni1D20
ENCODING 7456
SWIDTH 600 0
DWIDTH 12 0
BBX 10 10 2 0
BITMAP
C0C0
C0C0
C0C0
E1C0
7380
3300
3300
3F00
1E00
0C00
ENDCHAR
STARTCHAR uni1D21
ENCODING 7457
SWIDTH 600 0
DWIDTH 12 0
BBX 10 10 2 0
BITMAP
C0C0
C0C0
C0C0
C0C0
CCC0
CCC0
CCC0
FFC0
7F80
3300
ENDCHAR
STARTCHAR uni1D22
ENCODING 7458
SWIDTH 600 0
DWIDTH 12 0
BBX 10 10 2 0
BITMAP
FFC0
FFC0
00C0
01C0
3F80
7F00
E000
C000
FFC0
FFC0
ENDCHAR
STARTCHAR uni1D4A
ENCODING 7498
SWIDTH 600 0
DWIDTH 12 0
BBX 6 10 2 4
BITMAP
F0
F8
1C
0C
FC
FC
CC
FC
78
30
ENDCHAR
STARTCHAR uni1D62
ENCODING 7522
SWIDTH 600 0
DWIDTH 12 0
BBX 6 10 4 -4
BITMAP
30
30
00
00
F0
F0
30
30
FC
FC
ENDCHAR
STARTCHAR uni1DBF
ENCODING 7615
SWIDTH 600 0
DWIDTH 12 0
BBX 6 10 2 4
BITMAP
30
78
FC
CC
FC
FC
CC
FC
78
30
ENDCHAR
STARTCHAR uni1E04
ENCODING 7684
SWIDTH 600 0
DWIDTH 12 0
BBX 10 18 2 -4
BITMAP
FF00
FF80
C1C0
C0C0
C0C0
C1C0
FF80
FF80
C1C0
C0C0
C0C0
C1C0
FF80
FF00
0000
0000
0C00
0C00
ENDCHAR
STARTCHAR uni1E05
ENCODING 7685
SWIDTH 600 0
DWIDTH 12 0
BBX 10 18 2 -4
BITMAP
C000
C000
C000
C000
FF00
FF80
C1C0
C0C0
C0C0
C0C0
C0C0
C1C0
FF80
FF00
0000
0000
0C00
0C00
ENDCHAR
STARTCHAR uni1E06
ENCODING 7686
SWIDTH 600 0
DWIDTH 12 0
BBX 10 18 2 -4
BITMAP
FF00
FF80
C1C0
C0C0
C0C0
C1C0
FF80
FF80
C1C0
C0C0
C0C0
C1C0
FF80
FF00
0000
0000
3F00
3F00
ENDCHAR
STARTCHAR uni1E07
ENCODING 7687
SWIDTH 600 0
DWIDTH 12 0
BBX 10 18 2 -4
BITMAP
C000
C000
C000
C000
FF00
FF80
C1C0
C0C0
C0C0
C0C0
C0C0
C1C0
FF80
FF00
0000
0000
3F00
3F00
ENDCHAR
STARTCHAR uni1E0C
ENCODING 7692
SWIDTH 600 0
DWIDTH 12 0
BBX 10 18 2 -4
BITMAP
FF00
FF80
C1C0
C0C0
C0C0
C0C0
C0C0
C0C0
C0C0
C0C0
C0C0
C1C0
FF80
FF00
0000
0000
0C00
0C00
ENDCHAR
STARTCHAR uni1E0D
ENCODING 7693
SWIDTH 600 0
DWIDTH 12 0
BBX 10 18 2 -4
BITMAP
00C0
00C0
00C0
00C0
3FC0
7FC0
E0C0
C0C0
C0C0
C0C0
C0C0
E0C0
7FC0
3FC0
0000
0000
0C00
0C00
ENDCHAR
STARTCHAR uni1E0E
ENCODING 7694
SWIDTH 600 0
DWIDTH 12 0
BBX 10 18 2 -4
BITMAP
FF00
FF80
C1C0
C0C0
C0C0
C0C0
C0C0
C0C0
C0C0
C0C0
C0C0
C1C0
FF80
FF00
0000
0000
3F00
3F00
ENDCHAR
STARTCHAR uni1E0F
ENCODING 7695
SWIDTH 600 0
DWIDTH 12 0
BBX 10 18 2 -4
BITMAP
00C0
00C0
00C0
00C0
3FC0
7FC0
E0C0
C0C0
C0C0
C0C0
C0C0
E0C0
7FC0
3FC0
0000
0000
3F00
3F00
ENDCHAR
STARTCHAR uni1E20
ENCODING 7712
SWIDTH 600 0
DWIDTH 12 0
BBX 10 14 2 0
BITMAP
3F00
3F00
0000
0000
3FC0
7FC0
E000
C000
C3C0
C3C0
C0C0
E0C0
7FC0
3FC0
ENDCHAR
STARTCHAR uni1E21
ENCODING 7713
SWIDTH 600 0
DWIDTH 12 0
BBX 10 18 2 -4
BITMAP
3F00
3F00
0000
0000
3FC0
7FC0
E0C0
C0C0
C0C0
C0C0
C0C0
E0C0
7FC0
3FC0
00C0
01C0
3F80
3F00
ENDCHAR
STARTCHAR uni1E24
ENCODING 7716
SWIDTH 600 0
DWIDTH 12 0
BBX 10 18 2 -4
BITMAP
C0C0
C0C0
C0C0
C0C0
C0C0
C0C0
FFC0
FFC0
C0C0
C0C0
C0C0
C0C0
C0C0
C0C0
0000
0000
0C00
0C00
ENDCHAR
STARTCHAR uni1E25
ENCODING 7717
SWIDTH 600 0
DWIDTH 12 0
BBX 10 18 2 -4
BITMAP
C000
C000
C000
C000
FF00
FF80
C1C0
C0C0
C0C0
C0C0
C0C0
C0C0
C0C0
C0C0
0000
0000
0C00
0C00
ENDCHAR
STARTCHAR uni1E26
ENCODING 7718
SWIDTH 600 0
DWIDTH 12 0
BBX 10 14 2 0
BITMAP
3300
3300
0000
0000
C0C0
C0C0
C0C0
C0C0
FFC0
FFC0
C0C0
C0C0
C0C0
C0C0
ENDCHAR
STARTCHAR uni1E27
ENCODING 7719
SWIDTH 600 0
DWIDTH 12 0
BBX 10 14 2 0
BITMAP
CCC0
CCC0
C000
C000
FF00
FF80
C1C0
C0C0
C0C0
C0C0
C0C0
C0C0
C0C0
C0C0
ENDCHAR
STARTCHAR uni1E32
ENCODING 7730
SWIDTH 600 0
DWIDTH 12 0
BBX 10 18 2 -4
BITMAP
C0C0
C1C0
C380
C700
CE00
DC00
F800
F800
DC00
CE00
C700
C380
C1C0
C0C0
0000
0000
0C00
0C00
ENDCHAR
STARTCHAR uni1E33
ENCODING 7731
SWIDTH 600 0
DWIDTH 12 0
BBX 8 18 4 -4
BITMAP
C0
C0
C0
C0
C3
C7
CE
DC
F8
F8
DC
CE
C7
C3
00
00
30
30
ENDCHAR
STARTCHAR uni1E34
ENCODING 7732
SWIDTH 600 0
DWIDTH 12 0
BBX 10 18 2 -4
BITMAP
C0C0
C1C0
C380
C700
CE00
DC00
F800
F800
DC00
CE00
C700
C380
C1C0
C0C0
0000
0000
3F00
3F00
ENDCHAR
STARTCHAR uni1E35
ENCODING 7733
SWIDTH 600 0
DWIDTH 12 0
BBX 8 18 4 -4
BITMAP
C0
C0
C0
C0
C3
C7
CE
DC
F8
F8
DC
CE
C7
C3
00
00
FC
FC
ENDCHAR
STARTCHAR uni1E36
ENCODING 7734
SWIDTH 600 0
DWIDTH 12 0
BBX 10 18 2 -4
BITMAP
C000
C000
C000
C000
C000
C000
C000
C000
C000
C000
C000
C000
FFC0
FFC0
0000
0000
0C00
0C00
ENDCHAR
STARTCHAR uni1E37
ENCODING 7735
SWIDTH 600 0
DWIDTH 12 0
BBX 6 18 4 -4
BITMAP
F0
F0
30
30
30
30
30
30
30
30
30
30
FC
FC
00
00
30
30
ENDCHAR
STARTCHAR uni1E3A
ENCODING 7738
SWIDTH 600 0
DWIDTH 12 0
BBX 10 18 2 -4
BITMAP
C000
C000
C000
C000
C000
C000
C000
C000
C000
C000
C000
C000
FFC0
FFC0
0000
0000
3F00
3F00
ENDCHAR
STARTCHAR uni1E3B
ENCODING 7739
SWIDTH 600 0
DWIDTH 12 0
BBX 6 18 4 -4
BITMAP
F0
F0
30
30
30
30
30
30
30
30
30
30
FC
FC
00
00
FC
FC
ENDCHAR
STARTCHAR uni1E42
ENCODING 7746
SWIDTH 600 0
DWIDTH 12 0
BBX 10 18 2 -4
BITMAP
C0C0
C0C0
F3C0
FFC0
DEC0
CCC0
CCC0
CCC0
C0C0
C0C0
C0C0
C0C0
C0C0
C0C0
0000
0000
0C00
0C00
ENDCHAR
STARTCHAR uni1E43
ENCODING 7747
SWIDTH 600 0
DWIDTH 12 0
BBX 10 14 2 -4
BITMAP
F300
FF80
DFC0
CCC0
CCC0
CCC0
CCC0
CCC0
CCC0
CCC0
0000
0000
0C00
0C00
ENDCHAR
STARTCHAR uni1E46
ENCODING 7750
SWIDTH 600 0
DWIDTH 12 0
BBX 10 18 2 -4
BITMAP
C0C0
C0C0
C0C0
C0C0
F0C0
F8C0
DCC0
CEC0
C7C0
C3C0
C0C0
C0C0
C0C0
C0C0
0000
0000
0C00
0C00
ENDCHAR
STARTCHAR uni1E47
ENCODING 7751
SWIDTH 600 0
DWIDTH 12 0
BBX 10 14 2 -4
BITMAP
FF00
FF80
C1C0
C0C0
C0C0
C0C0
C0C0
C0C0
C0C0
C0C0
0000
0000
0C00
0C00
ENDCHAR
STARTCHAR uni1E48
ENCODING 7752
SWIDTH 600 0
DWIDTH 12 0
BBX 10 18 2 -4
BITMAP
C0C0
C0C0
C0C0
C0C0
F0C0
F8C0
DCC0
CEC0
C7C0
C3C0
C0C0
C0C0
C0C0
C0C0
0000
0000
3F00
3F00
ENDCHAR
STARTCHAR uni1E49
ENCODING 7753
SWIDTH 600 0
DWIDTH 12 0
BBX 10 14 2 -4
BITMAP
FF00
FF80
C1C0
C0C0
C0C0
C0C0
C0C0
C0C0
C0C0
C0C0
0000
0000
3F00
3F00
ENDCHAR
STARTCHAR uni1E5A
ENCODING 7770
SWIDTH 600 0
DWIDTH 12 0
BBX 10 18 2 -4
BITMAP
FF00
FF80
C1C0
C0C0
C0C0
C1C0
FF80
FF00
CC00
CE00
C700
C380
C1C0
C0C0
0000
0000
0C00
0C00
ENDCHAR
STARTCHAR uni1E5B
ENCODING 7771
SWIDTH 600 0
DWIDTH 12 0
BBX 8 14 4 -4
BITMAP
CF
DF
F8
F0
C0
C0
C0
C0
C0
C0
00
00
30
30
ENDCHAR
STARTCHAR uni1E5C
ENCODING 7772
SWIDTH 600 0
DWIDTH 12 0
BBX 10 18 2 -4
BITMAP
3F00
3F00
0000
0000
FF00
FF80
C1C0
C1C0
FF80
FF00
C300
C380
C1C0
C0C0
0000
0000
0C00
0C00
ENDCHAR
STARTCHAR uni1E5D
ENCODING 7773
SWIDTH 600 0
DWIDTH 12 0
BBX 8 18 4 -4
BITMAP
FC
FC
00
00
CF
DF
F8
F0
C0
C0
C0
C0
C0
C0
00
00
30
30
ENDCHAR
STARTCHAR uni1E5E
ENCODING 7774
SWIDTH 600 0
DWIDTH 12 0
BBX 10 18 2 -4
BITMAP
FF00
FF80
C1C0
C0C0
C0C0
C1C0
FF80
FF00
CC00
CE00
C700
C380
C1C0
C0C0
0000
0000
3F00
3F00
ENDCHAR
STARTCHAR uni1E5F
ENCODING 7775
SWIDTH 600 0
DWIDTH 12 0
BBX 8 14 4 -4
BITMAP
CF
DF
F8
F0
C0
C0
C0
C0
C0
C0
00
00
FC
FC
ENDCHAR
STARTCHAR uni1E62
ENCODING 7778
SWIDTH 600 0
DWIDTH 12 0
BBX 10 18 2 -4
BITMAP
3F00
7F80
E1C0
C0C0
C000
E000
7F00
3F80
01C0
00C0
C0C0
E1C0
7F80
3F00
0000
0000
0C00
0C00
ENDCHAR
STARTCHAR uni1E63
ENCODING 7779
SWIDTH 600 0
DWIDTH 12 0
BBX 10 14 2 -4
BITMAP
3FC0
7FC0
E000
E000
7F00
3F80
01C0
01C0
FF80
FF00
0000
0000
0C00
0C00
ENDCHAR
STARTCHAR uni1E6C
ENCODING 7788
SWIDTH 600 0
DWIDTH 12 0
BBX 10 18 2 -4
BITMAP
FFC0
FFC0
0C00
0C00
0C00
0C00
0C00
0C00
0C00
0C00
0C00
0C00
0C00
0C00
0000
0000
0C00
0C00
ENDCHAR
STARTCHAR uni1E6D
ENCODING 7789
SWIDTH 600 0
DWIDTH 12 0
BBX 6 18 4 -4
BITMAP
30
30
30
30
FC
FC
30
30
30
30
30
38
1C
0C
00
00
30
30
ENDCHAR
STARTCHAR uni1E6E
ENCODING 7790
SWIDTH 600 0
DWIDTH 12 0
BBX 10 18 2 -4
BITMAP
FFC0
FFC0
0C00
0C00
0C00
0C00
0C00
0C00
0C00
0C00
0C00
0C00
0C00
0C00
0000
0000
3F00
3F00
ENDCHAR
STARTCHAR uni1E6F
ENCODING 7791
SWIDTH 600 0
DWIDTH 12 0
BBX 6 18 4 -4
BITMAP
30
30
30
30
FC
FC
30
30
30
30
30
38
1C
0C
00
00
FC
FC
ENDCHAR
STARTCHAR uni1E72
ENCODING 7794
SWIDTH 600 0
DWIDTH 12 0
BBX 10 18 2 -4
BITMAP
C0C0
C0C0
C0C0
C0C0
C0C0
C0C0
C0C0
C0C0
C0C0
C0C0
C0C0
E1C0
7F80
3F00
0000
0000
3300
3300
ENDCHAR
STARTCHAR uni1E73
ENCODING 7795
SWIDTH 600 0
DWIDTH 12 0
BBX 10 14 2 -4
BITMAP
C0C0
C0C0
C0C0
C0C0
C0C0
C0C0
C0C0
E0C0
7FC0
3FC0
0000
0000
3300
3300
ENDCHAR
STARTCHAR uni1E7E
ENCODING 7806
SWIDTH 600 0
DWIDTH 12 0
BBX 10 18 2 -4
BITMAP
C0C0
C0C0
C0C0
C0C0
C0C0
E1C0
7380
3300
3300
3F00
1E00
0C00
0C00
0C00
0000
0000
0C00
0C00
ENDCHAR
STARTCHAR uni1E7F
ENCODING 7807
SWIDTH 600 0
DWIDTH 12 0
BBX 10 14 2 -4
BITMAP
C0C0
C0C0
C0C0
E1C0
7380
3300
3300
3F00
1E00
0C00
0000
0000
0C00
0C00
ENDCHAR
STARTCHAR Wdieresis
ENCODING 7812
SWIDTH 600 0
DWIDTH 12 0
BBX 10 14 2 0
BITMAP
3300
3300
0000
0000
C0C0
C0C0
CCC0
CCC0
CCC0
CCC0
CCC0
FFC0
7F80
3300
ENDCHAR
STARTCHAR wdieresis
ENCODING 7813
SWIDTH 600 0
DWIDTH 12 0
BBX 10 14 2 0
BITMAP
3300
3300
0000
0000
C0C0
C0C0
C0C0
C0C0
CCC0
CCC0
CCC0
FFC0
7F80
3300
ENDCHAR
STARTCHAR uni1E88
ENCODING 7816
SWIDTH 600 0
DWIDTH 12 0
BBX 10 18 2 -4
BITMAP
C0C0
C0C0
C0C0
C0C0
C0C0
C0C0
CCC0
CCC0
CCC0
CCC0
CCC0
FFC0
7F80
3300
0000
0000
0C00
0C00
ENDCHAR
STARTCHAR uni1E89
ENCODING 7817
SWIDTH 600 0
DWIDTH 12 0
BBX 10 14 2 -4
BITMAP
C0C0
C0C0
C0C0
C0C0
CCC0
CCC0
CCC0
FFC0
7F80
3300
0000
0000
0C00
0C00
ENDCHAR
STARTCHAR uni1E8C
ENCODING 7820
SWIDTH 600 0
DWIDTH 12 0
BBX 10 14 2 0
BITMAP
3300
3300
0000
0000
C0C0
C0C0
C0C0
E1C0
7F80
7F80
E1C0
C0C0
C0C0
C0C0
ENDCHAR
STARTCHAR uni1E8D
ENCODING 7821
SWIDTH 600 0
DWIDTH 12 0
BBX 10 14 2 0
BITMAP
3300
3300
0000
0000
C0C0
E1C0
7380
3F00
1E00
1E00
3F00
7380
E1C0
C0C0
ENDCHAR
STARTCHAR uni1E92
ENCODING 7826
SWIDTH 600 0
DWIDTH 12 0
BBX 10 18 2 -4
BITMAP
FFC0
FFC0
00C0
01C0
0380
0700
0E00
1C00
3800
7000
E000
C000
FFC0
FFC0
0000
0000
0C00
0C00
ENDCHAR
STARTCHAR uni1E93
ENCODING 7827
SWIDTH 600 0
DWIDTH 12 0
BBX 10 14 2 -4
BITMAP
FFC0
FFC0
0300
0700
0E00
1C00
3800
3000
FFC0
FFC0
0000
0000
0C00
0C00
ENDCHAR
STARTCHAR uni1E94
ENCODING 7828
SWIDTH 600 0
DWIDTH 12 0
BBX 10 18 2 -4
BITMAP
FFC0
FFC0
00C0
01C0
0380
0700
0E00
1C00
3800
7000
E000
C000
FFC0
FFC0
0000
0000
3F00
3F00
ENDCHAR
STARTCHAR uni1E95
ENCODING 7829
SWIDTH 600 0
DWIDTH 12 0
BBX 10 14 2 -4
BITMAP
FFC0
FFC0
0300
0700
0E00
1C00
3800
3000
FFC0
FFC0
0000
0000
3F00
3F00
ENDCHAR
STARTCHAR uni1E96
ENCODING 7830
SWIDTH 600 0
DWIDTH 12 0
BBX 10 18 2 -4
BITMAP
C000
C000
C000
C000
FF00
FF80
C1C0
C0C0
C0C0
C0C0
C0C0
C0C0
C0C0
C0C0
0000
0000
3F00
3F00
ENDCHAR
STARTCHAR uni1E97
ENCODING 7831
SWIDTH 600 0
DWIDTH 12 0
BBX 10 14 2 0
BITMAP
CCC0
CCC0
0C00
0C00
3F00
3F00
0C00
0C00
0C00
0C00
0C00
0E00
0700
0300
ENDCHAR
STARTCHAR uni1E9E
ENCODING 7838
SWIDTH 600 0
DWIDTH 12 0
BBX 10 14 2 0
BITMAP
3F00
7F80
E1C0
C1C0
C380
C300
C300
C380
C1C0
C0C0
C0C0
C1C0
CF80
CF00
ENDCHAR
STARTCHAR uni1EA0
ENCODING 7840
SWIDTH 600 0
DWIDTH 12 0
BBX 10 18 2 -4
BITMAP
0C00
1E00
3F00
7380
E1C0
C0C0
C0C0
C0C0
FFC0
FFC0
C0C0
C0C0
C0C0
C0C0
0000
0000
0C00
0C00
ENDCHAR
STARTCHAR uni1EA1
ENCODING 7841
SWIDTH 600 0
DWIDTH 12 0
BBX 10 14 2 -4
BITMAP
3F00
3F80
01C0
00C0
3FC0
7FC0
E0C0
E0C0
7FC0
3FC0
0000
0000
0C00
0C00
ENDCHAR
STARTCHAR uni1EB8
ENCODING 7864
SWIDTH 600 0
DWIDTH 12 0
BBX 10 18 2 -4
BITMAP
FFC0
FFC0
C000
C000
C000
C000
FF00
FF00
C000
C000
C000
C000
FFC0
FFC0
0000
0000
0C00
0C00
ENDCHAR
STARTCHAR uni1EB9
ENCODING 7865
SWIDTH 600 0
DWIDTH 12 0
BBX 10 14 2 -4
BITMAP
3F00
7F80
E1C0
C0C0
FFC0
FFC0
C000
E000
7F00
3F00
0000
0000
0C00
0C00
ENDCHAR
STARTCHAR uni1ECA
ENCODING 7882
SWIDTH 600 0
DWIDTH 12 0
BBX 6 18 4 -4
BITMAP
FC
FC
30
30
30
30
30
30
30
30
30
30
FC
FC
00
00
30
30
ENDCHAR
STARTCHAR uni1ECB
ENCODING 7883
SWIDTH 600 0
DWIDTH 12 0
BBX 6 18 4 -4
BITMAP
30
30
00
00
F0
F0
30
30
30
30
30
30
FC
FC
00
00
30
30
ENDCHAR
STARTCHAR uni1ECC
ENCODING 7884
SWIDTH 600 0
DWIDTH 12 0
BBX 10 18 2 -4
BITMAP
3F00
7F80
E1C0
C0C0
C0C0
C0C0
C0C0
C0C0
C0C0
C0C0
C0C0
E1C0
7F80
3F00
0000
0000
0C00
0C00
ENDCHAR
STARTCHAR uni1ECD
ENCODING 7885
SWIDTH 600 0
DWIDTH 12 0
BBX 10 14 2 -4
BITMAP
3F00
7F80
E1C0
C0C0
C0C0
C0C0
C0C0
E1C0
7F80
3F00
0000
0000
0C00
0C00
ENDCHAR
STARTCHAR uni1EE4
ENCODING 7908
SWIDTH 600 0
DWIDTH 12 0
BBX 10 18 2 -4
BITMAP
C0C0
C0C0
C0C0
C0C0
C0C0
C0C0
C0C0
C0C0
C0C0
C0C0
C0C0
E1C0
7F80
3F00
0000
0000
0C00
0C00
ENDCHAR
STARTCHAR uni1EE5
ENCODING 7909
SWIDTH 600 0
DWIDTH 12 0
BBX 10 14 2 -4
BITMAP
C0C0
C0C0
C0C0
C0C0
C0C0
C0C0
C0C0
E0C0
7FC0
3FC0
0000
0000
0C00
0C00
ENDCHAR
STARTCHAR uni1EF4
ENCODING 7924
SWIDTH 600 0
DWIDTH 12 0
BBX 10 18 2 -4
BITMAP
C0C0
C0C0
C0C0
E1C0
7380
3F00
1E00
0C00
0C00
0C00
0C00
0C00
0C00
0C00
0000
0000
0C00
0C00
ENDCHAR
STARTCHAR uni1EF5
ENCODING 7925
SWIDTH 600 0
DWIDTH 12 0
BBX 10 14 2 -4
BITMAP
C0C0
C0C0
C0C0
E0C0
7FC0
3FC0
00C0
01C0
3F80
3F00
0000
0000
0C00
0C00
ENDCHAR
STARTCHAR uni2010
ENCODING 8208
SWIDTH 600 0
DWIDTH 12 0
BBX 6 2 4 6
BITMAP
FC
FC
ENDCHAR
STARTCHAR uni2011
ENCODING 8209
SWIDTH 600 0
DWIDTH 12 0
BBX 6 2 4 6
BITMAP
FC
FC
ENDCHAR
STARTCHAR endash
ENCODING 8211
SWIDTH 600 0
DWIDTH 12 0
BBX 8 2 2 6
BITMAP
FF
FF
ENDCHAR
STARTCHAR emdash
ENCODING 8212
SWIDTH 600 0
DWIDTH 12 0
BBX 10 2 2 6
BITMAP
FFC0
FFC0
ENDCHAR
STARTCHAR dblverticalbar
ENCODING 8214
SWIDTH 600 0
DWIDTH 12 0
BBX 6 14 4 0
BITMAP
CC
CC
CC
CC
CC
CC
CC
CC
CC
CC
CC
CC
CC
CC
ENDCHAR
STARTCHAR underscoredbl
ENCODING 8215
SWIDTH 600 0
DWIDTH 12 0
BBX 10 6 2 -4
BITMAP
FFC0
FFC0
0000
0000
FFC0
FFC0
ENDCHAR
STARTCHAR quoteleft
ENCODING 8216
SWIDTH 600 0
DWIDTH 12 0
BBX 4 6 6 8
BITMAP
30
70
E0
C0
C0
C0
ENDCHAR
STARTCHAR quoteright
ENCODING 8217
SWIDTH 600 0
DWIDTH 12 0
BBX 4 6 4 8
BITMAP
30
30
30
70
E0
C0
ENDCHAR
STARTCHAR quotesinglbase
ENCODING 8218
SWIDTH 600 0
DWIDTH 12 0
BBX 4 6 4 -2
BITMAP
30
30
30
70
E0
C0
ENDCHAR
STARTCHAR quotereversed
ENCODING 8219
SWIDTH 600 0
DWIDTH 12 0
BBX 4 6 6 8
BITMAP
C0
C0
C0
E0
70
30
ENDCHAR
STARTCHAR quotedblleft
ENCODING 8220
SWIDTH 600 0
DWIDTH 12 0
BBX 10 6 2 8
BITMAP
30C0
71C0
E380
C300
C300
C300
ENDCHAR
STARTCHAR quotedblright
ENCODING 8221
SWIDTH 600 0
DWIDTH 12 0
BBX 10 6 2 8
BITMAP
30C0
30C0
30C0
71C0
E380
C300
ENDCHAR
STARTCHAR quotedblbase
ENCODING 8222
SWIDTH 600 0
DWIDTH 12 0
BBX 10 6 2 -2
BITMAP
30C0
30C0
30C0
71C0
E380
C300
ENDCHAR
STARTCHAR uni201F
ENCODING 8223
SWIDTH 600 0
DWIDTH 12 0
BBX 10 6 2 8
BITMAP
C300
C300
C300
E380
71C0
30C0
ENDCHAR
STARTCHAR dagger
ENCODING 8224
SWIDTH 600 0
DWIDTH 12 0
BBX 10 18 2 -4
BITMAP
0C00
0C00
0C00
0C00
FFC0
FFC0
0C00
0C00
0C00
0C00
0C00
0C00
0C00
0C00
0C00
0C00
0C00
0C00
ENDCHAR
STARTCHAR daggerdbl
ENCODING 8225
SWIDTH 600 0
DWIDTH 12 0
BBX 10 18 2 -4
BITMAP
0C00
0C00
0C00
0C00
FFC0
FFC0
0C00
0C00
0C00
0C00
0C00
0C00
FFC0
FFC0
0C00
0C00
0C00
0C00
ENDCHAR
STARTCHAR bullet
ENCODING 8226
SWIDTH 600 0
DWIDTH 12 0
BBX 6 6 4 4
BITMAP
FC
FC
FC
FC
FC
FC
ENDCHAR
STARTCHAR ellipsis
ENCODING 8230
SWIDTH 600 0
DWIDTH 12 0
BBX 10 2 2 0
BITMAP
CCC0
CCC0
ENDCHAR
STARTCHAR perthousand
ENCODING 8240
SWIDTH 600 0
DWIDTH 12 0
BBX 10 14 2 0
BITMAP
C0C0
C1C0
C380
C700
0E00
1C00
3800
7000
E000
C000
0CC0
0CC0
0CC0
0CC0
ENDCHAR
STARTCHAR minute
ENCODING 8242
SWIDTH 600 0
DWIDTH 12 0
BBX 4 8 2 6
BITMAP
30
30
30
70
E0
C0
C0
C0
ENDCHAR
STARTCHAR second
ENCODING 8243
SWIDTH 600 0
DWIDTH 12 0
BBX 10 8 2 6
BITMAP
30C0
30C0
30C0
71C0
E380
C300
C300
C300
ENDCHAR
STARTCHAR uni2035
ENCODING 8245
SWIDTH 600 0
DWIDTH 12 0
BBX 4 8 8 6
BITMAP
C0
C0
C0
E0
70
30
30
30
ENDCHAR
STARTCHAR uni2036
ENCODING 8246
SWIDTH 600 0
DWIDTH 12 0
BBX 10 8 2 6
BITMAP
C300
C300
C300
E380
71C0
30C0
30C0
30C0
ENDCHAR
STARTCHAR guilsinglleft
ENCODING 8249
SWIDTH 600 0
DWIDTH 12 0
BBX 4 6 6 2
BITMAP
30
70
E0
E0
70
30
ENDCHAR
STARTCHAR guilsinglright
ENCODING 8250
SWIDTH 600 0
DWIDTH 12 0
BBX 4 6 4 2
BITMAP
C0
E0
70
70
E0
C0
ENDCHAR
STARTCHAR uni203B
ENCODING 8251
SWIDTH 600 0
DWIDTH 12 0
BBX 10 18 2 -4
BITMAP
CCC0
CCC0
C0C0
E1C0
7380
3F00
1E00
0C00
CCC0
CCC0
0C00
1E00
3F00
7380
E1C0
C0C0
CCC0
CCC0
ENDCHAR
STARTCHAR exclamdbl
ENCODING 8252
SWIDTH 600 0
DWIDTH 12 0
BBX 6 14 4 0
BITMAP
CC
CC
CC
CC
CC
CC
CC
CC
CC
CC
00
00
CC
CC
ENDCHAR
STARTCHAR uni203D
ENCODING 8253
SWIDTH 600 0
DWIDTH 12 0
BBX 10 14 2 0
BITMAP
3F00
7F80
EDC0
CCC0
0CC0
0DC0
0F80
0F00
0C00
0C00
0000
0000
0C00
0C00
ENDCHAR
STARTCHAR uni203E
ENCODING 8254
SWIDTH 600 0
DWIDTH 12 0
BBX 10 2 2 12
BITMAP
FFC0
FFC0
ENDCHAR
STARTCHAR uni203F
ENCODING 8255
SWIDTH 600 0
DWIDTH 12 0
BBX 10 4 2 -4
BITMAP
C0C0
E1C0
7F80
3F00
ENDCHAR
STARTCHAR uni2040
ENCODING 8256
SWIDTH 600 0
DWIDTH 12 0
BBX 10 4 2 10
BITMAP
3F00
7F80
E1C0
C0C0
ENDCHAR
STARTCHAR fraction
ENCODING 8260
SWIDTH 600 0
DWIDTH 12 0
BBX 10 18 2 -4
BITMAP
00C0
00C0
00C0
01C0
0380
0300
0300
0700
0E00
1C00
3800
3000
3000
7000
E000
C000
C000
C000
ENDCHAR
STARTCHAR uni2047
ENCODING 8263
SWIDTH 600 0
DWIDTH 12 0
BBX 10 14 2 0
BITMAP
3300
7F80
FFC0
CCC0
0CC0
1CC0
38C0
31C0
3380
3300
0000
0000
3300
3300
ENDCHAR
STARTCHAR uni2048
ENCODING 8264
SWIDTH 600 0
DWIDTH 12 0
BBX 10 14 2 0
BITMAP
30C0
78C0
FCC0
CCC0
0CC0
1CC0
38C0
30C0
30C0
30C0
0000
0000
30C0
30C0
ENDCHAR
STARTCHAR uni2049
ENCODING 8265
SWIDTH 600 0
DWIDTH 12 0
BBX 10 14 2 0
BITMAP
C300
C780
CFC0
CCC0
C0C0
C1C0
C380
C300
C300
C300
0000
0000
C300
C300
ENDCHAR
STARTCHAR uni204B
ENCODING 8267
SWIDTH 600 0
DWIDTH 12 0
BBX 10 14 2 0
BITMAP
CF00
CF80
CDC0
CCC0
CCC0
CDC0
CF80
CF00
CC00
CC00
CC00
CC00
CC00
CC00
ENDCHAR
STARTCHAR uni204F
ENCODING 8271
SWIDTH 600 0
DWIDTH 12 0
BBX 4 12 6 -2
BITMAP
C0
C0
00
00
00
00
C0
C0
C0
E0
70
30
ENDCHAR
STARTCHAR uni2052
ENCODING 8274
SWIDTH 600 0
DWIDTH 12 0
BBX 10 14 2 0
BITMAP
C0C0
C0C0
00C0
01C0
0380
0700
0E00
1C00
3800
7000
E000
C000
C0C0
C0C0
ENDCHAR
STARTCHAR uni2053
ENCODING 8275
SWIDTH 600 0
DWIDTH 12 0
BBX 10 6 2 4
BITMAP
3000
7800
FCC0
CFC0
0780
0300
ENDCHAR
STARTCHAR uni2054
ENCODING 8276
SWIDTH 600 0
DWIDTH 12 0
BBX 10 4 2 -4
BITMAP
3F00
7F80
E1C0
C0C0
ENDCHAR
STARTCHAR uni2056
ENCODING 8278
SWIDTH 600 0
DWIDTH 12 0
BBX 10 10 2 0
BITMAP
00C0
00C0
0000
0000
C000
C000
0000
0000
00C0
00C0
ENDCHAR
STARTCHAR uni2058
ENCODING 8280
SWIDTH 600 0
DWIDTH 12 0
BBX 10 10 2 0
BITMAP
0C00
0C00
0000
0000
C0C0
C0C0
0000
0000
0C00
0C00
ENDCHAR
STARTCHAR uni2059
ENCODING 8281
SWIDTH 600 0
DWIDTH 12 0
BBX 10 10 2 0
BITMAP
C0C0
C0C0
0000
0000
0C00
0C00
0000
0000
C0C0
C0C0
ENDCHAR
STARTCHAR uni205A
ENCODING 8282
SWIDTH 600 0
DWIDTH 12 0
BBX 2 14 6 0
BITMAP
C0
C0
00
00
00
00
00
00
00
00
00
00
C0
C0
ENDCHAR
STARTCHAR uni205B
ENCODING 8283
SWIDTH 600 0
DWIDTH 12 0
BBX 10 18 2 -4
BITMAP
0C00
0C00
0000
0000
0000
0000
0000
0000
C0C0
C0C0
0000
0000
0000
0000
0000
0000
0C00
0C00
ENDCHAR
STARTCHAR uni205C
ENCODING 8284
SWIDTH 600 0
DWIDTH 12 0
BBX 10 10 2 0
BITMAP
CCC0
CCC0
0C00
0C00
FFC0
FFC0
0C00
0C00
CCC0
CCC0
ENDCHAR
STARTCHAR uni205D
ENCODING 8285
SWIDTH 600 0
DWIDTH 12 0
BBX 2 14 6 0
BITMAP
C0
C0
00
00
00
00
C0
C0
00
00
00
00
C0
C0
ENDCHAR
STARTCHAR uni205E
ENCODING 8286
SWIDTH 600 0
DWIDTH 12 0
BBX 2 14 6 0
BITMAP
C0
C0
00
00
C0
C0
00
00
C0
C0
00
00
C0
C0
ENDCHAR
STARTCHAR uni2070
ENCODING 8304
SWIDTH 600 0
DWIDTH 12 0
BBX 6 10 4 4
BITMAP
30
78
FC
CC
CC
CC
CC
FC
78
30
ENDCHAR
STARTCHAR uni2071
ENCODING 8305
SWIDTH 600 0
DWIDTH 12 0
BBX 6 10 4 4
BITMAP
30
30
00
00
F0
F0
30
30
FC
FC
ENDCHAR
STARTCHAR uni2074
ENCODING 8308
SWIDTH 600 0
DWIDTH 12 0
BBX 6 10 4 4
BITMAP
0C
0C
3C
7C
EC
CC
FC
FC
0C
0C
ENDCHAR
STARTCHAR uni2075
ENCODING 8309
SWIDTH 600 0
DWIDTH 12 0
BBX 6 10 4 4
BITMAP
FC
FC
C0
C0
F0
F8
1C
1C
F8
F0
ENDCHAR
STARTCHAR uni2076
ENCODING 8310
SWIDTH 600 0
DWIDTH 12 0
BBX 6 10 4 4
BITMAP
30
70
E0
C0
F0
F8
DC
FC
78
30
ENDCHAR
STARTCHAR uni2077
ENCODING 8311
SWIDTH 600 0
DWIDTH 12 0
BBX 6 10 4 4
BITMAP
FC
FC
0C
1C
38
70
E0
C0
C0
C0
ENDCHAR
STARTCHAR uni2078
ENCODING 8312
SWIDTH 600 0
DWIDTH 12 0
BBX 6 10 4 4
BITMAP
30
78
FC
FC
78
78
FC
FC
78
30
ENDCHAR
STARTCHAR uni2079
ENCODING 8313
SWIDTH 600 0
DWIDTH 12 0
BBX 6 10 4 4
BITMAP
30
78
FC
EC
7C
3C
0C
1C
38
30
ENDCHAR
STARTCHAR uni207A
ENCODING 8314
SWIDTH 600 0
DWIDTH 12 0
BBX 6 6 4 6
BITMAP
30
30
FC
FC
30
30
ENDCHAR
STARTCHAR uni207B
ENCODING 8315
SWIDTH 600 0
DWIDTH 12 0
BBX 6 2 4 8
BITMAP
FC
FC
ENDCHAR
STARTCHAR uni207C
ENCODING 8316
SWIDTH 600 0
DWIDTH 12 0
BBX 6 6 4 6
BITMAP
FC
FC
00
00
FC
FC
ENDCHAR
STARTCHAR uni207D
ENCODING 8317
SWIDTH 600 0
DWIDTH 12 0
BBX 4 10 6 4
BITMAP
30
70
E0
C0
C0
C0
C0
E0
70
30
ENDCHAR
STARTCHAR uni207E
ENCODING 8318
SWIDTH 600 0
DWIDTH 12 0
BBX 4 10 4 4
BITMAP
C0
E0
70
30
30
30
30
70
E0
C0
ENDCHAR
STARTCHAR uni207F
ENCODING 8319
SWIDTH 600 0
DWIDTH 12 0
BBX 6 6 4 4
BITMAP
F0
F8
DC
CC
CC
CC
ENDCHAR
STARTCHAR uni2080
ENCODING 8320
SWIDTH 600 0
DWIDTH 12 0
BBX 6 10 4 -4
BITMAP
30
78
FC
CC
CC
CC
CC
FC
78
30
ENDCHAR
STARTCHAR uni2081
ENCODING 8321
SWIDTH 600 0
DWIDTH 12 0
BBX 6 10 4 -4
BITMAP
30
30
F0
F0
30
30
30
30
FC
FC
ENDCHAR
STARTCHAR uni2082
ENCODING 8322
SWIDTH 600 0
DWIDTH 12 0
BBX 6 10 4 -4
BITMAP
F0
F8
1C
1C
38
70
E0
C0
FC
FC
ENDCHAR
STARTCHAR uni2083
ENCODING 8323
SWIDTH 600 0
DWIDTH 12 0
BBX 6 10 4 -4
BITMAP
F0
F8
1C
1C
F8
F8
1C
1C
F8
F0
ENDCHAR
STARTCHAR uni2084
ENCODING 8324
SWIDTH 600 0
DWIDTH 12 0
BBX 6 10 4 -4
BITMAP
0C
0C
3C
7C
EC
CC
FC
FC
0C
0C
ENDCHAR
STARTCHAR uni2085
ENCODING 8325
SWIDTH 600 0
DWIDTH 12 0
BBX 6 10 4 -4
BITMAP
FC
FC
C0
C0
F0
F8
1C
1C
F8
F0
ENDCHAR
STARTCHAR uni2086
ENCODING 8326
SWIDTH 600 0
DWIDTH 12 0
BBX 6 10 4 -4
BITMAP
30
70
E0
C0
F0
F8
DC
FC
78
30
ENDCHAR
STARTCHAR uni2087
ENCODING 8327
SWIDTH 600 0
DWIDTH 12 0
BBX 6 10 4 -4
BITMAP
FC
FC
0C
1C
38
70
E0
C0
C0
C0
ENDCHAR
STARTCHAR uni2088
ENCODING 8328
SWIDTH 600 0
DWIDTH 12 0
BBX 6 10 4 -4
BITMAP
30
78
FC
FC
78
78
FC
FC
78
30
ENDCHAR
STARTCHAR uni2089
ENCODING 8329
SWIDTH 600 0
DWIDTH 12 0
BBX 6 10 4 -4
BITMAP
30
78
FC
EC
7C
3C
0C
1C
38
30
ENDCHAR
STARTCHAR uni208A
ENCODING 8330
SWIDTH 600 0
DWIDTH 12 0
BBX 6 6 4 -2
BITMAP
30
30
FC
FC
30
30
ENDCHAR
STARTCHAR uni208B
ENCODING 8331
SWIDTH 600 0
DWIDTH 12 0
BBX 6 2 4 0
BITMAP
FC
FC
ENDCHAR
STARTCHAR uni208C
ENCODING 8332
SWIDTH 600 0
DWIDTH 12 0
BBX 6 6 4 -2
BITMAP
FC
FC
00
00
FC
FC
ENDCHAR
STARTCHAR uni208D
ENCODING 8333
SWIDTH 600 0
DWIDTH 12 0
BBX 4 10 6 -4
BITMAP
30
70
E0
C0
C0
C0
C0
E0
70
30
ENDCHAR
STARTCHAR uni208E
ENCODING 8334
SWIDTH 600 0
DWIDTH 12 0
BBX 4 10 4 -4
BITMAP
C0
E0
70
30
30
30
30
70
E0
C0
ENDCHAR
STARTCHAR uni2099
ENCODING 8345
SWIDTH 600 0
DWIDTH 12 0
BBX 6 6 4 -4
BITMAP
F0
F8
DC
CC
CC
CC
ENDCHAR
STARTCHAR peseta
ENCODING 8359
SWIDTH 600 0
DWIDTH 12 0
BBX 10 14 2 0
BITMAP
F000
F800
DC00
DC00
F800
F000
C300
C300
CFC0
CFC0
C300
C380
C1C0
C0C0
ENDCHAR
STARTCHAR uni20AA
ENCODING 8362
SWIDTH 600 0
DWIDTH 12 0
BBX 10 14 2 0
BITMAP
F0C0
F8C0
DCC0
CCC0
CCC0
CCC0
C0C0
C0C0
CCC0
CCC0
CCC0
CDC0
CF80
CF00
ENDCHAR
STARTCHAR Euro
ENCODING 8364
SWIDTH 600 0
DWIDTH 12 0
BBX 10 14 2 0
BITMAP
0F00
1F80
39C0
30C0
FC00
FC00
3000
3000
FC00
FC00
30C0
39C0
1F80
0F00
ENDCHAR
STARTCHAR uni2117
ENCODING 8471
SWIDTH 600 0
DWIDTH 12 0
BBX 10 18 2 -4
BITMAP
3F00
7F80
E1C0
C0C0
FCC0
FEC0
F7C0
F3C0
F3C0
F7C0
FEC0
FCC0
F0C0
F0C0
C0C0
E1C0
7F80
3F00
ENDCHAR
STARTCHAR Omega
ENCODING 8486
SWIDTH 600 0
DWIDTH 12 0
BBX 10 14 2 0
BITMAP
3F00
7F80
E1C0
C0C0
C0C0
C0C0
C0C0
C0C0
C0C0
E1C0
7380
3300
F3C0
F3C0
ENDCHAR
STARTCHAR uni2127
ENCODING 8487
SWIDTH 600 0
DWIDTH 12 0
BBX 10 14 2 0
BITMAP
F3C0
F3C0
3300
7380
E1C0
C0C0
C0C0
C0C0
C0C0
C0C0
C0C0
E1C0
7F80
3F00
ENDCHAR
STARTCHAR uni2129
ENCODING 8489
SWIDTH 600 0
DWIDTH 12 0
BBX 6 10 4 0
BITMAP
C0
E0
70
30
30
30
30
30
3C
3C
ENDCHAR
STARTCHAR uni2132
ENCODING 8498
SWIDTH 600 0
DWIDTH 12 0
BBX 10 14 2 0
BITMAP
00C0
00C0
00C0
00C0
00C0
00C0
3FC0
3FC0
00C0
00C0
00C0
00C0
FFC0
FFC0
ENDCHAR
STARTCHAR uni214B
ENCODING 8523
SWIDTH 600 0
DWIDTH 12 0
BBX 10 14 2 0
BITMAP
CF00
FF80
79C0
78C0
FCC0
CFC0
0780
0780
0FC0
0CC0
0CC0
0FC0
0780
0300
ENDCHAR
STARTCHAR uni214E
ENCODING 8526
SWIDTH 600 0
DWIDTH 12 0
BBX 10 10 2 0
BITMAP
00C0
00C0
00C0
00C0
3FC0
3FC0
00C0
00C0
FFC0
FFC0
ENDCHAR
STARTCHAR uni2150
ENCODING 8528
SWIDTH 600 0
DWIDTH 12 0
BBX 10 18 2 -4
BITMAP
C000
C000
C000
C000
C000
C000
C000
C000
CFC0
CFC0
00C0
01C0
0380
0700
0E00
0C00
0C00
0C00
ENDCHAR
STARTCHAR uni2151
ENCODING 8529
SWIDTH 600 0
DWIDTH 12 0
BBX 10 18 2 -4
BITMAP
C000
C000
C000
C000
C000
C000
C000
C000
C300
C780
0FC0
0EC0
07C0
03C0
00C0
01C0
0380
0300
ENDCHAR
STARTCHAR uni2152
ENCODING 8530
SWIDTH 600 0
DWIDTH 12 0
BBX 10 18 2 -4
BITMAP
3000
3000
3000
3000
3000
3000
3000
3000
0000
0000
C300
C780
CFC0
CCC0
CCC0
CFC0
C780
C300
ENDCHAR
STARTCHAR onethird
ENCODING 8531
SWIDTH 600 0
DWIDTH 12 0
BBX 10 18 2 -4
BITMAP
C000
C000
C000
C000
C000
C000
C000
C000
CF00
CF80
01C0
01C0
0F80
0F80
01C0
01C0
0F80
0F00
ENDCHAR
STARTCHAR twothirds
ENCODING 8532
SWIDTH 600 0
DWIDTH 12 0
BBX 10 18 2 -4
BITMAP
C000
E000
7000
3000
3000
7000
E000
C000
F300
F380
01C0
01C0
0380
0380
01C0
01C0
0380
0300
ENDCHAR
STARTCHAR uni2155
ENCODING 8533
SWIDTH 600 0
DWIDTH 12 0
BBX 10 18 2 -4
BITMAP
C000
C000
C000
C000
C000
C000
C000
C000
CFC0
CFC0
0C00
0C00
0F00
0F80
01C0
01C0
0F80
0F00
ENDCHAR
STARTCHAR uni2156
ENCODING 8534
SWIDTH 600 0
DWIDTH 12 0
BBX 10 18 2 -4
BITMAP
C000
E000
7000
3000
3000
7000
E000
C000
F3C0
F3C0
0300
0300
03C0
03C0
00C0
01C0
0380
0300
ENDCHAR
STARTCHAR uni2157
ENCODING 8535
SWIDTH 600 0
DWIDTH 12 0
BBX 10 18 2 -4
BITMAP
C000
E000
7000
7000
E000
E000
7000
7000
E3C0
C3C0
0300
0300
03C0
03C0
00C0
01C0
0380
0300
ENDCHAR
STARTCHAR uni2158
ENCODING 8536
SWIDTH 600 0
DWIDTH 12 0
BBX 10 18 2 -4
BITMAP
0C00
0C00
3C00
7C00
EC00
CC00
FC00
FC00
0FC0
0FC0
0300
0300
03C0
03C0
00C0
01C0
0380
0300
ENDCHAR
STARTCHAR uni2159
ENCODING 8537
SWIDTH 600 0
DWIDTH 12 0
BBX 10 18 2 -4
BITMAP
C000
C000
C000
C000
C000
C000
C000
C000
C300
C700
0E00
0C00
0F00
0F80
0DC0
0FC0
0780
0300
ENDCHAR
STARTCHAR uni215A
ENCODING 8538
SWIDTH 600 0
DWIDTH 12 0
BBX 10 18 2 -4
BITMAP
F000
F000
C000
C000
F000
F000
3000
7000
E300
C700
0E00
0C00
0F00
0F80
0DC0
0FC0
0780
0300
ENDCHAR
STARTCHAR oneeighth
ENCODING 8539
SWIDTH 600 0
DWIDTH 12 0
BBX 10 18 2 -4
BITMAP
C000
C000
C000
C000
C000
C000
C000
C000
C300
C780
0FC0
0FC0
0780
0780
0FC0
0FC0
0780
0300
ENDCHAR
STARTCHAR threeeighths
ENCODING 8540
SWIDTH 600 0
DWIDTH 12 0
BBX 10 18 2 -4
BITMAP
C000
E000
7000
7000
E000
E000
7000
7000
E300
C780
0FC0
0FC0
0780
0780
0FC0
0FC0
0780
0300
ENDCHAR
STARTCHAR fiveeighths
ENCODING 8541
SWIDTH 600 0
DWIDTH 12 0
BBX 10 18 2 -4
BITMAP
F000
F000
C000
C000
F000
F000
3000
7000
E300
C780
0FC0
0FC0
0780
0780
0FC0
0FC0
0780
0300
ENDCHAR
STARTCHAR seveneighths
ENCODING 8542
SWIDTH 600 0
DWIDTH 12 0
BBX 10 18 2 -4
BITMAP
FC00
FC00
0C00
1C00
3800
7000
E000
C000
C300
C780
0FC0
0FC0
0780
0780
0FC0
0FC0
0780
0300
ENDCHAR
STARTCHAR uni2189
ENCODING 8585
SWIDTH 600 0
DWIDTH 12 0
BBX 10 18 2 -4
BITMAP
3000
7800
FC00
CC00
CC00
FC00
7800
3000
0300
0380
01C0
01C0
0380
0380
01C0
01C0
0380
0300
ENDCHAR
STARTCHAR uni218A
ENCODING 8586
SWIDTH 600 0
DWIDTH 12 0
BBX 10 14 2 0
BITMAP
FFC0
FFC0
00C0
01C0
0380
0700
3E00
7C00
E000
C000
C0C0
E1C0
7F80
3F00
ENDCHAR
STARTCHAR uni218B
ENCODING 8587
SWIDTH 600 0
DWIDTH 12 0
BBX 10 14 2 0
BITMAP
3F00
7F80
E1C0
C0C0
C000
E000
7C00
3C00
3000
7000
E000
C000
FFC0
FFC0
ENDCHAR
STARTCHAR arrowleft
ENCODING 8592
SWIDTH 600 0
DWIDTH 12 0
BBX 10 10 2 2
BITMAP
0C00
1C00
3800
3000
FFC0
FFC0
3000
3800
1C00
0C00
ENDCHAR
STARTCHAR arrowup
ENCODING 8593
SWIDTH 600 0
DWIDTH 12 0
BBX 10 10 2 2
BITMAP
0C00
0C00
3F00
7F80
EDC0
CCC0
0C00
0C00
0C00
0C00
ENDCHAR
STARTCHAR arrowright
ENCODING 8594
SWIDTH 600 0
DWIDTH 12 0
BBX 10 10 2 2
BITMAP
0C00
0E00
0700
0300
FFC0
FFC0
0300
0700
0E00
0C00
ENDCHAR
STARTCHAR arrowdown
ENCODING 8595
SWIDTH 600 0
DWIDTH 12 0
BBX 10 10 2 2
BITMAP
0C00
0C00
0C00
0C00
CCC0
EDC0
7F80
3F00
0C00
0C00
ENDCHAR
STARTCHAR arrowboth
ENCODING 8596
SWIDTH 600 0
DWIDTH 12 0
BBX 10 10 2 2
BITMAP
3300
7380
E1C0
C0C0
FFC0
FFC0
C0C0
E1C0
7380
3300
ENDCHAR
STARTCHAR arrowupdn
ENCODING 8597
SWIDTH 600 0
DWIDTH 12 0
BBX 10 14 2 0
BITMAP
0C00
0C00
3F00
7F80
EDC0
CCC0
0C00
0C00
CCC0
EDC0
7F80
3F00
0C00
0C00
ENDCHAR
STARTCHAR uni2196
ENCODING 8598
SWIDTH 600 0
DWIDTH 12 0
BBX 10 10 2 2
BITMAP
FF00
FF00
F000
F800
DC00
CE00
C700
C380
01C0
00C0
ENDCHAR
STARTCHAR uni2197
ENCODING 8599
SWIDTH 600 0
DWIDTH 12 0
BBX 10 10 2 2
BITMAP
3FC0
3FC0
03C0
07C0
0EC0
1CC0
38C0
70C0
E000
C000
ENDCHAR
STARTCHAR uni2198
ENCODING 8600
SWIDTH 600 0
DWIDTH 12 0
BBX 10 10 2 2
BITMAP
C000
E000
70C0
38C0
1CC0
0EC0
07C0
03C0
3FC0
3FC0
ENDCHAR
STARTCHAR uni2199
ENCODING 8601
SWIDTH 600 0
DWIDTH 12 0
BBX 10 10 2 2
BITMAP
00C0
01C0
C380
C700
CE00
DC00
F800
F000
FF00
FF00
ENDCHAR
STARTCHAR uni21A4
ENCODING 8612
SWIDTH 600 0
DWIDTH 12 0
BBX 10 10 2 2
BITMAP
0CC0
1CC0
38C0
30C0
FFC0
FFC0
30C0
38C0
1CC0
0CC0
ENDCHAR
STARTCHAR uni21A5
ENCODING 8613
SWIDTH 600 0
DWIDTH 12 0
BBX 10 10 2 2
BITMAP
0C00
0C00
3F00
7F80
EDC0
CCC0
0C00
0C00
FFC0
FFC0
ENDCHAR
STARTCHAR uni21A6
ENCODING 8614
SWIDTH 600 0
DWIDTH 12 0
BBX 10 10 2 2
BITMAP
CC00
CE00
C700
C300
FFC0
FFC0
C300
C700
CE00
CC00
ENDCHAR
STARTCHAR uni21A7
ENCODING 8615
SWIDTH 600 0
DWIDTH 12 0
BBX 10 10 2 2
BITMAP
FFC0
FFC0
0C00
0C00
CCC0
EDC0
7F80
3F00
0C00
0C00
ENDCHAR
STARTCHAR arrowupdnbse
ENCODING 8616
SWIDTH 600 0
DWIDTH 12 0
BBX 10 14 2 0
BITMAP
0C00
0C00
3F00
7F80
EDC0
CCC0
0C00
0C00
CCC0
EDC0
7F80
3F00
FFC0
FFC0
ENDCHAR
STARTCHAR uni21B4
ENCODING 8628
SWIDTH 600 0
DWIDTH 12 0
BBX 10 10 2 2
BITMAP
FC00
FC00
0C00
0C00
CCC0
EDC0
7F80
3F00
0C00
0C00
ENDCHAR
STARTCHAR carriagereturn
ENCODING 8629
SWIDTH 600 0
DWIDTH 12 0
BBX 10 12 2 2
BITMAP
00C0
00C0
0CC0
1CC0
38C0
30C0
FFC0
FFC0
3000
3800
1C00
0C00
ENDCHAR
STARTCHAR uni21B9
ENCODING 8633
SWIDTH 600 0
DWIDTH 12 0
BBX 10 18 2 -4
BITMAP
CC00
DC00
F800
F000
FFC0
FFC0
F000
F800
DCC0
CEC0
07C0
03C0
FFC0
FFC0
03C0
07C0
0EC0
0CC0
ENDCHAR
STARTCHAR uni21BC
ENCODING 8636
SWIDTH 600 0
DWIDTH 12 0
BBX 10 6 2 6
BITMAP
0C00
1C00
3800
3000
FFC0
FFC0
ENDCHAR
STARTCHAR uni21BD
ENCODING 8637
SWIDTH 600 0
DWIDTH 12 0
BBX 10 6 2 2
BITMAP
FFC0
FFC0
3000
3800
1C00
0C00
ENDCHAR
STARTCHAR uni21BE
ENCODING 8638
SWIDTH 600 0
DWIDTH 12 0
BBX 6 10 6 2
BITMAP
C0
C0
F0
F8
DC
CC
C0
C0
C0
C0
ENDCHAR
STARTCHAR uni21BF
ENCODING 8639
SWIDTH 600 0
DWIDTH 12 0
BBX 6 10 2 2
BITMAP
0C
0C
3C
7C
EC
CC
0C
0C
0C
0C
ENDCHAR
STARTCHAR uni21C0
ENCODING 8640
SWIDTH 600 0
DWIDTH 12 0
BBX 10 6 2 6
BITMAP
0C00
0E00
0700
0300
FFC0
FFC0
ENDCHAR
STARTCHAR uni21C1
ENCODING 8641
SWIDTH 600 0
DWIDTH 12 0
BBX 10 6 2 2
BITMAP
FFC0
FFC0
0300
0700
0E00
0C00
ENDCHAR
STARTCHAR uni21C2
ENCODING 8642
SWIDTH 600 0
DWIDTH 12 0
BBX 6 10 6 2
BITMAP
C0
C0
C0
C0
CC
DC
F8
F0
C0
C0
ENDCHAR
STARTCHAR uni21C3
ENCODING 8643
SWIDTH 600 0
DWIDTH 12 0
BBX 6 10 2 2
BITMAP
0C
0C
0C
0C
CC
EC
7C
3C
0C
0C
ENDCHAR
STARTCHAR uni21CB
ENCODING 8651
SWIDTH 600 0
DWIDTH 12 0
BBX 10 14 2 0
BITMAP
0C00
1C00
3800
3000
FFC0
FFC0
0000
0000
FFC0
FFC0
0300
0700
0E00
0C00
ENDCHAR
STARTCHAR uni21CC
ENCODING 8652
SWIDTH 600 0
DWIDTH 12 0
BBX 10 14 2 0
BITMAP
0C00
0E00
0700
0300
FFC0
FFC0
0000
0000
FFC0
FFC0
3000
3800
1C00
0C00
ENDCHAR
STARTCHAR arrowdblleft
ENCODING 8656
SWIDTH 600 0
DWIDTH 12 0
BBX 10 10 2 2
BITMAP
0F00
1F00
3BC0
73C0
E000
E000
73C0
3BC0
1F00
0F00
ENDCHAR
STARTCHAR arrowdblup
ENCODING 8657
SWIDTH 600 0
DWIDTH 12 0
BBX 10 14 2 0
BITMAP
0C00
1E00
3F00
7380
E1C0
C0C0
F3C0
F3C0
3300
3300
3300
3300
3300
3300
ENDCHAR
STARTCHAR arrowdblright
ENCODING 8658
SWIDTH 600 0
DWIDTH 12 0
BBX 10 10 2 2
BITMAP
3C00
3E00
F700
F380
01C0
01C0
F380
F700
3E00
3C00
ENDCHAR
STARTCHAR arrowdbldown
ENCODING 8659
SWIDTH 600 0
DWIDTH 12 0
BBX 10 14 2 0
BITMAP
3300
3300
3300
3300
3300
3300
F3C0
F3C0
C0C0
E1C0
7380
3F00
1E00
0C00
ENDCHAR
STARTCHAR uni21E4
ENCODING 8676
SWIDTH 600 0
DWIDTH 12 0
BBX 10 10 2 2
BITMAP
CC00
DC00
F800
F000
FFC0
FFC0
F000
F800
DC00
CC00
ENDCHAR
STARTCHAR uni21E5
ENCODING 8677
SWIDTH 600 0
DWIDTH 12 0
BBX 10 10 2 2
BITMAP
0CC0
0EC0
07C0
03C0
FFC0
FFC0
03C0
07C0
0EC0
0CC0
ENDCHAR
STARTCHAR uni21E6
ENCODING 8678
SWIDTH 600 0
DWIDTH 12 0
BBX 10 10 2 2
BITMAP
0F00
1F00
3BC0
73C0
E0C0
E0C0
73C0
3BC0
1F00
0F00
ENDCHAR
STARTCHAR uni21E7
ENCODING 8679
SWIDTH 600 0
DWIDTH 12 0
BBX 10 14 2 0
BITMAP
0C00
1E00
3F00
7380
E1C0
C0C0
F3C0
F3C0
3300
3300
3300
3300
3F00
3F00
ENDCHAR
STARTCHAR uni21E8
ENCODING 8680
SWIDTH 600 0
DWIDTH 12 0
BBX 10 10 2 2
BITMAP
3C00
3E00
F700
F380
C1C0
C1C0
F380
F700
3E00
3C00
ENDCHAR
STARTCHAR uni21E9
ENCODING 8681
SWIDTH 600 0
DWIDTH 12 0
BBX 10 14 2 0
BITMAP
3F00
3F00
3300
3300
3300
3300
F3C0
F3C0
C0C0
E1C0
7380
3F00
1E00
0C00
ENDCHAR
STARTCHAR uni21EA
ENCODING 8682
SWIDTH 600 0
DWIDTH 12 0
BBX 10 14 2 0
BITMAP
0C00
1E00
3F00
7380
E1C0
C0C0
F3C0
F3C0
3F00
3F00
3300
3300
3F00
3F00
ENDCHAR
STARTCHAR partialdiff
ENCODING 8706
SWIDTH 600 0
DWIDTH 12 0
BBX 10 14 2 0
BITMAP
3F00
7F80
E1C0
C0C0
00C0
00C0
3FC0
7FC0
E0C0
C0C0
C0C0
E1C0
7F80
3F00
ENDCHAR
STARTCHAR Delta
ENCODING 8710
SWIDTH 600 0
DWIDTH 12 0
BBX 10 14 2 0
BITMAP
0C00
0C00
0C00
1E00
3F00
3300
3300
7380
E1C0
C0C0
C0C0
C0C0
FFC0
FFC0
ENDCHAR
STARTCHAR gradient
ENCODING 8711
SWIDTH 600 0
DWIDTH 12 0
BBX 10 14 2 0
BITMAP
FFC0
FFC0
C0C0
C0C0
C0C0
E1C0
7380
3300
3300
3F00
1E00
0C00
0C00
0C00
ENDCHAR
STARTCHAR element
ENCODING 8712
SWIDTH 600 0
DWIDTH 12 0
BBX 10 14 2 0
BITMAP
3FC0
7FC0
E000
C000
C000
C000
FFC0
FFC0
C000
C000
C000
E000
7FC0
3FC0
ENDCHAR
STARTCHAR uni220A
ENCODING 8714
SWIDTH 600 0
DWIDTH 12 0
BBX 10 10 2 2
BITMAP
3FC0
7FC0
E000
C000
FFC0
FFC0
C000
E000
7FC0
3FC0
ENDCHAR
STARTCHAR suchthat
ENCODING 8715
SWIDTH 600 0
DWIDTH 12 0
BBX 10 14 2 0
BITMAP
FF00
FF80
01C0
00C0
00C0
00C0
FFC0
FFC0
00C0
00C0
00C0
01C0
FF80
FF00
ENDCHAR
STARTCHAR uni220D
ENCODING 8717
SWIDTH 600 0
DWIDTH 12 0
BBX 10 10 2 2
BITMAP
FF00
FF80
01C0
00C0
FFC0
FFC0
00C0
01C0
FF80
FF00
ENDCHAR
STARTCHAR product
ENCODING 8719
SWIDTH 600 0
DWIDTH 12 0
BBX 10 18 2 -4
BITMAP
FFC0
FFC0
C0C0
C0C0
C0C0
C0C0
C0C0
C0C0
C0C0
C0C0
C0C0
C0C0
C0C0
C0C0
C0C0
C0C0
C0C0
C0C0
ENDCHAR
STARTCHAR uni2210
ENCODING 8720
SWIDTH 600 0
DWIDTH 12 0
BBX 10 18 2 -4
BITMAP
C0C0
C0C0
C0C0
C0C0
C0C0
C0C0
C0C0
C0C0
C0C0
C0C0
C0C0
C0C0
C0C0
C0C0
C0C0
C0C0
FFC0
FFC0
ENDCHAR
STARTCHAR summation
ENCODING 8721
SWIDTH 600 0
DWIDTH 12 0
BBX 10 18 2 -4
BITMAP
FFC0
FFC0
C000
E000
7000
3800
1C00
0E00
0700
0700
0E00
1C00
3800
7000
E000
C000
FFC0
FFC0
ENDCHAR
STARTCHAR minus
ENCODING 8722
SWIDTH 600 0
DWIDTH 12 0
BBX 10 2 2 6
BITMAP
FFC0
FFC0
ENDCHAR
STARTCHAR uni2213
ENCODING 8723
SWIDTH 600 0
DWIDTH 12 0
BBX 10 14 2 0
BITMAP
FFC0
FFC0
0000
0000
0C00
0C00
0C00
0C00
FFC0
FFC0
0C00
0C00
0C00
0C00
ENDCHAR
STARTCHAR uni2214
ENCODING 8724
SWIDTH 600 0
DWIDTH 12 0
BBX 10 14 2 0
BITMAP
0C00
0C00
0000
0000
0C00
0C00
0C00
0C00
FFC0
FFC0
0C00
0C00
0C00
0C00
ENDCHAR
STARTCHAR uni2218
ENCODING 8728
SWIDTH 600 0
DWIDTH 12 0
BBX 6 8 4 2
BITMAP
30
78
FC
CC
CC
FC
78
30
ENDCHAR
STARTCHAR uni2219
ENCODING 8729
SWIDTH 600 0
DWIDTH 12 0
BBX 6 6 4 4
BITMAP
30
30
FC
FC
30
30
ENDCHAR
STARTCHAR radical
ENCODING 8730
SWIDTH 600 0
DWIDTH 12 0
BBX 10 14 2 0
BITMAP
0FC0
0FC0
0C00
0C00
0C00
0C00
0C00
0C00
CC00
EC00
7C00
3C00
0C00
0C00
ENDCHAR
STARTCHAR uni221B
ENCODING 8731
SWIDTH 600 0
DWIDTH 12 0
BBX 10 14 2 0
BITMAP
C3C0
E3C0
7300
7300
E300
E300
7300
7300
E300
C300
0F00
0F00
0300
0300
ENDCHAR
STARTCHAR uni221C
ENCODING 8732
SWIDTH 600 0
DWIDTH 12 0
BBX 10 14 2 0
BITMAP
3CC0
7CC0
ECC0
CCC0
FCC0
FCC0
0CC0
0CC0
00C0
00C0
03C0
03C0
00C0
00C0
ENDCHAR
STARTCHAR proportional
ENCODING 8733
SWIDTH 600 0
DWIDTH 12 0
BBX 10 10 2 2
BITMAP
3300
7F80
FFC0
CCC0
CC00
CC00
CCC0
FFC0
7F80
3300
ENDCHAR
STARTCHAR infinity
ENCODING 8734
SWIDTH 600 0
DWIDTH 12 0
BBX 10 10 2 2
BITMAP
3300
7F80
FFC0
CCC0
CCC0
CCC0
CCC0
FFC0
7F80
3300
ENDCHAR
STARTCHAR orthogonal
ENCODING 8735
SWIDTH 600 0
DWIDTH 12 0
BBX 10 10 2 2
BITMAP
C000
C000
C000
C000
C000
C000
C000
C000
FFC0
FFC0
ENDCHAR
STARTCHAR uni2223
ENCODING 8739
SWIDTH 600 0
DWIDTH 12 0
BBX 2 14 6 0
BITMAP
C0
C0
C0
C0
C0
C0
C0
C0
C0
C0
C0
C0
C0
C0
ENDCHAR
STARTCHAR uni2225
ENCODING 8741
SWIDTH 600 0
DWIDTH 12 0
BBX 6 14 4 0
BITMAP
CC
CC
CC
CC
CC
CC
CC
CC
CC
CC
CC
CC
CC
CC
ENDCHAR
STARTCHAR logicaland
ENCODING 8743
SWIDTH 600 0
DWIDTH 12 0
BBX 10 6 2 4
BITMAP
0C00
1E00
3F00
7380
E1C0
C0C0
ENDCHAR
STARTCHAR logicalor
ENCODING 8744
SWIDTH 600 0
DWIDTH 12 0
BBX 10 6 2 4
BITMAP
C0C0
E1C0
7380
3F00
1E00
0C00
ENDCHAR
STARTCHAR intersection
ENCODING 8745
SWIDTH 600 0
DWIDTH 12 0
BBX 10 10 2 2
BITMAP
3F00
7F80
E1C0
C0C0
C0C0
C0C0
C0C0
C0C0
C0C0
C0C0
ENDCHAR
STARTCHAR union
ENCODING 8746
SWIDTH 600 0
DWIDTH 12 0
BBX 10 10 2 2
BITMAP
C0C0
C0C0
C0C0
C0C0
C0C0
C0C0
C0C0
E1C0
7F80
3F00
ENDCHAR
STARTCHAR integral
ENCODING 8747
SWIDTH 600 0
DWIDTH 12 0
BBX 10 18 2 -4
BITMAP
0300
0780
0FC0
0CC0
0C00
0C00
0C00
0C00
0C00
0C00
0C00
0C00
0C00
0C00
CC00
FC00
7800
3000
ENDCHAR
STARTCHAR uni222E
ENCODING 8750
SWIDTH 600 0
DWIDTH 12 0
BBX 10 18 2 -4
BITMAP
0300
0780
0FC0
0CC0
0C00
0C00
3F00
7F80
EDC0
EDC0
7F80
3F00
0C00
0C00
CC00
FC00
7800
3000
ENDCHAR
STARTCHAR therefore
ENCODING 8756
SWIDTH 600 0
DWIDTH 12 0
BBX 10 10 2 2
BITMAP
0C00
0C00
0000
0000
0000
0000
0000
0000
C0C0
C0C0
ENDCHAR
STARTCHAR uni2235
ENCODING 8757
SWIDTH 600 0
DWIDTH 12 0
BBX 10 10 2 2
BITMAP
C0C0
C0C0
0000
0000
0000
0000
0000
0000
0C00
0C00
ENDCHAR
STARTCHAR uni2238
ENCODING 8760
SWIDTH 600 0
DWIDTH 12 0
BBX 10 6 2 6
BITMAP
0C00
0C00
0000
0000
FFC0
FFC0
ENDCHAR
STARTCHAR uni223A
ENCODING 8762
SWIDTH 600 0
DWIDTH 12 0
BBX 10 10 2 2
BITMAP
C0C0
C0C0
0000
0000
FFC0
FFC0
0000
0000
C0C0
C0C0
ENDCHAR
STARTCHAR similar
ENCODING 8764
SWIDTH 600 0
DWIDTH 12 0
BBX 10 6 2 4
BITMAP
3000
7800
FCC0
CFC0
0780
0300
ENDCHAR
STARTCHAR uni223D
ENCODING 8765
SWIDTH 600 0
DWIDTH 12 0
BBX 10 6 2 4
BITMAP
0300
0780
CFC0
FCC0
7800
3000
ENDCHAR
STARTCHAR uni223F
ENCODING 8767
SWIDTH 600 0
DWIDTH 12 0
BBX 10 10 2 2
BITMAP
3000
7800
FC00
CC00
CCC0
CCC0
0CC0
0FC0
0780
0300
ENDCHAR
STARTCHAR uni2242
ENCODING 8770
SWIDTH 600 0
DWIDTH 12 0
BBX 10 10 2 2
BITMAP
FFC0
FFC0
0000
0000
3000
7800
FCC0
CFC0
0780
0300
ENDCHAR
STARTCHAR uni2243
ENCODING 8771
SWIDTH 600 0
DWIDTH 12 0
BBX 10 10 2 2
BITMAP
3000
7800
FCC0
CFC0
0780
0300
0000
0000
FFC0
FFC0
ENDCHAR
STARTCHAR congruent
ENCODING 8773
SWIDTH 600 0
DWIDTH 12 0
BBX 10 14 2 0
BITMAP
3000
7800
FCC0
CFC0
0780
0300
0000
0000
FFC0
FFC0
0000
0000
FFC0
FFC0
ENDCHAR
STARTCHAR approxequal
ENCODING 8776
SWIDTH 600 0
DWIDTH 12 0
BBX 10 12 2 0
BITMAP
3000
7800
FCC0
CFC0
0780
0300
3000
7800
FCC0
CFC0
0780
0300
ENDCHAR
STARTCHAR uni224C
ENCODING 8780
SWIDTH 600 0
DWIDTH 12 0
BBX 10 14 2 0
BITMAP
0300
0780
CFC0
FCC0
7800
3000
0000
0000
FFC0
FFC0
0000
0000
FFC0
FFC0
ENDCHAR
STARTCHAR uni224D
ENCODING 8781
SWIDTH 600 0
DWIDTH 12 0
BBX 10 10 2 2
BITMAP
C0C0
E1C0
7F80
3F00
0000
0000
3F00
7F80
E1C0
C0C0
ENDCHAR
STARTCHAR uni224E
ENCODING 8782
SWIDTH 600 0
DWIDTH 12 0
BBX 10 10 2 2
BITMAP
0C00
1E00
FFC0
F3C0
0000
0000
F3C0
FFC0
1E00
0C00
ENDCHAR
STARTCHAR uni224F
ENCODING 8783
SWIDTH 600 0
DWIDTH 12 0
BBX 10 8 2 4
BITMAP
0C00
1E00
FFC0
F3C0
0000
0000
FFC0
FFC0
ENDCHAR
STARTCHAR uni2250
ENCODING 8784
SWIDTH 600 0
DWIDTH 12 0
BBX 10 10 2 4
BITMAP
0C00
0C00
0000
0000
FFC0
FFC0
0000
0000
FFC0
FFC0
ENDCHAR
STARTCHAR uni2251
ENCODING 8785
SWIDTH 600 0
DWIDTH 12 0
BBX 10 14 2 0
BITMAP
0C00
0C00
0000
0000
FFC0
FFC0
0000
0000
FFC0
FFC0
0000
0000
0C00
0C00
ENDCHAR
STARTCHAR uni2252
ENCODING 8786
SWIDTH 600 0
DWIDTH 12 0
BBX 10 14 2 0
BITMAP
C000
C000
0000
0000
FFC0
FFC0
0000
0000
FFC0
FFC0
0000
0000
00C0
00C0
ENDCHAR
STARTCHAR uni2253
ENCODING 8787
SWIDTH 600 0
DWIDTH 12 0
BBX 10 14 2 0
BITMAP
00C0
00C0
0000
0000
FFC0
FFC0
0000
0000
FFC0
FFC0
0000
0000
C000
C000
ENDCHAR
STARTCHAR uni2258
ENCODING 8792
SWIDTH 600 0
DWIDTH 12 0
BBX 10 12 2 2
BITMAP
3F00
7F80
E1C0
C0C0
0000
0000
FFC0
FFC0
0000
0000
FFC0
FFC0
ENDCHAR
STARTCHAR uni225E
ENCODING 8798
SWIDTH 600 0
DWIDTH 12 0
BBX 10 14 2 0
BITMAP
F300
FF80
DFC0
CCC0
CCC0
CCC0
0000
0000
FFC0
FFC0
0000
0000
FFC0
FFC0
ENDCHAR
STARTCHAR notequal
ENCODING 8800
SWIDTH 600 0
DWIDTH 12 0
BBX 10 10 2 2
BITMAP
0300
0300
FFC0
FFC0
0C00
0C00
FFC0
FFC0
3000
3000
ENDCHAR
STARTCHAR equivalence
ENCODING 8801
SWIDTH 600 0
DWIDTH 12 0
BBX 10 10 2 2
BITMAP
FFC0
FFC0
0000
0000
FFC0
FFC0
0000
0000
FFC0
FFC0
ENDCHAR
STARTCHAR uni2262
ENCODING 8802
SWIDTH 600 0
DWIDTH 12 0
BBX 10 14 2 0
BITMAP
0300
0300
FFC0
FFC0
0C00
0C00
FFC0
FFC0
0C00
0C00
FFC0
FFC0
3000
3000
ENDCHAR
STARTCHAR lessequal
ENCODING 8804
SWIDTH 600 0
DWIDTH 12 0
BBX 10 14 2 0
BITMAP
03C0
07C0
3E00
7C00
E000
E000
7C00
3E00
07C0
03C0
F000
F800
1FC0
0FC0
ENDCHAR
STARTCHAR greaterequal
ENCODING 8805
SWIDTH 600 0
DWIDTH 12 0
BBX 10 14 2 0
BITMAP
F000
F800
1F00
0F80
01C0
01C0
0F80
1F00
F800
F000
03C0
07C0
FE00
FC00
ENDCHAR
STARTCHAR uni226C
ENCODING 8812
SWIDTH 600 0
DWIDTH 12 0
BBX 6 14 4 0
BITMAP
CC
FC
78
78
FC
CC
CC
CC
CC
FC
78
78
FC
CC
ENDCHAR
STARTCHAR propersubset
ENCODING 8834
SWIDTH 600 0
DWIDTH 12 0
BBX 10 10 2 2
BITMAP
3FC0
7FC0
E000
C000
C000
C000
C000
E000
7FC0
3FC0
ENDCHAR
STARTCHAR propersuperset
ENCODING 8835
SWIDTH 600 0
DWIDTH 12 0
BBX 10 10 2 2
BITMAP
FF00
FF80
01C0
00C0
00C0
00C0
00C0
01C0
FF80
FF00
ENDCHAR
STARTCHAR reflexsubset
ENCODING 8838
SWIDTH 600 0
DWIDTH 12 0
BBX 10 14 2 0
BITMAP
3FC0
7FC0
E000
C000
C000
C000
C000
E000
7FC0
3FC0
0000
0000
FFC0
FFC0
ENDCHAR
STARTCHAR reflexsuperset
ENCODING 8839
SWIDTH 600 0
DWIDTH 12 0
BBX 10 14 2 0
BITMAP
FF00
FF80
01C0
00C0
00C0
00C0
00C0
01C0
FF80
FF00
0000
0000
FFC0
FFC0
ENDCHAR
STARTCHAR uni228D
ENCODING 8845
SWIDTH 600 0
DWIDTH 12 0
BBX 10 10 2 2
BITMAP
C0C0
C0C0
C0C0
C0C0
CCC0
CCC0
C0C0
E1C0
7F80
3F00
ENDCHAR
STARTCHAR uni228F
ENCODING 8847
SWIDTH 600 0
DWIDTH 12 0
BBX 10 10 2 2
BITMAP
FFC0
FFC0
C000
C000
C000
C000
C000
C000
FFC0
FFC0
ENDCHAR
STARTCHAR uni2290
ENCODING 8848
SWIDTH 600 0
DWIDTH 12 0
BBX 10 10 2 2
BITMAP
FFC0
FFC0
00C0
00C0
00C0
00C0
00C0
00C0
FFC0
FFC0
ENDCHAR
STARTCHAR uni2291
ENCODING 8849
SWIDTH 600 0
DWIDTH 12 0
BBX 10 14 2 0
BITMAP
FFC0
FFC0
C000
C000
C000
C000
C000
C000
FFC0
FFC0
0000
0000
FFC0
FFC0
ENDCHAR
STARTCHAR uni2292
ENCODING 8850
SWIDTH 600 0
DWIDTH 12 0
BBX 10 14 2 0
BITMAP
FFC0
FFC0
00C0
00C0
00C0
00C0
00C0
00C0
FFC0
FFC0
0000
0000
FFC0
FFC0
ENDCHAR
STARTCHAR uni2293
ENCODING 8851
SWIDTH 600 0
DWIDTH 12 0
BBX 10 10 2 2
BITMAP
FFC0
FFC0
C0C0
C0C0
C0C0
C0C0
C0C0
C0C0
C0C0
C0C0
ENDCHAR
STARTCHAR uni2294
ENCODING 8852
SWIDTH 600 0
DWIDTH 12 0
BBX 10 10 2 2
BITMAP
C0C0
C0C0
C0C0
C0C0
C0C0
C0C0
C0C0
C0C0
FFC0
FFC0
ENDCHAR
STARTCHAR circleplus
ENCODING 8853
SWIDTH 600 0
DWIDTH 12 0
BBX 10 10 2 2
BITMAP
3F00
7F80
EDC0
CCC0
FFC0
FFC0
CCC0
EDC0
7F80
3F00
ENDCHAR
STARTCHAR uni2296
ENCODING 8854
SWIDTH 600 0
DWIDTH 12 0
BBX 10 10 2 2
BITMAP
3F00
7F80
E1C0
C0C0
FFC0
FFC0
C0C0
E1C0
7F80
3F00
ENDCHAR
STARTCHAR uni2299
ENCODING 8857
SWIDTH 600 0
DWIDTH 12 0
BBX 10 10 2 2
BITMAP
3F00
7F80
E1C0
C0C0
CCC0
CCC0
C0C0
E1C0
7F80
3F00
ENDCHAR
STARTCHAR uni229E
ENCODING 8862
SWIDTH 600 0
DWIDTH 12 0
BBX 10 10 2 2
BITMAP
FFC0
FFC0
CCC0
CCC0
FFC0
FFC0
CCC0
CCC0
FFC0
FFC0
ENDCHAR
STARTCHAR uni229F
ENCODING 8863
SWIDTH 600 0
DWIDTH 12 0
BBX 10 10 2 2
BITMAP
FFC0
FFC0
C0C0
C0C0
FFC0
FFC0
C0C0
C0C0
FFC0
FFC0
ENDCHAR
STARTCHAR uni22A1
ENCODING 8865
SWIDTH 600 0
DWIDTH 12 0
BBX 10 10 2 2
BITMAP
FFC0
FFC0
C0C0
C0C0
CCC0
CCC0
C0C0
C0C0
FFC0
FFC0
ENDCHAR
STARTCHAR uni22A2
ENCODING 8866
SWIDTH 600 0
DWIDTH 12 0
BBX 10 10 2 2
BITMAP
C000
C000
C000
C000
FFC0
FFC0
C000
C000
C000
C000
ENDCHAR
STARTCHAR uni22A3
ENCODING 8867
SWIDTH 600 0
DWIDTH 12 0
BBX 10 10 2 2
BITMAP
00C0
00C0
00C0
00C0
FFC0
FFC0
00C0
00C0
00C0
00C0
ENDCHAR
STARTCHAR uni22A4
ENCODING 8868
SWIDTH 600 0
DWIDTH 12 0
BBX 10 10 2 2
BITMAP
FFC0
FFC0
0C00
0C00
0C00
0C00
0C00
0C00
0C00
0C00
ENDCHAR
STARTCHAR perpendicular
ENCODING 8869
SWIDTH 600 0
DWIDTH 12 0
BBX 10 10 2 2
BITMAP
0C00
0C00
0C00
0C00
0C00
0C00
0C00
0C00
FFC0
FFC0
ENDCHAR
STARTCHAR uni22A6
ENCODING 8870
SWIDTH 600 0
DWIDTH 12 0
BBX 6 10 4 2
BITMAP
C0
C0
C0
C0
FC
FC
C0
C0
C0
C0
ENDCHAR
STARTCHAR uni22A7
ENCODING 8871
SWIDTH 600 0
DWIDTH 12 0
BBX 6 10 4 2
BITMAP
C0
C0
FC
FC
C0
C0
FC
FC
C0
C0
ENDCHAR
STARTCHAR uni22A8
ENCODING 8872
SWIDTH 600 0
DWIDTH 12 0
BBX 10 10 2 2
BITMAP
C000
C000
FFC0
FFC0
C000
C000
FFC0
FFC0
C000
C000
ENDCHAR
STARTCHAR uni22A9
ENCODING 8873
SWIDTH 600 0
DWIDTH 12 0
BBX 10 10 2 2
BITMAP
CC00
CC00
CC00
CC00
CFC0
CFC0
CC00
CC00
CC00
CC00
ENDCHAR
STARTCHAR uni22AB
ENCODING 8875
SWIDTH 600 0
DWIDTH 12 0
BBX 10 10 2 2
BITMAP
CC00
CC00
CFC0
CFC0
CC00
CC00
CFC0
CFC0
CC00
CC00
ENDCHAR
STARTCHAR uni22C2
ENCODING 8898
SWIDTH 600 0
DWIDTH 12 0
BBX 10 18 2 -4
BITMAP
3F00
7F80
E1C0
C0C0
C0C0
C0C0
C0C0
C0C0
C0C0
C0C0
C0C0
C0C0
C0C0
C0C0
C0C0
C0C0
C0C0
C0C0
ENDCHAR
STARTCHAR uni22C3
ENCODING 8899
SWIDTH 600 0
DWIDTH 12 0
BBX 10 18 2 -4
BITMAP
C0C0
C0C0
C0C0
C0C0
C0C0
C0C0
C0C0
C0C0
C0C0
C0C0
C0C0
C0C0
C0C0
C0C0
C0C0
E1C0
7F80
3F00
ENDCHAR
STARTCHAR uni22C4
ENCODING 8900
SWIDTH 600 0
DWIDTH 12 0
BBX 10 10 2 2
BITMAP
0C00
1E00
3F00
7380
E1C0
E1C0
7380
3F00
1E00
0C00
ENDCHAR
STARTCHAR uni22CB
ENCODING 8907
SWIDTH 600 0
DWIDTH 12 0
BBX 10 10 2 2
BITMAP
C000
E000
7000
3800
1C00
1E00
3F00
7380
E1C0
C0C0
ENDCHAR
STARTCHAR uni22CC
ENCODING 8908
SWIDTH 600 0
DWIDTH 12 0
BBX 10 10 2 2
BITMAP
00C0
01C0
0380
0700
0E00
1E00
3F00
7380
E1C0
C0C0
ENDCHAR
STARTCHAR uni22CD
ENCODING 8909
SWIDTH 600 0
DWIDTH 12 0
BBX 10 10 2 2
BITMAP
0300
0780
CFC0
FCC0
7800
3000
0000
0000
FFC0
FFC0
ENDCHAR
STARTCHAR uni22D4
ENCODING 8916
SWIDTH 600 0
DWIDTH 12 0
BBX 10 14 2 0
BITMAP
0C00
0C00
0C00
0C00
3F00
7F80
EDC0
CCC0
CCC0
CCC0
CCC0
CCC0
CCC0
CCC0
ENDCHAR
STARTCHAR uni22DC
ENCODING 8924
SWIDTH 600 0
DWIDTH 12 0
BBX 10 14 2 0
BITMAP
0FC0
1FC0
F800
F000
03C0
07C0
3E00
7C00
E000
E000
7C00
3E00
07C0
03C0
ENDCHAR
STARTCHAR uni22DD
ENCODING 8925
SWIDTH 600 0
DWIDTH 12 0
BBX 10 14 2 0
BITMAP
FC00
FE00
07C0
03C0
F000
F800
1F00
0F80
01C0
01C0
0F80
1F00
F800
F000
ENDCHAR
STARTCHAR uni22EE
ENCODING 8942
SWIDTH 600 0
DWIDTH 12 0
BBX 2 10 6 2
BITMAP
C0
C0
00
00
C0
C0
00
00
C0
C0
ENDCHAR
STARTCHAR uni22EF
ENCODING 8943
SWIDTH 600 0
DWIDTH 12 0
BBX 10 2 2 6
BITMAP
CCC0
CCC0
ENDCHAR
STARTCHAR uni22F0
ENCODING 8944
SWIDTH 600 0
DWIDTH 12 0
BBX 10 10 2 2
BITMAP
00C0
00C0
0000
0000
0C00
0C00
0000
0000
C000
C000
ENDCHAR
STARTCHAR uni22F1
ENCODING 8945
SWIDTH 600 0
DWIDTH 12 0
BBX 10 10 2 2
BITMAP
C000
C000
0000
0000
0C00
0C00
0000
0000
00C0
00C0
ENDCHAR
STARTCHAR uni22F7
ENCODING 8951
SWIDTH 600 0
DWIDTH 12 0
BBX 10 14 2 0
BITMAP
FFC0
FFC0
0000
0000
3FC0
7FC0
E000
C000
FFC0
FFC0
C000
E000
7FC0
3FC0
ENDCHAR
STARTCHAR uni22F8
ENCODING 8952
SWIDTH 600 0
DWIDTH 12 0
BBX 10 18 2 -4
BITMAP
3FC0
7FC0
E000
C000
C000
C000
FFC0
FFC0
C000
C000
C000
E000
7FC0
3FC0
0000
0000
FFC0
FFC0
ENDCHAR
STARTCHAR uni22FE
ENCODING 8958
SWIDTH 600 0
DWIDTH 12 0
BBX 10 14 2 0
BITMAP
FFC0
FFC0
0000
0000
FF00
FF80
01C0
00C0
FFC0
FFC0
00C0
01C0
FF80
FF00
ENDCHAR
STARTCHAR house
ENCODING 8962
SWIDTH 600 0
DWIDTH 12 0
BBX 10 14 2 0
BITMAP
0C00
1E00
3F00
7380
E1C0
C0C0
C0C0
C0C0
C0C0
C0C0
C0C0
C0C0
FFC0
FFC0
ENDCHAR
STARTCHAR uni2308
ENCODING 8968
SWIDTH 600 0
DWIDTH 12 0
BBX 6 14 4 0
BITMAP
FC
FC
C0
C0
C0
C0
C0
C0
C0
C0
C0
C0
C0
C0
ENDCHAR
STARTCHAR uni2309
ENCODING 8969
SWIDTH 600 0
DWIDTH 12 0
BBX 6 14 4 0
BITMAP
FC
FC
0C
0C
0C
0C
0C
0C
0C
0C
0C
0C
0C
0C
ENDCHAR
STARTCHAR uni230A
ENCODING 8970
SWIDTH 600 0
DWIDTH 12 0
BBX 6 14 4 0
BITMAP
C0
C0
C0
C0
C0
C0
C0
C0
C0
C0
C0
C0
FC
FC
ENDCHAR
STARTCHAR uni230B
ENCODING 8971
SWIDTH 600 0
DWIDTH 12 0
BBX 6 14 4 0
BITMAP
0C
0C
0C
0C
0C
0C
0C
0C
0C
0C
0C
0C
FC
FC
ENDCHAR
STARTCHAR revlogicalnot
ENCODING 8976
SWIDTH 600 0
DWIDTH 12 0
BBX 10 6 2 4
BITMAP
FFC0
FFC0
C000
C000
C000
C000
ENDCHAR
STARTCHAR integraltp
ENCODING 8992
SWIDTH 600 0
DWIDTH 12 0
BBX 6 14 6 -4
BITMAP
30
78
FC
CC
C0
C0
C0
C0
C0
C0
C0
C0
C0
C0
ENDCHAR
STARTCHAR integralbt
ENCODING 8993
SWIDTH 600 0
DWIDTH 12 0
BBX 6 14 2 0
BITMAP
0C
0C
0C
0C
0C
0C
0C
0C
0C
0C
CC
FC
78
30
ENDCHAR
STARTCHAR uni2336
ENCODING 9014
SWIDTH 600 0
DWIDTH 12 0
BBX 10 10 2 2
BITMAP
FFC0
FFC0
0C00
0C00
0C00
0C00
0C00
0C00
FFC0
FFC0
ENDCHAR
STARTCHAR uni2337
ENCODING 9015
SWIDTH 600 0
DWIDTH 12 0
BBX 6 14 4 0
BITMAP
FC
FC
CC
CC
CC
CC
CC
CC
CC
CC
CC
CC
FC
FC
ENDCHAR
STARTCHAR uni2338
ENCODING 9016
SWIDTH 600 0
DWIDTH 12 0
BBX 10 14 2 0
BITMAP
FFC0
FFC0
C0C0
C0C0
FFC0
FFC0
C0C0
C0C0
FFC0
FFC0
C0C0
C0C0
FFC0
FFC0
ENDCHAR
STARTCHAR uni2339
ENCODING 9017
SWIDTH 600 0
DWIDTH 12 0
BBX 10 14 2 0
BITMAP
FFC0
FFC0
CCC0
CCC0
C0C0
C0C0
FFC0
FFC0
C0C0
C0C0
CCC0
CCC0
FFC0
FFC0
ENDCHAR
STARTCHAR uni233A
ENCODING 9018
SWIDTH 600 0
DWIDTH 12 0
BBX 10 14 2 0
BITMAP
FFC0
FFC0
CCC0
DEC0
FFC0
F3C0
C0C0
C0C0
F3C0
FFC0
DEC0
CCC0
FFC0
FFC0
ENDCHAR
STARTCHAR uni233B
ENCODING 9019
SWIDTH 600 0
DWIDTH 12 0
BBX 10 14 2 0
BITMAP
FFC0
FFC0
C0C0
C0C0
CCC0
DEC0
FFC0
FFC0
DEC0
CCC0
C0C0
C0C0
FFC0
FFC0
ENDCHAR
STARTCHAR uni233D
ENCODING 9021
SWIDTH 600 0
DWIDTH 12 0
BBX 10 14 2 0
BITMAP
0C00
0C00
3F00
7F80
EDC0
CCC0
CCC0
CCC0
CCC0
EDC0
7F80
3F00
0C00
0C00
ENDCHAR
STARTCHAR uni233F
ENCODING 9023
SWIDTH 600 0
DWIDTH 12 0
BBX 10 10 2 2
BITMAP
00C0
01C0
3380
3F00
1E00
1E00
3F00
7300
E000
C000
ENDCHAR
STARTCHAR uni2340
ENCODING 9024
SWIDTH 600 0
DWIDTH 12 0
BBX 10 10 2 2
BITMAP
C000
E000
7300
3F00
1E00
1E00
3F00
3380
01C0
00C0
ENDCHAR
STARTCHAR uni2341
ENCODING 9025
SWIDTH 600 0
DWIDTH 12 0
BBX 10 14 2 0
BITMAP
FFC0
FFC0
C0C0
C0C0
C3C0
C7C0
CEC0
DCC0
F8C0
F0C0
C0C0
C0C0
FFC0
FFC0
ENDCHAR
STARTCHAR uni2342
ENCODING 9026
SWIDTH 600 0
DWIDTH 12 0
BBX 10 14 2 0
BITMAP
FFC0
FFC0
C0C0
C0C0
F0C0
F8C0
DCC0
CEC0
C7C0
C3C0
C0C0
C0C0
FFC0
FFC0
ENDCHAR
STARTCHAR uni2349
ENCODING 9033
SWIDTH 600 0
DWIDTH 12 0
BBX 10 10 2 2
BITMAP
CF00
FF80
79C0
78C0
FCC0
CFC0
C780
E780
7FC0
3CC0
ENDCHAR
STARTCHAR uni234A
ENCODING 9034
SWIDTH 600 0
DWIDTH 12 0
BBX 10 14 2 0
BITMAP
0C00
0C00
0C00
0C00
0C00
0C00
0C00
0C00
FFC0
FFC0
0000
0000
FFC0
FFC0
ENDCHAR
STARTCHAR uni234B
ENCODING 9035
SWIDTH 600 0
DWIDTH 12 0
BBX 10 18 2 -4
BITMAP
0C00
0C00
0C00
1E00
3F00
3300
3300
7F80
FFC0
CCC0
CCC0
CCC0
FFC0
FFC0
0C00
0C00
0C00
0C00
ENDCHAR
STARTCHAR uni234E
ENCODING 9038
SWIDTH 600 0
DWIDTH 12 0
BBX 10 14 2 0
BITMAP
0C00
0C00
3F00
7F80
EDC0
CCC0
CCC0
EDC0
7F80
3F00
0C00
0C00
FFC0
FFC0
ENDCHAR
STARTCHAR uni2351
ENCODING 9041
SWIDTH 600 0
DWIDTH 12 0
BBX 10 14 2 0
BITMAP
FFC0
FFC0
0000
0000
FFC0
FFC0
0C00
0C00
0C00
0C00
0C00
0C00
0C00
0C00
ENDCHAR
STARTCHAR uni2352
ENCODING 9042
SWIDTH 600 0
DWIDTH 12 0
BBX 10 18 2 -4
BITMAP
0C00
0C00
0C00
0C00
FFC0
FFC0
CCC0
CCC0
CCC0
FFC0
7F80
3300
3300
3F00
1E00
0C00
0C00
0C00
ENDCHAR
STARTCHAR uni2355
ENCODING 9045
SWIDTH 600 0
DWIDTH 12 0
BBX 10 14 2 0
BITMAP
FFC0
FFC0
0C00
0C00
3F00
7F80
EDC0
CCC0
CCC0
EDC0
7F80
3F00
0C00
0C00
ENDCHAR
STARTCHAR uni2359
ENCODING 9049
SWIDTH 600 0
DWIDTH 12 0
BBX 10 18 2 -4
BITMAP
0C00
0C00
0C00
1E00
3F00
3300
3300
7380
E1C0
C0C0
C0C0
C0C0
FFC0
FFC0
0000
0000
FFC0
FFC0
ENDCHAR
STARTCHAR uni235D
ENCODING 9053
SWIDTH 600 0
DWIDTH 12 0
BBX 10 10 2 2
BITMAP
3F00
7F80
EDC0
DEC0
FFC0
FFC0
DEC0
CCC0
C0C0
C0C0
ENDCHAR
STARTCHAR uni235E
ENCODING 9054
SWIDTH 600 0
DWIDTH 12 0
BBX 10 14 2 0
BITMAP
FFC0
FFC0
CCC0
CCC0
CCC0
CCC0
C0C0
C0C0
C0C0
C0C0
C0C0
C0C0
FFC0
FFC0
ENDCHAR
STARTCHAR uni235F
ENCODING 9055
SWIDTH 600 0
DWIDTH 12 0
BBX 10 14 2 0
BITMAP
3F00
7F80
EDC0
CCC0
FFC0
FFC0
CCC0
DEC0
FFC0
F3C0
C0C0
E1C0
7F80
3F00
ENDCHAR
STARTCHAR uni2360
ENCODING 9056
SWIDTH 600 0
DWIDTH 12 0
BBX 10 14 2 0
BITMAP
FFC0
FFC0
C0C0
C0C0
CCC0
CCC0
C0C0
C0C0
CCC0
CCC0
C0C0
C0C0
FFC0
FFC0
ENDCHAR
STARTCHAR uni2363
ENCODING 9059
SWIDTH 600 0
DWIDTH 12 0
BBX 10 14 2 0
BITMAP
3300
3300
0000
0000
CCC0
EDC0
7F80
3F00
0C00
0C00
3F00
7F80
EDC0
CCC0
ENDCHAR
STARTCHAR uni2364
ENCODING 9060
SWIDTH 600 0
DWIDTH 12 0
BBX 6 12 4 2
BITMAP
CC
CC
00
00
30
78
FC
CC
CC
FC
78
30
ENDCHAR
STARTCHAR uni2368
ENCODING 9064
SWIDTH 600 0
DWIDTH 12 0
BBX 10 10 2 4
BITMAP
3300
3300
0000
0000
3000
7800
FCC0
CFC0
0780
0300
ENDCHAR
STARTCHAR uni236A
ENCODING 9066
SWIDTH 600 0
DWIDTH 12 0
BBX 10 12 2 -4
BITMAP
FFC0
FFC0
0000
0000
0000
0000
0C00
0C00
0C00
1C00
3800
3000
ENDCHAR
STARTCHAR uni236B
ENCODING 9067
SWIDTH 600 0
DWIDTH 12 0
BBX 10 14 2 0
BITMAP
FFC0
FFC0
C0C0
C0C0
C0C0
E1C0
7F80
3F00
F3C0
FFC0
1E00
0C00
0C00
0C00
ENDCHAR
STARTCHAR uni236C
ENCODING 9068
SWIDTH 600 0
DWIDTH 12 0
BBX 10 14 2 0
BITMAP
0C00
1E00
3F00
7380
E1C0
C0C0
FFC0
FFC0
C0C0
E1C0
7380
3F00
1E00
0C00
ENDCHAR
STARTCHAR uni2371
ENCODING 9073
SWIDTH 600 0
DWIDTH 12 0
BBX 10 14 2 0
BITMAP
3000
7800
FCC0
CFC0
0780
0300
0000
0000
C0C0
E1C0
7380
3F00
1E00
0C00
ENDCHAR
STARTCHAR uni2372
ENCODING 9074
SWIDTH 600 0
DWIDTH 12 0
BBX 10 14 2 0
BITMAP
3000
7800
FCC0
CFC0
0780
0300
0000
0000
0C00
1E00
3F00
7380
E1C0
C0C0
ENDCHAR
STARTCHAR uni2373
ENCODING 9075
SWIDTH 600 0
DWIDTH 12 0
BBX 6 10 4 0
BITMAP
F0
F0
30
30
30
30
30
38
1C
0C
ENDCHAR
STARTCHAR uni2374
ENCODING 9076
SWIDTH 600 0
DWIDTH 12 0
BBX 10 14 2 -4
BITMAP
3F00
7F80
E1C0
C0C0
C0C0
C0C0
C0C0
C1C0
FF80
FF00
C000
C000
C000
C000
ENDCHAR
STARTCHAR uni2375
ENCODING 9077
SWIDTH 600 0
DWIDTH 12 0
BBX 10 10 2 0
BITMAP
3300
7380
E1C0
C0C0
CCC0
CCC0
CCC0
FFC0
7F80
3300
ENDCHAR
STARTCHAR uni2376
ENCODING 9078
SWIDTH 600 0
DWIDTH 12 0
BBX 10 14 2 -4
BITMAP
3CC0
7FC0
E780
C300
C300
C300
C300
E780
7FC0
3CC0
0000
0000
FFC0
FFC0
ENDCHAR
STARTCHAR uni2377
ENCODING 9079
SWIDTH 600 0
DWIDTH 12 0
BBX 10 14 2 0
BITMAP
3FC0
7FC0
E000
C000
FFC0
FFC0
C000
E000
7FC0
3FC0
0000
0000
FFC0
FFC0
ENDCHAR
STARTCHAR uni2378
ENCODING 9080
SWIDTH 600 0
DWIDTH 12 0
BBX 10 14 2 -4
BITMAP
3C00
3C00
0C00
0C00
0C00
0C00
0C00
0E00
0700
0300
0000
0000
FFC0
FFC0
ENDCHAR
STARTCHAR uni2379
ENCODING 9081
SWIDTH 600 0
DWIDTH 12 0
BBX 10 14 2 -4
BITMAP
3300
7380
E1C0
C0C0
CCC0
CCC0
CCC0
FFC0
7F80
3300
0000
0000
FFC0
FFC0
ENDCHAR
STARTCHAR uni237A
ENCODING 9082
SWIDTH 600 0
DWIDTH 12 0
BBX 10 10 2 0
BITMAP
3CC0
7FC0
E780
C300
C300
C300
C300
E780
7FC0
3CC0
ENDCHAR
STARTCHAR uni237B
ENCODING 9083
SWIDTH 600 0
DWIDTH 12 0
BBX 10 8 2 2
BITMAP
0CC0
0FC0
0780
0780
CFC0
FCC0
7800
3000
ENDCHAR
STARTCHAR uni237D
ENCODING 9085
SWIDTH 600 0
DWIDTH 12 0
BBX 10 4 2 0
BITMAP
F3C0
F3C0
3F00
3F00
ENDCHAR
STARTCHAR uni237E
ENCODING 9086
SWIDTH 600 0
DWIDTH 12 0
BBX 10 10 2 2
BITMAP
3F00
7F80
E1C0
C0C0
FFC0
FFC0
3300
3300
F3C0
F3C0
ENDCHAR
STARTCHAR uni237F
ENCODING 9087
SWIDTH 600 0
DWIDTH 12 0
BBX 6 14 4 0
BITMAP
30
30
30
30
30
78
FC
FC
78
30
30
30
30
30
ENDCHAR
STARTCHAR uni238D
ENCODING 9101
SWIDTH 600 0
DWIDTH 12 0
BBX 10 10 2 2
BITMAP
3F00
3F00
3300
3300
3300
3300
3300
3300
F3C0
F3C0
ENDCHAR
STARTCHAR uni238E
ENCODING 9102
SWIDTH 600 0
DWIDTH 12 0
BBX 10 10 2 2
BITMAP
0FC0
1FC0
3B00
3300
3300
3300
3300
3700
FE00
FC00
ENDCHAR
STARTCHAR uni2393
ENCODING 9107
SWIDTH 600 0
DWIDTH 12 0
BBX 10 6 2 4
BITMAP
FFC0
FFC0
0000
0000
CCC0
CCC0
ENDCHAR
STARTCHAR uni2395
ENCODING 9109
SWIDTH 600 0
DWIDTH 12 0
BBX 10 14 2 0
BITMAP
FFC0
FFC0
C0C0
C0C0
C0C0
C0C0
C0C0
C0C0
C0C0
C0C0
C0C0
C0C0
FFC0
FFC0
ENDCHAR
STARTCHAR uni239B
ENCODING 9115
SWIDTH 600 0
DWIDTH 12 0
BBX 6 18 4 -4
BITMAP
0C
1C
38
70
E0
C0
C0
C0
C0
C0
C0
C0
C0
C0
C0
C0
C0
C0
ENDCHAR
STARTCHAR uni239C
ENCODING 9116
SWIDTH 600 0
DWIDTH 12 0
BBX 2 18 4 -4
BITMAP
C0
C0
C0
C0
C0
C0
C0
C0
C0
C0
C0
C0
C0
C0
C0
C0
C0
C0
ENDCHAR
STARTCHAR uni239D
ENCODING 9117
SWIDTH 600 0
DWIDTH 12 0
BBX 6 14 4 0
BITMAP
C0
C0
C0
C0
C0
C0
C0
C0
C0
E0
70
38
1C
0C
ENDCHAR
STARTCHAR uni239E
ENCODING 9118
SWIDTH 600 0
DWIDTH 12 0
BBX 6 18 4 -4
BITMAP
C0
E0
70
38
1C
0C
0C
0C
0C
0C
0C
0C
0C
0C
0C
0C
0C
0C
ENDCHAR
STARTCHAR uni239F
ENCODING 9119
SWIDTH 600 0
DWIDTH 12 0
BBX 2 18 8 -4
BITMAP
C0
C0
C0
C0
C0
C0
C0
C0
C0
C0
C0
C0
C0
C0
C0
C0
C0
C0
ENDCHAR
STARTCHAR uni23A0
ENCODING 9120
SWIDTH 600 0
DWIDTH 12 0
BBX 6 14 4 0
BITMAP
0C
0C
0C
0C
0C
0C
0C
0C
0C
1C
38
70
E0
C0
ENDCHAR
STARTCHAR uni23A1
ENCODING 9121
SWIDTH 600 0
DWIDTH 12 0
BBX 8 18 4 -4
BITMAP
FF
FF
C0
C0
C0
C0
C0
C0
C0
C0
C0
C0
C0
C0
C0
C0
C0
C0
ENDCHAR
STARTCHAR uni23A2
ENCODING 9122
SWIDTH 600 0
DWIDTH 12 0
BBX 2 18 4 -4
BITMAP
C0
C0
C0
C0
C0
C0
C0
C0
C0
C0
C0
C0
C0
C0
C0
C0
C0
C0
ENDCHAR
STARTCHAR uni23A3
ENCODING 9123
SWIDTH 600 0
DWIDTH 12 0
BBX 8 14 4 0
BITMAP
C0
C0
C0
C0
C0
C0
C0
C0
C0
C0
C0
C0
FF
FF
ENDCHAR
STARTCHAR uni23A4
ENCODING 9124
SWIDTH 600 0
DWIDTH 12 0
BBX 8 18 2 -4
BITMAP
FF
FF
03
03
03
03
03
03
03
03
03
03
03
03
03
03
03
03
ENDCHAR
STARTCHAR uni23A5
ENCODING 9125
SWIDTH 600 0
DWIDTH 12 0
BBX 2 18 8 -4
BITMAP
C0
C0
C0
C0
C0
C0
C0
C0
C0
C0
C0
C0
C0
C0
C0
C0
C0
C0
ENDCHAR
STARTCHAR uni23A6
ENCODING 9126
SWIDTH 600 0
DWIDTH 12 0
BBX 8 14 2 0
BITMAP
03
03
03
03
03
03
03
03
03
03
03
03
FF
FF
ENDCHAR
STARTCHAR uni23A7
ENCODING 9127
SWIDTH 600 0
DWIDTH 12 0
BBX 6 18 6 -4
BITMAP
3C
7C
E0
C0
C0
C0
C0
C0
C0
C0
C0
C0
C0
C0
C0
C0
C0
C0
ENDCHAR
STARTCHAR uni23A8
ENCODING 9128
SWIDTH 600 0
DWIDTH 12 0
BBX 4 18 4 -4
BITMAP
30
30
30
30
30
70
E0
E0
70
30
30
30
30
30
30
30
30
30
ENDCHAR
STARTCHAR uni23A9
ENCODING 9129
SWIDTH 600 0
DWIDTH 12 0
BBX 6 14 6 0
BITMAP
C0
C0
C0
C0
C0
C0
C0
C0
C0
C0
C0
E0
7C
3C
ENDCHAR
STARTCHAR uni23AA
ENCODING 9130
SWIDTH 600 0
DWIDTH 12 0
BBX 2 18 6 -4
BITMAP
C0
C0
C0
C0
C0
C0
C0
C0
C0
C0
C0
C0
C0
C0
C0
C0
C0
C0
ENDCHAR
STARTCHAR uni23AB
ENCODING 9131
SWIDTH 600 0
DWIDTH 12 0
BBX 6 18 2 -4
BITMAP
F0
F8
1C
0C
0C
0C
0C
0C
0C
0C
0C
0C
0C
0C
0C
0C
0C
0C
ENDCHAR
STARTCHAR uni23AC
ENCODING 9132
SWIDTH 600 0
DWIDTH 12 0
BBX 4 18 6 -4
BITMAP
C0
C0
C0
C0
C0
E0
70
70
E0
C0
C0
C0
C0
C0
C0
C0
C0
C0
ENDCHAR
STARTCHAR uni23AD
ENCODING 9133
SWIDTH 600 0
DWIDTH 12 0
BBX 6 14 2 0
BITMAP
0C
0C
0C
0C
0C
0C
0C
0C
0C
0C
0C
1C
F8
F0
ENDCHAR
STARTCHAR uni23AE
ENCODING 9134
SWIDTH 600 0
DWIDTH 12 0
BBX 2 18 6 -4
BITMAP
C0
C0
C0
C0
C0
C0
C0
C0
C0
C0
C0
C0
C0
C0
C0
C0
C0
C0
ENDCHAR
STARTCHAR uni23B0
ENCODING 9136
SWIDTH 600 0
DWIDTH 12 0
BBX 10 18 2 -4
BITMAP
03C0
07C0
0E00
0C00
0C00
0C00
0C00
0C00
0C00
0C00
0C00
0C00
0C00
0C00
0C00
1C00
F800
F000
ENDCHAR
STARTCHAR uni23B1
ENCODING 9137
SWIDTH 600 0
DWIDTH 12 0
BBX 10 18 2 -4
BITMAP
F000
F800
1C00
0C00
0C00
0C00
0C00
0C00
0C00
0C00
0C00
0C00
0C00
0C00
0C00
0E00
07C0
03C0
ENDCHAR
STARTCHAR uni23B2
ENCODING 9138
SWIDTH 600 0
DWIDTH 12 0
BBX 10 18 2 -4
BITMAP
FFC0
FFC0
C000
E000
7000
3000
3000
3800
1C00
0C00
0C00
0E00
0700
0300
0300
0380
01C0
00C0
ENDCHAR
STARTCHAR uni23B3
ENCODING 9139
SWIDTH 600 0
DWIDTH 12 0
BBX 10 18 2 -4
BITMAP
00C0
01C0
0380
0300
0300
0700
0E00
0C00
0C00
1C00
3800
3000
3000
7000
E000
C000
FFC0
FFC0
ENDCHAR
STARTCHAR uni23BA
ENCODING 9146
SWIDTH 600 0
DWIDTH 12 0
BBX 10 2 2 12
BITMAP
FFC0
FFC0
ENDCHAR
STARTCHAR uni23BB
ENCODING 9147
SWIDTH 600 0
DWIDTH 12 0
BBX 10 2 2 8
BITMAP
FFC0
FFC0
ENDCHAR
STARTCHAR uni23BC
ENCODING 9148
SWIDTH 600 0
DWIDTH 12 0
BBX 10 2 2 0
BITMAP
FFC0
FFC0
ENDCHAR
STARTCHAR uni23BD
ENCODING 9149
SWIDTH 600 0
DWIDTH 12 0
BBX 10 2 2 -4
BITMAP
FFC0
FFC0
ENDCHAR
STARTCHAR uni23DA
ENCODING 9178
SWIDTH 600 0
DWIDTH 12 0
BBX 10 14 2 0
BITMAP
0C00
0C00
0C00
0C00
FFC0
FFC0
0000
0000
3F00
3F00
0000
0000
0C00
0C00
ENDCHAR
STARTCHAR uni2400
ENCODING 9216
SWIDTH 600 0
DWIDTH 12 0
BBX 10 18 2 -4
BITMAP
F300
FB00
DF00
CF00
C300
C300
C300
C300
0000
0000
30C0
30C0
30C0
30C0
30C0
39C0
1F80
0F00
ENDCHAR
STARTCHAR uni2401
ENCODING 9217
SWIDTH 600 0
DWIDTH 12 0
BBX 10 18 2 -4
BITMAP
3000
7000
E000
E000
7000
7000
E000
C000
0CC0
0CC0
0CC0
0CC0
0FC0
0FC0
0CC0
0CC0
0CC0
0CC0
ENDCHAR
STARTCHAR uni2402
ENCODING 9218
SWIDTH 600 0
DWIDTH 12 0
BBX 10 18 2 -4
BITMAP
3000
7000
E000
E000
7000
7000
E000
C000
0CC0
0CC0
0CC0
0FC0
0780
0780
0FC0
0CC0
0CC0
0CC0
ENDCHAR
STARTCHAR uni2403
ENCODING 9219
SWIDTH 600 0
DWIDTH 12 0
BBX 10 18 2 -4
BITMAP
FC00
FC00
C000
C000
F000
F000
C000
C000
FCC0
FCC0
0CC0
0FC0
0780
0780
0FC0
0CC0
0CC0
0CC0
ENDCHAR
STARTCHAR uni2404
ENCODING 9220
SWIDTH 600 0
DWIDTH 12 0
BBX 10 18 2 -4
BITMAP
FC00
FC00
C000
C000
F000
F000
C000
C000
FFC0
FFC0
0300
0300
0300
0300
0300
0300
0300
0300
ENDCHAR
STARTCHAR uni2405
ENCODING 9221
SWIDTH 600 0
DWIDTH 12 0
BBX 10 18 2 -4
BITMAP
FC00
FC00
C000
C000
F000
F000
C300
C780
FFC0
FCC0
0CC0
0CC0
0CC0
0FC0
0780
0380
01C0
00C0
ENDCHAR
STARTCHAR uni2406
ENCODING 9222
SWIDTH 600 0
DWIDTH 12 0
BBX 10 18 2 -4
BITMAP
3000
7800
FC00
CC00
FC00
FC00
CC00
CC00
CCC0
CCC0
0CC0
0DC0
0F80
0F80
0DC0
0CC0
0CC0
0CC0
ENDCHAR
STARTCHAR uni2407
ENCODING 9223
SWIDTH 600 0
DWIDTH 12 0
BBX 10 18 2 -4
BITMAP
F000
F800
DC00
DC00
F800
F800
DC00
DC00
F800
F000
0300
0300
0300
0300
0300
0300
03C0
03C0
ENDCHAR
STARTCHAR uni2408
ENCODING 9224
SWIDTH 600 0
DWIDTH 12 0
BBX 10 18 2 -4
BITMAP
F000
F800
DC00
DC00
F800
F800
DC00
DC00
F800
F000
00C0
01C0
0380
0380
01C0
01C0
0380
0300
ENDCHAR
STARTCHAR uni2409
ENCODING 9225
SWIDTH 600 0
DWIDTH 12 0
BBX 10 18 2 -4
BITMAP
CC00
CC00
CC00
CC00
FC00
FC00
CC00
CC00
CFC0
CFC0
0300
0300
0300
0300
0300
0300
0300
0300
ENDCHAR
STARTCHAR uni240A
ENCODING 9226
SWIDTH 600 0
DWIDTH 12 0
BBX 10 18 2 -4
BITMAP
C000
C000
C000
C000
C000
C000
C000
C000
FFC0
FFC0
0C00
0C00
0F00
0F00
0C00
0C00
0C00
0C00
ENDCHAR
STARTCHAR uni240B
ENCODING 9227
SWIDTH 600 0
DWIDTH 12 0
BBX 10 18 2 -4
BITMAP
CC00
CC00
CC00
CC00
CC00
FC00
7800
3000
3FC0
3FC0
0300
0300
0300
0300
0300
0300
0300
0300
ENDCHAR
STARTCHAR uni240C
ENCODING 9228
SWIDTH 600 0
DWIDTH 12 0
BBX 10 18 2 -4
BITMAP
FC00
FC00
C000
C000
F000
F000
C000
C000
CFC0
CFC0
0C00
0C00
0F00
0F00
0C00
0C00
0C00
0C00
ENDCHAR
STARTCHAR uni240D
ENCODING 9229
SWIDTH 600 0
DWIDTH 12 0
BBX 10 18 2 -4
BITMAP
3C00
7C00
E000
C000
C000
C000
C000
E000
7F00
3F80
0DC0
0DC0
0F80
0F80
0DC0
0CC0
0CC0
0CC0
ENDCHAR
STARTCHAR uni240E
ENCODING 9230
SWIDTH 600 0
DWIDTH 12 0
BBX 10 18 2 -4
BITMAP
3C00
7C00
E000
E000
7000
3800
1C00
1C00
F800
F000
0300
0780
0FC0
0CC0
0CC0
0FC0
0780
0300
ENDCHAR
STARTCHAR uni240F
ENCODING 9231
SWIDTH 600 0
DWIDTH 12 0
BBX 10 18 2 -4
BITMAP
3C00
7C00
E000
E000
7000
3800
1C00
1C00
F8C0
F0C0
00C0
00C0
00C0
00C0
00C0
00C0
00C0
00C0
ENDCHAR
STARTCHAR uni2410
ENCODING 9232
SWIDTH 600 0
DWIDTH 12 0
BBX 10 18 2 -4
BITMAP
F000
F800
DC00
CC00
CC00
CC00
CC00
DC00
F800
F000
0300
0300
0300
0300
0300
0300
03C0
03C0
ENDCHAR
STARTCHAR uni2411
ENCODING 9233
SWIDTH 600 0
DWIDTH 12 0
BBX 10 18 2 -4
BITMAP
F000
F800
DC00
CC00
CC00
CC00
CC00
DC00
F8C0
F0C0
00C0
00C0
00C0
00C0
00C0
00C0
00C0
00C0
ENDCHAR
STARTCHAR uni2412
ENCODING 9234
SWIDTH 600 0
DWIDTH 12 0
BBX 10 18 2 -4
BITMAP
F000
F800
DC00
CC00
CC00
CC00
CC00
DC00
F800
F000
0300
0380
01C0
01C0
0380
0300
03C0
03C0
ENDCHAR
STARTCHAR uni2413
ENCODING 9235
SWIDTH 600 0
DWIDTH 12 0
BBX 10 18 2 -4
BITMAP
F000
F800
DC00
CC00
CC00
DC00
F800
F000
0300
0380
01C0
01C0
0380
0380
01C0
01C0
0380
0300
ENDCHAR
STARTCHAR uni2414
ENCODING 9236
SWIDTH 600 0
DWIDTH 12 0
BBX 10 18 2 -4
BITMAP
F000
F800
DC00
CC00
CC00
CC00
CC00
DC00
F8C0
F0C0
03C0
07C0
0EC0
0CC0
0FC0
0FC0
00C0
00C0
ENDCHAR
STARTCHAR uni2415
ENCODING 9237
SWIDTH 600 0
DWIDTH 12 0
BBX 10 18 2 -4
BITMAP
F300
FB00
DF00
CF00
C300
C300
C300
C300
0000
0000
0CC0
0DC0
0F80
0F80
0DC0
0CC0
0CC0
0CC0
ENDCHAR
STARTCHAR uni2416
ENCODING 9238
SWIDTH 600 0
DWIDTH 12 0
BBX 10 18 2 -4
BITMAP
3000
7000
E000
E000
7000
7000
E000
C000
0CC0
0CC0
0CC0
0FC0
0780
0300
0300
0300
0300
0300
ENDCHAR
STARTCHAR uni2417
ENCODING 9239
SWIDTH 600 0
DWIDTH 12 0
BBX 10 18 2 -4
BITMAP
FC00
FC00
C000
C000
F000
F000
C000
C000
FF00
FF80
0DC0
0DC0
0F80
0F80
0DC0
0DC0
0F80
0F00
ENDCHAR
STARTCHAR uni2418
ENCODING 9240
SWIDTH 600 0
DWIDTH 12 0
BBX 10 18 2 -4
BITMAP
3C00
7C00
E000
C000
C000
E000
7C00
3C00
0000
0000
3CC0
3EC0
37C0
33C0
30C0
30C0
30C0
30C0
ENDCHAR
STARTCHAR uni2419
ENCODING 9241
SWIDTH 600 0
DWIDTH 12 0
BBX 10 18 2 -4
BITMAP
FC00
FC00
C000
C000
F000
F000
C000
C000
FC00
FC00
0000
0000
F3C0
FFC0
DEC0
CCC0
C0C0
C0C0
ENDCHAR
STARTCHAR uni241A
ENCODING 9242
SWIDTH 600 0
DWIDTH 12 0
BBX 10 18 2 -4
BITMAP
3000
7000
E000
E000
7000
7000
E000
C000
0F00
0F80
0DC0
0DC0
0F80
0F80
0DC0
0DC0
0F80
0F00
ENDCHAR
STARTCHAR uni241B
ENCODING 9243
SWIDTH 600 0
DWIDTH 12 0
BBX 10 18 2 -4
BITMAP
F000
F000
C000
C000
F000
F000
C000
C000
F000
F000
03C0
07C0
0E00
0C00
0C00
0E00
07C0
03C0
ENDCHAR
STARTCHAR uni241C
ENCODING 9244
SWIDTH 600 0
DWIDTH 12 0
BBX 10 18 2 -4
BITMAP
FC00
FC00
C000
C000
F000
F000
C000
C000
C3C0
C7C0
0E00
0E00
0700
0380
01C0
01C0
0F80
0F00
ENDCHAR
STARTCHAR uni241D
ENCODING 9245
SWIDTH 600 0
DWIDTH 12 0
BBX 10 18 2 -4
BITMAP
3C00
7C00
E000
C000
C000
C000
CC00
EC00
7C00
3C00
00C0
01C0
0380
0380
01C0
01C0
0380
0300
ENDCHAR
STARTCHAR uni241E
ENCODING 9246
SWIDTH 600 0
DWIDTH 12 0
BBX 10 18 2 -4
BITMAP
F000
F800
DC00
DC00
F800
F800
DC00
CC00
CC00
CC00
00C0
01C0
0380
0380
01C0
01C0
0380
0300
ENDCHAR
STARTCHAR uni241F
ENCODING 9247
SWIDTH 600 0
DWIDTH 12 0
BBX 10 18 2 -4
BITMAP
C300
C300
C300
E700
7E00
3C00
0000
0000
03C0
07C0
0E00
0E00
0700
0380
01C0
01C0
0F80
0F00
ENDCHAR
STARTCHAR uni2420
ENCODING 9248
SWIDTH 600 0
DWIDTH 12 0
BBX 10 18 2 -4
BITMAP
3000
7000
E000
E000
7000
7000
E000
C000
0F00
0F80
0DC0
0DC0
0F80
0F00
0C00
0C00
0C00
0C00
ENDCHAR
STARTCHAR uni2421
ENCODING 9249
SWIDTH 600 0
DWIDTH 12 0
BBX 10 18 2 -4
BITMAP
F000
F800
DC00
CC00
CC00
DC00
F800
F000
0000
0000
0FC0
0FC0
0300
0300
0300
0300
0300
0300
ENDCHAR
STARTCHAR uni2423
ENCODING 9251
SWIDTH 600 0
DWIDTH 12 0
BBX 10 4 2 0
BITMAP
C0C0
C0C0
FFC0
FFC0
ENDCHAR
STARTCHAR uni2424
ENCODING 9252
SWIDTH 600 0
DWIDTH 12 0
BBX 10 18 2 -4
BITMAP
F300
FB00
DF00
CF00
C300
C300
C300
C300
0000
0000
0C00
0C00
0C00
0C00
0C00
0C00
0FC0
0FC0
ENDCHAR
STARTCHAR uni2425
ENCODING 9253
SWIDTH 600 0
DWIDTH 12 0
BBX 10 14 2 0
BITMAP
0C00
1C00
38C0
71C0
E380
C700
0E00
1C00
38C0
71C0
E380
C700
0E00
0C00
ENDCHAR
STARTCHAR uni2426
ENCODING 9254
SWIDTH 600 0
DWIDTH 12 0
BBX 10 14 2 0
BITMAP
3F00
7F80
E1C0
E0C0
7000
3800
1C00
0C00
0C00
0C00
0000
0000
0C00
0C00
ENDCHAR
STARTCHAR SF100000
ENCODING 9472
SWIDTH 600 0
DWIDTH 12 0
BBX 10 2 2 4
BITMAP
FFC0
FFC0
ENDCHAR
STARTCHAR uni2501
ENCODING 9473
SWIDTH 600 0
DWIDTH 12 0
BBX 10 6 2 2
BITMAP
FFC0
FFC0
FFC0
FFC0
FFC0
FFC0
ENDCHAR
STARTCHAR SF110000
ENCODING 9474
SWIDTH 600 0
DWIDTH 12 0
BBX 2 18 6 -4
BITMAP
C0
C0
C0
C0
C0
C0
C0
C0
C0
C0
C0
C0
C0
C0
C0
C0
C0
C0
ENDCHAR
STARTCHAR uni2503
ENCODING 9475
SWIDTH 600 0
DWIDTH 12 0
BBX 6 18 4 -4
BITMAP
FC
FC
FC
FC
FC
FC
FC
FC
FC
FC
FC
FC
FC
FC
FC
FC
FC
FC
ENDCHAR
STARTCHAR uni2504
ENCODING 9476
SWIDTH 600 0
DWIDTH 12 0
BBX 10 2 2 4
BITMAP
CCC0
CCC0
ENDCHAR
STARTCHAR uni2505
ENCODING 9477
SWIDTH 600 0
DWIDTH 12 0
BBX 10 6 2 2
BITMAP
CCC0
CCC0
CCC0
CCC0
CCC0
CCC0
ENDCHAR
STARTCHAR uni2506
ENCODING 9478
SWIDTH 600 0
DWIDTH 12 0
BBX 2 18 6 -4
BITMAP
C0
C0
C0
C0
00
00
C0
C0
C0
C0
C0
C0
00
00
C0
C0
C0
C0
ENDCHAR
STARTCHAR uni2507
ENCODING 9479
SWIDTH 600 0
DWIDTH 12 0
BBX 6 18 4 -4
BITMAP
FC
FC
FC
FC
00
00
FC
FC
FC
FC
FC
FC
00
00
FC
FC
FC
FC
ENDCHAR
STARTCHAR uni250A
ENCODING 9482
SWIDTH 600 0
DWIDTH 12 0
BBX 2 18 6 -4
BITMAP
C0
C0
00
00
C0
C0
C0
C0
00
00
C0
C0
00
00
C0
C0
C0
C0
ENDCHAR
STARTCHAR uni250B
ENCODING 9483
SWIDTH 600 0
DWIDTH 12 0
BBX 6 18 4 -4
BITMAP
FC
FC
00
00
FC
FC
FC
FC
00
00
FC
FC
00
00
FC
FC
FC
FC
ENDCHAR
STARTCHAR SF010000
ENCODING 9484
SWIDTH 600 0
DWIDTH 12 0
BBX 6 10 6 -4
BITMAP
FC
FC
C0
C0
C0
C0
C0
C0
C0
C0
ENDCHAR
STARTCHAR uni250D
ENCODING 9485
SWIDTH 600 0
DWIDTH 12 0
BBX 6 12 6 -4
BITMAP
FC
FC
FC
FC
FC
FC
C0
C0
C0
C0
C0
C0
ENDCHAR
STARTCHAR uni250E
ENCODING 9486
SWIDTH 600 0
DWIDTH 12 0
BBX 8 10 4 -4
BITMAP
FF
FF
FC
FC
FC
FC
FC
FC
FC
FC
ENDCHAR
STARTCHAR uni250F
ENCODING 9487
SWIDTH 600 0
DWIDTH 12 0
BBX 8 12 4 -4
BITMAP
FF
FF
FF
FF
FF
FF
FC
FC
FC
FC
FC
FC
ENDCHAR
STARTCHAR SF030000
ENCODING 9488
SWIDTH 600 0
DWIDTH 12 0
BBX 6 10 2 -4
BITMAP
FC
FC
0C
0C
0C
0C
0C
0C
0C
0C
ENDCHAR
STARTCHAR uni2511
ENCODING 9489
SWIDTH 600 0
DWIDTH 12 0
BBX 6 12 2 -4
BITMAP
FC
FC
FC
FC
FC
FC
0C
0C
0C
0C
0C
0C
ENDCHAR
STARTCHAR uni2512
ENCODING 9490
SWIDTH 600 0
DWIDTH 12 0
BBX 8 10 2 -4
BITMAP
FF
FF
3F
3F
3F
3F
3F
3F
3F
3F
ENDCHAR
STARTCHAR uni2513
ENCODING 9491
SWIDTH 600 0
DWIDTH 12 0
BBX 8 12 2 -4
BITMAP
FF
FF
FF
FF
FF
FF
3F
3F
3F
3F
3F
3F
ENDCHAR
STARTCHAR SF020000
ENCODING 9492
SWIDTH 600 0
DWIDTH 12 0
BBX 6 10 6 4
BITMAP
C0
C0
C0
C0
C0
C0
C0
C0
FC
FC
ENDCHAR
STARTCHAR uni2515
ENCODING 9493
SWIDTH 600 0
DWIDTH 12 0
BBX 6 12 6 2
BITMAP
C0
C0
C0
C0
C0
C0
FC
FC
FC
FC
FC
FC
ENDCHAR
STARTCHAR uni2516
ENCODING 9494
SWIDTH 600 0
DWIDTH 12 0
BBX 8 10 4 4
BITMAP
FC
FC
FC
FC
FC
FC
FC
FC
FF
FF
ENDCHAR
STARTCHAR uni2517
ENCODING 9495
SWIDTH 600 0
DWIDTH 12 0
BBX 8 12 4 2
BITMAP
FC
FC
FC
FC
FC
FC
FF
FF
FF
FF
FF
FF
ENDCHAR
STARTCHAR SF040000
ENCODING 9496
SWIDTH 600 0
DWIDTH 12 0
BBX 6 10 2 4
BITMAP
0C
0C
0C
0C
0C
0C
0C
0C
FC
FC
ENDCHAR
STARTCHAR uni2519
ENCODING 9497
SWIDTH 600 0
DWIDTH 12 0
BBX 6 12 2 2
BITMAP
0C
0C
0C
0C
0C
0C
FC
FC
FC
FC
FC
FC
ENDCHAR
STARTCHAR uni251A
ENCODING 9498
SWIDTH 600 0
DWIDTH 12 0
BBX 8 10 2 4
BITMAP
3F
3F
3F
3F
3F
3F
3F
3F
FF
FF
ENDCHAR
STARTCHAR uni251B
ENCODING 9499
SWIDTH 600 0
DWIDTH 12 0
BBX 8 12 2 2
BITMAP
3F
3F
3F
3F
3F
3F
FF
FF
FF
FF
FF
FF
ENDCHAR
STARTCHAR SF080000
ENCODING 9500
SWIDTH 600 0
DWIDTH 12 0
BBX 6 18 6 -4
BITMAP
C0
C0
C0
C0
C0
C0
C0
C0
FC
FC
C0
C0
C0
C0
C0
C0
C0
C0
ENDCHAR
STARTCHAR uni251D
ENCODING 9501
SWIDTH 600 0
DWIDTH 12 0
BBX 6 18 6 -4
BITMAP
C0
C0
C0
C0
C0
C0
FC
FC
FC
FC
FC
FC
C0
C0
C0
C0
C0
C0
ENDCHAR
STARTCHAR uni251E
ENCODING 9502
SWIDTH 600 0
DWIDTH 12 0
BBX 8 18 4 -4
BITMAP
FC
FC
FC
FC
FC
FC
FC
FC
FF
FF
30
30
30
30
30
30
30
30
ENDCHAR
STARTCHAR uni251F
ENCODING 9503
SWIDTH 600 0
DWIDTH 12 0
BBX 8 18 4 -4
BITMAP
30
30
30
30
30
30
30
30
FF
FF
FC
FC
FC
FC
FC
FC
FC
FC
ENDCHAR
STARTCHAR uni2520
ENCODING 9504
SWIDTH 600 0
DWIDTH 12 0
BBX 8 18 4 -4
BITMAP
FC
FC
FC
FC
FC
FC
FC
FC
FF
FF
FC
FC
FC
FC
FC
FC
FC
FC
ENDCHAR
STARTCHAR uni2521
ENCODING 9505
SWIDTH 600 0
DWIDTH 12 0
BBX 8 18 4 -4
BITMAP
FC
FC
FC
FC
FC
FC
FF
FF
FF
FF
FF
FF
30
30
30
30
30
30
ENDCHAR
STARTCHAR uni2522
ENCODING 9506
SWIDTH 600 0
DWIDTH 12 0
BBX 8 18 4 -4
BITMAP
30
30
30
30
30
30
FF
FF
FF
FF
FF
FF
FC
FC
FC
FC
FC
FC
ENDCHAR
STARTCHAR uni2523
ENCODING 9507
SWIDTH 600 0
DWIDTH 12 0
BBX 8 18 4 -4
BITMAP
FC
FC
FC
FC
FC
FC
FF
FF
FF
FF
FF
FF
FC
FC
FC
FC
FC
FC
ENDCHAR
STARTCHAR SF090000
ENCODING 9508
SWIDTH 600 0
DWIDTH 12 0
BBX 6 18 2 -4
BITMAP
0C
0C
0C
0C
0C
0C
0C
0C
FC
FC
0C
0C
0C
0C
0C
0C
0C
0C
ENDCHAR
STARTCHAR uni2525
ENCODING 9509
SWIDTH 600 0
DWIDTH 12 0
BBX 6 18 2 -4
BITMAP
0C
0C
0C
0C
0C
0C
FC
FC
FC
FC
FC
FC
0C
0C
0C
0C
0C
0C
ENDCHAR
STARTCHAR uni2526
ENCODING 9510
SWIDTH 600 0
DWIDTH 12 0
BBX 8 18 2 -4
BITMAP
3F
3F
3F
3F
3F
3F
3F
3F
FF
FF
0C
0C
0C
0C
0C
0C
0C
0C
ENDCHAR
STARTCHAR uni2527
ENCODING 9511
SWIDTH 600 0
DWIDTH 12 0
BBX 8 18 2 -4
BITMAP
0C
0C
0C
0C
0C
0C
0C
0C
FF
FF
3F
3F
3F
3F
3F
3F
3F
3F
ENDCHAR
STARTCHAR uni2528
ENCODING 9512
SWIDTH 600 0
DWIDTH 12 0
BBX 8 18 2 -4
BITMAP
3F
3F
3F
3F
3F
3F
3F
3F
FF
FF
3F
3F
3F
3F
3F
3F
3F
3F
ENDCHAR
STARTCHAR uni2529
ENCODING 9513
SWIDTH 600 0
DWIDTH 12 0
BBX 8 18 2 -4
BITMAP
3F
3F
3F
3F
3F
3F
FF
FF
FF
FF
FF
FF
0C
0C
0C
0C
0C
0C
ENDCHAR
STARTCHAR uni252A
ENCODING 9514
SWIDTH 600 0
DWIDTH 12 0
BBX 8 18 2 -4
BITMAP
0C
0C
0C
0C
0C
0C
FF
FF
FF
FF
FF
FF
3F
3F
3F
3F
3F
3F
ENDCHAR
STARTCHAR uni252B
ENCODING 9515
SWIDTH 600 0
DWIDTH 12 0
BBX 8 18 2 -4
BITMAP
3F
3F
3F
3F
3F
3F
FF
FF
FF
FF
FF
FF
3F
3F
3F
3F
3F
3F
ENDCHAR
STARTCHAR SF060000
ENCODING 9516
SWIDTH 600 0
DWIDTH 12 0
BBX 10 10 2 -4
BITMAP
FFC0
FFC0
0C00
0C00
0C00
0C00
0C00
0C00
0C00
0C00
ENDCHAR
STARTCHAR uni252D
ENCODING 9517
SWIDTH 600 0
DWIDTH 12 0
BBX 10 12 2 -4
BITMAP
FC00
FC00
FFC0
FFC0
FC00
FC00
0C00
0C00
0C00
0C00
0C00
0C00
ENDCHAR
STARTCHAR uni252E
ENCODING 9518
SWIDTH 600 0
DWIDTH 12 0
BBX 10 12 2 -4
BITMAP
0FC0
0FC0
FFC0
FFC0
0FC0
0FC0
0C00
0C00
0C00
0C00
0C00
0C00
ENDCHAR
STARTCHAR uni252F
ENCODING 9519
SWIDTH 600 0
DWIDTH 12 0
BBX 10 12 2 -4
BITMAP
FFC0
FFC0
FFC0
FFC0
FFC0
FFC0
0C00
0C00
0C00
0C00
0C00
0C00
ENDCHAR
STARTCHAR uni2530
ENCODING 9520
SWIDTH 600 0
DWIDTH 12 0
BBX 10 10 2 -4
BITMAP
FFC0
FFC0
3F00
3F00
3F00
3F00
3F00
3F00
3F00
3F00
ENDCHAR
STARTCHAR uni2531
ENCODING 9521
SWIDTH 600 0
DWIDTH 12 0
BBX 10 12 2 -4
BITMAP
FF00
FF00
FFC0
FFC0
FF00
FF00
3F00
3F00
3F00
3F00
3F00
3F00
ENDCHAR
STARTCHAR uni2532
ENCODING 9522
SWIDTH 600 0
DWIDTH 12 0
BBX 10 12 2 -4
BITMAP
3FC0
3FC0
FFC0
FFC0
3FC0
3FC0
3F00
3F00
3F00
3F00
3F00
3F00
ENDCHAR
STARTCHAR uni2533
ENCODING 9523
SWIDTH 600 0
DWIDTH 12 0
BBX 10 12 2 -4
BITMAP
FFC0
FFC0
FFC0
FFC0
FFC0
FFC0
3F00
3F00
3F00
3F00
3F00
3F00
ENDCHAR
STARTCHAR SF070000
ENCODING 9524
SWIDTH 600 0
DWIDTH 12 0
BBX 10 10 2 4
BITMAP
0C00
0C00
0C00
0C00
0C00
0C00
0C00
0C00
FFC0
FFC0
ENDCHAR
STARTCHAR uni2535
ENCODING 9525
SWIDTH 600 0
DWIDTH 12 0
BBX 10 12 2 2
BITMAP
0C00
0C00
0C00
0C00
0C00
0C00
FC00
FC00
FFC0
FFC0
FC00
FC00
ENDCHAR
STARTCHAR uni2536
ENCODING 9526
SWIDTH 600 0
DWIDTH 12 0
BBX 10 12 2 2
BITMAP
0C00
0C00
0C00
0C00
0C00
0C00
0FC0
0FC0
FFC0
FFC0
0FC0
0FC0
ENDCHAR
STARTCHAR uni2537
ENCODING 9527
SWIDTH 600 0
DWIDTH 12 0
BBX 10 12 2 2
BITMAP
0C00
0C00
0C00
0C00
0C00
0C00
FFC0
FFC0
FFC0
FFC0
FFC0
FFC0
ENDCHAR
STARTCHAR uni2538
ENCODING 9528
SWIDTH 600 0
DWIDTH 12 0
BBX 10 10 2 4
BITMAP
3F00
3F00
3F00
3F00
3F00
3F00
3F00
3F00
FFC0
FFC0
ENDCHAR
STARTCHAR uni2539
ENCODING 9529
SWIDTH 600 0
DWIDTH 12 0
BBX 10 12 2 2
BITMAP
3F00
3F00
3F00
3F00
3F00
3F00
FF00
FF00
FFC0
FFC0
FF00
FF00
ENDCHAR
STARTCHAR uni253A
ENCODING 9530
SWIDTH 600 0
DWIDTH 12 0
BBX 10 12 2 2
BITMAP
3F00
3F00
3F00
3F00
3F00
3F00
3FC0
3FC0
FFC0
FFC0
3FC0
3FC0
ENDCHAR
STARTCHAR uni253B
ENCODING 9531
SWIDTH 600 0
DWIDTH 12 0
BBX 10 12 2 2
BITMAP
3F00
3F00
3F00
3F00
3F00
3F00
FFC0
FFC0
FFC0
FFC0
FFC0
FFC0
ENDCHAR
STARTCHAR SF050000
ENCODING 9532
SWIDTH 600 0
DWIDTH 12 0
BBX 10 18 2 -4
BITMAP
0C00
0C00
0C00
0C00
0C00
0C00
0C00
0C00
FFC0
FFC0
0C00
0C00
0C00
0C00
0C00
0C00
0C00
0C00
ENDCHAR
STARTCHAR uni253D
ENCODING 9533
SWIDTH 600 0
DWIDTH 12 0
BBX 10 18 2 -4
BITMAP
0C00
0C00
0C00
0C00
0C00
0C00
FC00
FC00
FFC0
FFC0
FC00
FC00
0C00
0C00
0C00
0C00
0C00
0C00
ENDCHAR
STARTCHAR uni253E
ENCODING 9534
SWIDTH 600 0
DWIDTH 12 0
BBX 10 18 2 -4
BITMAP
0C00
0C00
0C00
0C00
0C00
0C00
0FC0
0FC0
FFC0
FFC0
0FC0
0FC0
0C00
0C00
0C00
0C00
0C00
0C00
ENDCHAR
STARTCHAR uni253F
ENCODING 9535
SWIDTH 600 0
DWIDTH 12 0
BBX 10 18 2 -4
BITMAP
0C00
0C00
0C00
0C00
0C00
0C00
FFC0
FFC0
FFC0
FFC0
FFC0
FFC0
0C00
0C00
0C00
0C00
0C00
0C00
ENDCHAR
STARTCHAR uni2540
ENCODING 9536
SWIDTH 600 0
DWIDTH 12 0
BBX 10 18 2 -4
BITMAP
3F00
3F00
3F00
3F00
3F00
3F00
3F00
3F00
FFC0
FFC0
0C00
0C00
0C00
0C00
0C00
0C00
0C00
0C00
ENDCHAR
STARTCHAR uni2541
ENCODING 9537
SWIDTH 600 0
DWIDTH 12 0
BBX 10 18 2 -4
BITMAP
0C00
0C00
0C00
0C00
0C00
0C00
0C00
0C00
FFC0
FFC0
3F00
3F00
3F00
3F00
3F00
3F00
3F00
3F00
ENDCHAR
STARTCHAR uni2542
ENCODING 9538
SWIDTH 600 0
DWIDTH 12 0
BBX 10 18 2 -4
BITMAP
3F00
3F00
3F00
3F00
3F00
3F00
3F00
3F00
FFC0
FFC0
3F00
3F00
3F00
3F00
3F00
3F00
3F00
3F00
ENDCHAR
STARTCHAR uni2543
ENCODING 9539
SWIDTH 600 0
DWIDTH 12 0
BBX 10 18 2 -4
BITMAP
3F00
3F00
3F00
3F00
3F00
3F00
FF00
FF00
FFC0
FFC0
FF00
FF00
0C00
0C00
0C00
0C00
0C00
0C00
ENDCHAR
STARTCHAR uni2544
ENCODING 9540
SWIDTH 600 0
DWIDTH 12 0
BBX 10 18 2 -4
BITMAP
3F00
3F00
3F00
3F00
3F00
3F00
3FC0
3FC0
FFC0
FFC0
3FC0
3FC0
0C00
0C00
0C00
0C00
0C00
0C00
ENDCHAR
STARTCHAR uni2545
ENCODING 9541
SWIDTH 600 0
DWIDTH 12 0
BBX 10 18 2 -4
BITMAP
0C00
0C00
0C00
0C00
0C00
0C00
FF00
FF00
FFC0
FFC0
FF00
FF00
3F00
3F00
3F00
3F00
3F00
3F00
ENDCHAR
STARTCHAR uni2546
ENCODING 9542
SWIDTH 600 0
DWIDTH 12 0
BBX 10 18 2 -4
BITMAP
0C00
0C00
0C00
0C00
0C00
0C00
3FC0
3FC0
FFC0
FFC0
3FC0
3FC0
3F00
3F00
3F00
3F00
3F00
3F00
ENDCHAR
STARTCHAR uni2547
ENCODING 9543
SWIDTH 600 0
DWIDTH 12 0
BBX 10 18 2 -4
BITMAP
3F00
3F00
3F00
3F00
3F00
3F00
FFC0
FFC0
FFC0
FFC0
FFC0
FFC0
0C00
0C00
0C00
0C00
0C00
0C00
ENDCHAR
STARTCHAR uni2548
ENCODING 9544
SWIDTH 600 0
DWIDTH 12 0
BBX 10 18 2 -4
BITMAP
0C00
0C00
0C00
0C00
0C00
0C00
FFC0
FFC0
FFC0
FFC0
FFC0
FFC0
3F00
3F00
3F00
3F00
3F00
3F00
ENDCHAR
STARTCHAR uni2549
ENCODING 9545
SWIDTH 600 0
DWIDTH 12 0
BBX 10 18 2 -4
BITMAP
3F00
3F00
3F00
3F00
3F00
3F00
FF00
FF00
FFC0
FFC0
FF00
FF00
3F00
3F00
3F00
3F00
3F00
3F00
ENDCHAR
STARTCHAR uni254A
ENCODING 9546
SWIDTH 600 0
DWIDTH 12 0
BBX 10 18 2 -4
BITMAP
3F00
3F00
3F00
3F00
3F00
3F00
3FC0
3FC0
FFC0
FFC0
3FC0
3FC0
3F00
3F00
3F00
3F00
3F00
3F00
ENDCHAR
STARTCHAR uni254B
ENCODING 9547
SWIDTH 600 0
DWIDTH 12 0
BBX 10 18 2 -4
BITMAP
3F00
3F00
3F00
3F00
3F00
3F00
FFC0
FFC0
FFC0
FFC0
FFC0
FFC0
3F00
3F00
3F00
3F00
3F00
3F00
ENDCHAR
STARTCHAR uni254C
ENCODING 9548
SWIDTH 600 0
DWIDTH 12 0
BBX 10 2 2 4
BITMAP
F3C0
F3C0
ENDCHAR
STARTCHAR uni254D
ENCODING 9549
SWIDTH 600 0
DWIDTH 12 0
BBX 10 6 2 2
BITMAP
F3C0
F3C0
F3C0
F3C0
F3C0
F3C0
ENDCHAR
STARTCHAR uni254E
ENCODING 9550
SWIDTH 600 0
DWIDTH 12 0
BBX 2 18 6 -4
BITMAP
C0
C0
C0
C0
C0
C0
C0
C0
00
00
C0
C0
C0
C0
C0
C0
C0
C0
ENDCHAR
STARTCHAR uni254F
ENCODING 9551
SWIDTH 600 0
DWIDTH 12 0
BBX 6 18 4 -4
BITMAP
FC
FC
FC
FC
FC
FC
FC
FC
00
00
FC
FC
FC
FC
FC
FC
FC
FC
ENDCHAR
STARTCHAR SF430000
ENCODING 9552
SWIDTH 600 0
DWIDTH 12 0
BBX 10 6 2 2
BITMAP
FFC0
FFC0
0000
0000
FFC0
FFC0
ENDCHAR
STARTCHAR SF240000
ENCODING 9553
SWIDTH 600 0
DWIDTH 12 0
BBX 6 18 4 -4
BITMAP
CC
CC
CC
CC
CC
CC
CC
CC
CC
CC
CC
CC
CC
CC
CC
CC
CC
CC
ENDCHAR
STARTCHAR SF510000
ENCODING 9554
SWIDTH 600 0
DWIDTH 12 0
BBX 6 12 6 -4
BITMAP
FC
FC
C0
C0
FC
FC
C0
C0
C0
C0
C0
C0
ENDCHAR
STARTCHAR SF520000
ENCODING 9555
SWIDTH 600 0
DWIDTH 12 0
BBX 8 10 4 -4
BITMAP
FF
FF
CC
CC
CC
CC
CC
CC
CC
CC
ENDCHAR
STARTCHAR SF390000
ENCODING 9556
SWIDTH 600 0
DWIDTH 12 0
BBX 8 12 4 -4
BITMAP
FF
FF
C0
C0
CF
CF
CC
CC
CC
CC
CC
CC
ENDCHAR
STARTCHAR SF220000
ENCODING 9557
SWIDTH 600 0
DWIDTH 12 0
BBX 6 12 2 -4
BITMAP
FC
FC
0C
0C
FC
FC
0C
0C
0C
0C
0C
0C
ENDCHAR
STARTCHAR SF210000
ENCODING 9558
SWIDTH 600 0
DWIDTH 12 0
BBX 8 10 2 -4
BITMAP
FF
FF
33
33
33
33
33
33
33
33
ENDCHAR
STARTCHAR SF250000
ENCODING 9559
SWIDTH 600 0
DWIDTH 12 0
BBX 8 12 2 -4
BITMAP
FF
FF
03
03
F3
F3
33
33
33
33
33
33
ENDCHAR
STARTCHAR SF500000
ENCODING 9560
SWIDTH 600 0
DWIDTH 12 0
BBX 6 12 6 2
BITMAP
C0
C0
C0
C0
C0
C0
FC
FC
C0
C0
FC
FC
ENDCHAR
STARTCHAR SF490000
ENCODING 9561
SWIDTH 600 0
DWIDTH 12 0
BBX 8 10 4 4
BITMAP
CC
CC
CC
CC
CC
CC
CC
CC
FF
FF
ENDCHAR
STARTCHAR SF380000
ENCODING 9562
SWIDTH 600 0
DWIDTH 12 0
BBX 8 12 4 2
BITMAP
CC
CC
CC
CC
CC
CC
CF
CF
C0
C0
FF
FF
ENDCHAR
STARTCHAR SF280000
ENCODING 9563
SWIDTH 600 0
DWIDTH 12 0
BBX 6 12 2 2
BITMAP
0C
0C
0C
0C
0C
0C
FC
FC
0C
0C
FC
FC
ENDCHAR
STARTCHAR SF270000
ENCODING 9564
SWIDTH 600 0
DWIDTH 12 0
BBX 8 10 2 4
BITMAP
33
33
33
33
33
33
33
33
FF
FF
ENDCHAR
STARTCHAR SF260000
ENCODING 9565
SWIDTH 600 0
DWIDTH 12 0
BBX 8 12 2 2
BITMAP
33
33
33
33
33
33
F3
F3
03
03
FF
FF
ENDCHAR
STARTCHAR SF360000
ENCODING 9566
SWIDTH 600 0
DWIDTH 12 0
BBX 6 18 6 -4
BITMAP
C0
C0
C0
C0
C0
C0
FC
FC
C0
C0
FC
FC
C0
C0
C0
C0
C0
C0
ENDCHAR
STARTCHAR SF370000
ENCODING 9567
SWIDTH 600 0
DWIDTH 12 0
BBX 8 18 4 -4
BITMAP
CC
CC
CC
CC
CC
CC
CC
CC
CF
CF
CC
CC
CC
CC
CC
CC
CC
CC
ENDCHAR
STARTCHAR SF420000
ENCODING 9568
SWIDTH 600 0
DWIDTH 12 0
BBX 8 18 4 -4
BITMAP
CC
CC
CC
CC
CC
CC
CF
CF
C0
C0
CF
CF
CC
CC
CC
CC
CC
CC
ENDCHAR
STARTCHAR SF190000
ENCODING 9569
SWIDTH 600 0
DWIDTH 12 0
BBX 6 18 2 -4
BITMAP
0C
0C
0C
0C
0C
0C
FC
FC
0C
0C
FC
FC
0C
0C
0C
0C
0C
0C
ENDCHAR
STARTCHAR SF200000
ENCODING 9570
SWIDTH 600 0
DWIDTH 12 0
BBX 8 18 2 -4
BITMAP
33
33
33
33
33
33
33
33
F3
F3
33
33
33
33
33
33
33
33
ENDCHAR
STARTCHAR SF230000
ENCODING 9571
SWIDTH 600 0
DWIDTH 12 0
BBX 8 18 2 -4
BITMAP
33
33
33
33
33
33
F3
F3
03
03
F3
F3
33
33
33
33
33
33
ENDCHAR
STARTCHAR SF470000
ENCODING 9572
SWIDTH 600 0
DWIDTH 12 0
BBX 10 12 2 -4
BITMAP
FFC0
FFC0
0000
0000
FFC0
FFC0
0C00
0C00
0C00
0C00
0C00
0C00
ENDCHAR
STARTCHAR SF480000
ENCODING 9573
SWIDTH 600 0
DWIDTH 12 0
BBX 10 10 2 -4
BITMAP
FFC0
FFC0
3300
3300
3300
3300
3300
3300
3300
3300
ENDCHAR
STARTCHAR SF410000
ENCODING 9574
SWIDTH 600 0
DWIDTH 12 0
BBX 10 12 2 -4
BITMAP
FFC0
FFC0
0000
0000
F3C0
F3C0
3300
3300
3300
3300
3300
3300
ENDCHAR
STARTCHAR SF450000
ENCODING 9575
SWIDTH 600 0
DWIDTH 12 0
BBX 10 12 2 2
BITMAP
0C00
0C00
0C00
0C00
0C00
0C00
FFC0
FFC0
0000
0000
FFC0
FFC0
ENDCHAR
STARTCHAR SF460000
ENCODING 9576
SWIDTH 600 0
DWIDTH 12 0
BBX 10 10 2 4
BITMAP
3300
3300
3300
3300
3300
3300
3300
3300
FFC0
FFC0
ENDCHAR
STARTCHAR SF400000
ENCODING 9577
SWIDTH 600 0
DWIDTH 12 0
BBX 10 12 2 2
BITMAP
3300
3300
3300
3300
3300
3300
F3C0
F3C0
0000
0000
FFC0
FFC0
ENDCHAR
STARTCHAR SF540000
ENCODING 9578
SWIDTH 600 0
DWIDTH 12 0
BBX 10 18 2 -4
BITMAP
0C00
0C00
0C00
0C00
0C00
0C00
FFC0
FFC0
0C00
0C00
FFC0
FFC0
0C00
0C00
0C00
0C00
0C00
0C00
ENDCHAR
STARTCHAR SF530000
ENCODING 9579
SWIDTH 600 0
DWIDTH 12 0
BBX 10 18 2 -4
BITMAP
3300
3300
3300
3300
3300
3300
3300
3300
FFC0
FFC0
3300
3300
3300
3300
3300
3300
3300
3300
ENDCHAR
STARTCHAR SF440000
ENCODING 9580
SWIDTH 600 0
DWIDTH 12 0
BBX 10 18 2 -4
BITMAP
3300
3300
3300
3300
3300
3300
F3C0
F3C0
0000
0000
F3C0
F3C0
3300
3300
3300
3300
3300
3300
ENDCHAR
STARTCHAR uni256D
ENCODING 9581
SWIDTH 600 0
DWIDTH 12 0
BBX 6 10 6 -4
BITMAP
3C
7C
E0
C0
C0
C0
C0
C0
C0
C0
ENDCHAR
STARTCHAR uni256E
ENCODING 9582
SWIDTH 600 0
DWIDTH 12 0
BBX 6 10 2 -4
BITMAP
F0
F8
1C
0C
0C
0C
0C
0C
0C
0C
ENDCHAR
STARTCHAR uni256F
ENCODING 9583
SWIDTH 600 0
DWIDTH 12 0
BBX 6 10 2 4
BITMAP
0C
0C
0C
0C
0C
0C
0C
1C
F8
F0
ENDCHAR
STARTCHAR uni2570
ENCODING 9584
SWIDTH 600 0
DWIDTH 12 0
BBX 6 10 6 4
BITMAP
C0
C0
C0
C0
C0
C0
C0
E0
7C
3C
ENDCHAR
STARTCHAR uni2574
ENCODING 9588
SWIDTH 600 0
DWIDTH 12 0
BBX 6 2 2 4
BITMAP
FC
FC
ENDCHAR
STARTCHAR uni2575
ENCODING 9589
SWIDTH 600 0
DWIDTH 12 0
BBX 2 10 6 4
BITMAP
C0
C0
C0
C0
C0
C0
C0
C0
C0
C0
ENDCHAR
STARTCHAR uni2576
ENCODING 9590
SWIDTH 600 0
DWIDTH 12 0
BBX 6 2 6 4
BITMAP
FC
FC
ENDCHAR
STARTCHAR uni2577
ENCODING 9591
SWIDTH 600 0
DWIDTH 12 0
BBX 2 10 6 -4
BITMAP
C0
C0
C0
C0
C0
C0
C0
C0
C0
C0
ENDCHAR
STARTCHAR uni2578
ENCODING 9592
SWIDTH 600 0
DWIDTH 12 0
BBX 6 6 2 2
BITMAP
FC
FC
FC
FC
FC
FC
ENDCHAR
STARTCHAR uni2579
ENCODING 9593
SWIDTH 600 0
DWIDTH 12 0
BBX 6 10 4 4
BITMAP
FC
FC
FC
FC
FC
FC
FC
FC
FC
FC
ENDCHAR
STARTCHAR uni257A
ENCODING 9594
SWIDTH 600 0
DWIDTH 12 0
BBX 6 6 6 2
BITMAP
FC
FC
FC
FC
FC
FC
ENDCHAR
STARTCHAR uni257B
ENCODING 9595
SWIDTH 600 0
DWIDTH 12 0
BBX 6 10 4 -4
BITMAP
FC
FC
FC
FC
FC
FC
FC
FC
FC
FC
ENDCHAR
STARTCHAR uni257C
ENCODING 9596
SWIDTH 600 0
DWIDTH 12 0
BBX 10 6 2 2
BITMAP
0FC0
0FC0
FFC0
FFC0
0FC0
0FC0
ENDCHAR
STARTCHAR uni257D
ENCODING 9597
SWIDTH 600 0
DWIDTH 12 0
BBX 6 18 4 -4
BITMAP
30
30
30
30
30
30
30
30
FC
FC
FC
FC
FC
FC
FC
FC
FC
FC
ENDCHAR
STARTCHAR uni257E
ENCODING 9598
SWIDTH 600 0
DWIDTH 12 0
BBX 10 6 2 2
BITMAP
FC00
FC00
FFC0
FFC0
FC00
FC00
ENDCHAR
STARTCHAR uni257F
ENCODING 9599
SWIDTH 600 0
DWIDTH 12 0
BBX 6 18 4 -4
BITMAP
FC
FC
FC
FC
FC
FC
FC
FC
FC
FC
30
30
30
30
30
30
30
30
ENDCHAR
STARTCHAR upblock
ENCODING 9600
SWIDTH 600 0
DWIDTH 12 0
BBX 12 10 0 6
BITMAP
FFF0
FFF0
FFF0
FFF0
FFF0
FFF0
FFF0
FFF0
FFF0
FFF0
ENDCHAR
STARTCHAR dnblock
ENCODING 9604
SWIDTH 600 0
DWIDTH 12 0
BBX 12 10 0 -4
BITMAP
FFF0
FFF0
FFF0
FFF0
FFF0
FFF0
FFF0
FFF0
FFF0
FFF0
ENDCHAR
STARTCHAR block
ENCODING 9608
SWIDTH 600 0
DWIDTH 12 0
BBX 12 20 0 -4
BITMAP
FFF0
FFF0
FFF0
FFF0
FFF0
FFF0
FFF0
FFF0
FFF0
FFF0
FFF0
FFF0
FFF0
FFF0
FFF0
FFF0
FFF0
FFF0
FFF0
FFF0
ENDCHAR
STARTCHAR lfblock
ENCODING 9612
SWIDTH 600 0
DWIDTH 12 0
BBX 6 20 0 -4
BITMAP
FC
FC
FC
FC
FC
FC
FC
FC
FC
FC
FC
FC
FC
FC
FC
FC
FC
FC
FC
FC
ENDCHAR
STARTCHAR rtblock
ENCODING 9616
SWIDTH 600 0
DWIDTH 12 0
BBX 6 20 6 -4
BITMAP
FC
FC
FC
FC
FC
FC
FC
FC
FC
FC
FC
FC
FC
FC
FC
FC
FC
FC
FC
FC
ENDCHAR
STARTCHAR ltshade
ENCODING 9617
SWIDTH 600 0
DWIDTH 12 0
BBX 10 18 2 -4
BITMAP
CCC0
CCC0
0000
0000
3300
3300
0000
0000
CCC0
CCC0
0000
0000
3300
3300
0000
0000
CCC0
CCC0
ENDCHAR
STARTCHAR shade
ENCODING 9618
SWIDTH 600 0
DWIDTH 12 0
BBX 10 18 2 -4
BITMAP
C300
E380
71C0
38C0
1C00
0E00
C700
E380
71C0
38C0
1C00
0E00
C700
E380
71C0
38C0
1C00
0C00
ENDCHAR
STARTCHAR dkshade
ENCODING 9619
SWIDTH 600 0
DWIDTH 12 0
BBX 10 18 2 -4
BITMAP
CCC0
CCC0
FFC0
FFC0
3300
3300
FFC0
FFC0
CCC0
CCC0
FFC0
FFC0
3300
3300
FFC0
FFC0
CCC0
CCC0
ENDCHAR
STARTCHAR uni2596
ENCODING 9622
SWIDTH 600 0
DWIDTH 12 0
BBX 6 10 0 -4
BITMAP
FC
FC
FC
FC
FC
FC
FC
FC
FC
FC
ENDCHAR
STARTCHAR uni2597
ENCODING 9623
SWIDTH 600 0
DWIDTH 12 0
BBX 6 10 6 -4
BITMAP
FC
FC
FC
FC
FC
FC
FC
FC
FC
FC
ENDCHAR
STARTCHAR uni2598
ENCODING 9624
SWIDTH 600 0
DWIDTH 12 0
BBX 6 10 0 6
BITMAP
FC
FC
FC
FC
FC
FC
FC
FC
FC
FC
ENDCHAR
STARTCHAR uni2599
ENCODING 9625
SWIDTH 600 0
DWIDTH 12 0
BBX 12 20 0 -4
BITMAP
FC00
FC00
FC00
FC00
FC00
FC00
FC00
FC00
FC00
FC00
FFF0
FFF0
FFF0
FFF0
FFF0
FFF0
FFF0
FFF0
FFF0
FFF0
ENDCHAR
STARTCHAR uni259A
ENCODING 9626
SWIDTH 600 0
DWIDTH 12 0
BBX 12 20 0 -4
BITMAP
FC00
FC00
FC00
FC00
FC00
FC00
FC00
FC00
FC00
FC00
03F0
03F0
03F0
03F0
03F0
03F0
03F0
03F0
03F0
03F0
ENDCHAR
STARTCHAR uni259B
ENCODING 9627
SWIDTH 600 0
DWIDTH 12 0
BBX 12 20 0 -4
BITMAP
FFF0
FFF0
FFF0
FFF0
FFF0
FFF0
FFF0
FFF0
FFF0
FFF0
FC00
FC00
FC00
FC00
FC00
FC00
FC00
FC00
FC00
FC00
ENDCHAR
STARTCHAR uni259C
ENCODING 9628
SWIDTH 600 0
DWIDTH 12 0
BBX 12 20 0 -4
BITMAP
FFF0
FFF0
FFF0
FFF0
FFF0
FFF0
FFF0
FFF0
FFF0
FFF0
03F0
03F0
03F0
03F0
03F0
03F0
03F0
03F0
03F0
03F0
ENDCHAR
STARTCHAR uni259D
ENCODING 9629
SWIDTH 600 0
DWIDTH 12 0
BBX 6 10 6 6
BITMAP
FC
FC
FC
FC
FC
FC
FC
FC
FC
FC
ENDCHAR
STARTCHAR uni259E
ENCODING 9630
SWIDTH 600 0
DWIDTH 12 0
BBX 12 20 0 -4
BITMAP
03F0
03F0
03F0
03F0
03F0
03F0
03F0
03F0
03F0
03F0
FC00
FC00
FC00
FC00
FC00
FC00
FC00
FC00
FC00
FC00
ENDCHAR
STARTCHAR uni259F
ENCODING 9631
SWIDTH 600 0
DWIDTH 12 0
BBX 12 20 0 -4
BITMAP
03F0
03F0
03F0
03F0
03F0
03F0
03F0
03F0
03F0
03F0
FFF0
FFF0
FFF0
FFF0
FFF0
FFF0
FFF0
FFF0
FFF0
FFF0
ENDCHAR
STARTCHAR filledbox
ENCODING 9632
SWIDTH 600 0
DWIDTH 12 0
BBX 10 14 2 0
BITMAP
FFC0
FFC0
FFC0
FFC0
FFC0
FFC0
FFC0
FFC0
FFC0
FFC0
FFC0
FFC0
FFC0
FFC0
ENDCHAR
STARTCHAR H22073
ENCODING 9633
SWIDTH 600 0
DWIDTH 12 0
BBX 10 14 2 0
BITMAP
FFC0
FFC0
C0C0
C0C0
C0C0
C0C0
C0C0
C0C0
C0C0
C0C0
C0C0
C0C0
FFC0
FFC0
ENDCHAR
STARTCHAR H18543
ENCODING 9642
SWIDTH 600 0
DWIDTH 12 0
BBX 6 6 4 4
BITMAP
FC
FC
FC
FC
FC
FC
ENDCHAR
STARTCHAR H18551
ENCODING 9643
SWIDTH 600 0
DWIDTH 12 0
BBX 6 6 4 4
BITMAP
FC
FC
CC
CC
FC
FC
ENDCHAR
STARTCHAR filledrect
ENCODING 9644
SWIDTH 600 0
DWIDTH 12 0
BBX 10 6 2 4
BITMAP
FFC0
FFC0
FFC0
FFC0
FFC0
FFC0
ENDCHAR
STARTCHAR uni25AD
ENCODING 9645
SWIDTH 600 0
DWIDTH 12 0
BBX 10 6 2 4
BITMAP
FFC0
FFC0
C0C0
C0C0
FFC0
FFC0
ENDCHAR
STARTCHAR triagup
ENCODING 9650
SWIDTH 600 0
DWIDTH 12 0
BBX 10 14 2 0
BITMAP
0C00
0C00
0C00
0C00
3F00
3F00
3F00
3F00
FFC0
FFC0
FFC0
FFC0
FFC0
FFC0
ENDCHAR
STARTCHAR uni25B6
ENCODING 9654
SWIDTH 600 0
DWIDTH 12 0
BBX 8 14 4 0
BITMAP
C0
C0
F0
F0
FC
FC
FF
FF
FC
FC
F0
F0
C0
C0
ENDCHAR
STARTCHAR uni25B7
ENCODING 9655
SWIDTH 600 0
DWIDTH 12 0
BBX 10 14 2 0
BITMAP
F000
F800
DC00
CE00
C700
C380
C1C0
C1C0
C380
C700
CE00
DC00
F800
F000
ENDCHAR
STARTCHAR triagrt
ENCODING 9658
SWIDTH 600 0
DWIDTH 12 0
BBX 10 10 2 2
BITMAP
C000
C000
FC00
FC00
FFC0
FFC0
FC00
FC00
C000
C000
ENDCHAR
STARTCHAR triagdn
ENCODING 9660
SWIDTH 600 0
DWIDTH 12 0
BBX 10 14 2 0
BITMAP
FFC0
FFC0
FFC0
FFC0
FFC0
FFC0
3F00
3F00
3F00
3F00
0C00
0C00
0C00
0C00
ENDCHAR
STARTCHAR uni25C0
ENCODING 9664
SWIDTH 600 0
DWIDTH 12 0
BBX 8 14 4 0
BITMAP
03
03
0F
0F
3F
3F
FF
FF
3F
3F
0F
0F
03
03
ENDCHAR
STARTCHAR uni25C1
ENCODING 9665
SWIDTH 600 0
DWIDTH 12 0
BBX 10 14 2 0
BITMAP
03C0
07C0
0EC0
1CC0
38C0
70C0
E0C0
E0C0
70C0
38C0
1CC0
0EC0
07C0
03C0
ENDCHAR
STARTCHAR triaglf
ENCODING 9668
SWIDTH 600 0
DWIDTH 12 0
BBX 10 10 2 2
BITMAP
00C0
00C0
0FC0
0FC0
FFC0
FFC0
0FC0
0FC0
00C0
00C0
ENDCHAR
STARTCHAR uni25C6
ENCODING 9670
SWIDTH 600 0
DWIDTH 12 0
BBX 10 10 2 2
BITMAP
0C00
0C00
3F00
3F00
FFC0
FFC0
3F00
3F00
0C00
0C00
ENDCHAR
STARTCHAR uni25C7
ENCODING 9671
SWIDTH 600 0
DWIDTH 12 0
BBX 10 10 2 2
BITMAP
0C00
1E00
3F00
7380
E1C0
E1C0
7380
3F00
1E00
0C00
ENDCHAR
STARTCHAR lozenge
ENCODING 9674
SWIDTH 600 0
DWIDTH 12 0
BBX 10 14 2 0
BITMAP
0C00
1E00
3F00
3300
3300
7380
E1C0
E1C0
7380
3300
3300
3F00
1E00
0C00
ENDCHAR
STARTCHAR circle
ENCODING 9675
SWIDTH 600 0
DWIDTH 12 0
BBX 10 10 2 2
BITMAP
3F00
7F80
E1C0
C0C0
C0C0
C0C0
C0C0
E1C0
7F80
3F00
ENDCHAR
STARTCHAR uni25CC
ENCODING 9676
SWIDTH 600 0
DWIDTH 12 0
BBX 10 10 2 2
BITMAP
0C00
0C00
C0C0
C0C0
0000
0000
C0C0
C0C0
0C00
0C00
ENDCHAR
STARTCHAR H18533
ENCODING 9679
SWIDTH 600 0
DWIDTH 12 0
BBX 10 10 2 2
BITMAP
3F00
3F00
FFC0
FFC0
FFC0
FFC0
FFC0
FFC0
3F00
3F00
ENDCHAR
STARTCHAR invbullet
ENCODING 9688
SWIDTH 600 0
DWIDTH 12 0
BBX 10 14 2 0
BITMAP
FFC0
FFC0
FFC0
FFC0
C0C0
C0C0
C0C0
C0C0
C0C0
C0C0
FFC0
FFC0
FFC0
FFC0
ENDCHAR
STARTCHAR invcircle
ENCODING 9689
SWIDTH 600 0
DWIDTH 12 0
BBX 10 14 2 0
BITMAP
FFC0
FFC0
C0C0
C0C0
0C00
0C00
3F00
3F00
0C00
0C00
C0C0
C0C0
FFC0
FFC0
ENDCHAR
STARTCHAR uni25EB
ENCODING 9707
SWIDTH 600 0
DWIDTH 12 0
BBX 10 10 2 2
BITMAP
FFC0
FFC0
CCC0
CCC0
CCC0
CCC0
CCC0
CCC0
FFC0
FFC0
ENDCHAR
STARTCHAR uni25F0
ENCODING 9712
SWIDTH 600 0
DWIDTH 12 0
BBX 10 10 2 2
BITMAP
FFC0
FFC0
CCC0
CCC0
FCC0
FCC0
C0C0
C0C0
FFC0
FFC0
ENDCHAR
STARTCHAR uni25F1
ENCODING 9713
SWIDTH 600 0
DWIDTH 12 0
BBX 10 10 2 2
BITMAP
FFC0
FFC0
C0C0
C0C0
FCC0
FCC0
CCC0
CCC0
FFC0
FFC0
ENDCHAR
STARTCHAR uni25F2
ENCODING 9714
SWIDTH 600 0
DWIDTH 12 0
BBX 10 10 2 2
BITMAP
FFC0
FFC0
CCC0
CCC0
CFC0
CFC0
C0C0
C0C0
FFC0
FFC0
ENDCHAR
STARTCHAR uni25F3
ENCODING 9715
SWIDTH 600 0
DWIDTH 12 0
BBX 10 10 2 2
BITMAP
FFC0
FFC0
C0C0
C0C0
CFC0
CFC0
CCC0
CCC0
FFC0
FFC0
ENDCHAR
STARTCHAR uni25F4
ENCODING 9716
SWIDTH 600 0
DWIDTH 12 0
BBX 10 10 2 2
BITMAP
3F00
7F80
EDC0
CCC0
FCC0
FCC0
C0C0
E1C0
7F80
3F00
ENDCHAR
STARTCHAR uni25F5
ENCODING 9717
SWIDTH 600 0
DWIDTH 12 0
BBX 10 10 2 2
BITMAP
3F00
7F80
E1C0
C0C0
FCC0
FCC0
CCC0
EDC0
7F80
3F00
ENDCHAR
STARTCHAR uni25F6
ENCODING 9718
SWIDTH 600 0
DWIDTH 12 0
BBX 10 10 2 2
BITMAP
3F00
7F80
EDC0
CCC0
CFC0
CFC0
C0C0
E1C0
7F80
3F00
ENDCHAR
STARTCHAR uni25F7
ENCODING 9719
SWIDTH 600 0
DWIDTH 12 0
BBX 10 10 2 2
BITMAP
3F00
7F80
E1C0
C0C0
CFC0
CFC0
CCC0
EDC0
7F80
3F00
ENDCHAR
STARTCHAR uni2607
ENCODING 9735
SWIDTH 600 0
DWIDTH 12 0
BBX 8 14 4 0
BITMAP
03
07
0E
1C
38
70
E0
E0
73
3B
1F
0F
3F
3F
ENDCHAR
STARTCHAR uni2608
ENCODING 9736
SWIDTH 600 0
DWIDTH 12 0
BBX 10 14 2 0
BITMAP
FFC0
FFC0
C300
C700
CE00
DC00
F800
F800
DCC0
CEC0
C7C0
C3C0
CFC0
CFC0
ENDCHAR
STARTCHAR uni2609
ENCODING 9737
SWIDTH 600 0
DWIDTH 12 0
BBX 10 10 2 2
BITMAP
3F00
7F80
E1C0
C0C0
CCC0
CCC0
C0C0
E1C0
7F80
3F00
ENDCHAR
STARTCHAR uni2639
ENCODING 9785
SWIDTH 600 0
DWIDTH 12 0
BBX 10 10 2 2
BITMAP
3300
3300
0000
0000
0000
0000
3F00
7F80
E1C0
C0C0
ENDCHAR
STARTCHAR smileface
ENCODING 9786
SWIDTH 600 0
DWIDTH 12 0
BBX 10 10 2 2
BITMAP
3300
3300
0000
0000
0000
0000
C0C0
E1C0
7F80
3F00
ENDCHAR
STARTCHAR invsmileface
ENCODING 9787
SWIDTH 600 0
DWIDTH 12 0
BBX 10 14 2 0
BITMAP
3F00
3F00
FFC0
FFC0
CCC0
CCC0
FFC0
FFC0
FFC0
FFC0
C0C0
E1C0
7F80
3F00
ENDCHAR
STARTCHAR sun
ENCODING 9788
SWIDTH 600 0
DWIDTH 12 0
BBX 10 10 2 2
BITMAP
CCC0
EDC0
7F80
3F00
F3C0
F3C0
3F00
7F80
EDC0
CCC0
ENDCHAR
STARTCHAR female
ENCODING 9792
SWIDTH 600 0
DWIDTH 12 0
BBX 10 14 2 0
BITMAP
3F00
7F80
E1C0
C0C0
C0C0
E1C0
7F80
3F00
0C00
0C00
3F00
3F00
0C00
0C00
ENDCHAR
STARTCHAR male
ENCODING 9794
SWIDTH 600 0
DWIDTH 12 0
BBX 10 14 2 0
BITMAP
0FC0
0FC0
03C0
07C0
0EC0
0CC0
3C00
7E00
E700
C300
C300
E700
7E00
3C00
ENDCHAR
STARTCHAR spade
ENCODING 9824
SWIDTH 600 0
DWIDTH 12 0
BBX 10 12 2 0
BITMAP
0C00
0C00
3F00
3F00
FFC0
FFC0
FFC0
FFC0
0C00
0C00
3F00
3F00
ENDCHAR
STARTCHAR club
ENCODING 9827
SWIDTH 600 0
DWIDTH 12 0
BBX 10 12 2 0
BITMAP
3F00
3F00
3F00
3F00
FFC0
FFC0
FFC0
FFC0
0C00
0C00
3F00
3F00
ENDCHAR
STARTCHAR heart
ENCODING 9829
SWIDTH 600 0
DWIDTH 12 0
BBX 10 10 2 2
BITMAP
3300
3300
FFC0
FFC0
FFC0
FFC0
3F00
3F00
0C00
0C00
ENDCHAR
STARTCHAR diamond
ENCODING 9830
SWIDTH 600 0
DWIDTH 12 0
BBX 10 10 2 2
BITMAP
0C00
0C00
3F00
3F00
FFC0
FFC0
3F00
3F00
0C00
0C00
ENDCHAR
STARTCHAR uni2669
ENCODING 9833
SWIDTH 600 0
DWIDTH 12 0
BBX 6 14 4 0
BITMAP
0C
0C
0C
0C
0C
0C
0C
0C
3C
3C
FC
FC
30
30
ENDCHAR
STARTCHAR musicalnote
ENCODING 9834
SWIDTH 600 0
DWIDTH 12 0
BBX 10 14 2 0
BITMAP
0C00
0C00
0F00
0F80
0DC0
0CC0
0CC0
0CC0
3C00
3C00
FC00
FC00
3000
3000
ENDCHAR
STARTCHAR musicalnotedbl
ENCODING 9835
SWIDTH 600 0
DWIDTH 12 0
BBX 10 14 2 0
BITMAP
03C0
07C0
3EC0
3CC0
30C0
30C0
30C0
30C0
33C0
33C0
F3C0
F3C0
F000
F000
ENDCHAR
STARTCHAR uni266C
ENCODING 9836
SWIDTH 600 0
DWIDTH 12 0
BBX 10 14 2 0
BITMAP
3FC0
3FC0
30C0
30C0
3FC0
3FC0
30C0
30C0
30C0
30C0
F3C0
F3C0
F3C0
F3C0
ENDCHAR
STARTCHAR uni266D
ENCODING 9837
SWIDTH 600 0
DWIDTH 12 0
BBX 8 14 4 0
BITMAP
C0
C0
C0
C0
CF
DF
FB
F3
C3
C7
CE
DC
F8
F0
ENDCHAR
STARTCHAR uni266E
ENCODING 9838
SWIDTH 600 0
DWIDTH 12 0
BBX 8 14 4 0
BITMAP
C0
C0
CF
DF
FB
F3
C3
C3
CF
DF
FB
F3
03
03
ENDCHAR
STARTCHAR uni266F
ENCODING 9839
SWIDTH 600 0
DWIDTH 12 0
BBX 10 14 2 0
BITMAP
0300
0300
33C0
33C0
3F00
3F00
F3C0
F3C0
3F00
3F00
F300
F300
3000
3000
ENDCHAR
STARTCHAR uni2708
ENCODING 9992
SWIDTH 600 0
DWIDTH 12 0
BBX 10 10 2 2
BITMAP
0C00
0E00
C700
E300
7FC0
7FC0
E300
C700
0E00
0C00
ENDCHAR
STARTCHAR uni2713
ENCODING 10003
SWIDTH 600 0
DWIDTH 12 0
BBX 10 8 2 2
BITMAP
00C0
01C0
0380
0700
CE00
FC00
7800
3000
ENDCHAR
STARTCHAR uni27CA
ENCODING 10186
SWIDTH 600 0
DWIDTH 12 0
BBX 6 14 4 0
BITMAP
30
30
30
30
30
30
FC
FC
30
30
30
30
30
30
ENDCHAR
STARTCHAR uni27D2
ENCODING 10194
SWIDTH 600 0
DWIDTH 12 0
BBX 10 10 2 2
BITMAP
CCC0
CCC0
CCC0
CCC0
CCC0
CCC0
CCC0
EDC0
7F80
3F00
ENDCHAR
STARTCHAR uni2912
ENCODING 10514
SWIDTH 600 0
DWIDTH 12 0
BBX 10 10 2 2
BITMAP
FFC0
FFC0
3F00
7F80
EDC0
CCC0
0C00
0C00
0C00
0C00
ENDCHAR
STARTCHAR uni2913
ENCODING 10515
SWIDTH 600 0
DWIDTH 12 0
BBX 10 10 2 2
BITMAP
0C00
0C00
0C00
0C00
CCC0
EDC0
7F80
3F00
FFC0
FFC0
ENDCHAR
STARTCHAR uni2934
ENCODING 10548
SWIDTH 600 0
DWIDTH 12 0
BBX 10 10 2 2
BITMAP
0C00
0C00
3F00
7F80
EDC0
CCC0
0C00
1C00
F800
F000
ENDCHAR
STARTCHAR uni2935
ENCODING 10549
SWIDTH 600 0
DWIDTH 12 0
BBX 10 10 2 2
BITMAP
F000
F800
1C00
0C00
CCC0
EDC0
7F80
3F00
0C00
0C00
ENDCHAR
STARTCHAR uni2936
ENCODING 10550
SWIDTH 600 0
DWIDTH 12 0
BBX 10 12 2 2
BITMAP
00C0
00C0
0CC0
1CC0
38C0
31C0
FF80
FF00
3000
3800
1C00
0C00
ENDCHAR
STARTCHAR uni2937
ENCODING 10551
SWIDTH 600 0
DWIDTH 12 0
BBX 10 12 2 2
BITMAP
C000
C000
CC00
CE00
C700
E300
7FC0
3FC0
0300
0700
0E00
0C00
ENDCHAR
STARTCHAR uni2952
ENCODING 10578
SWIDTH 600 0
DWIDTH 12 0
BBX 10 10 2 2
BITMAP
CC00
DC00
F800
F000
FFC0
FFC0
C000
C000
C000
C000
ENDCHAR
STARTCHAR uni2953
ENCODING 10579
SWIDTH 600 0
DWIDTH 12 0
BBX 10 10 2 2
BITMAP
0CC0
0EC0
07C0
03C0
FFC0
FFC0
00C0
00C0
00C0
00C0
ENDCHAR
STARTCHAR uni2954
ENCODING 10580
SWIDTH 600 0
DWIDTH 12 0
BBX 10 10 2 2
BITMAP
FFC0
FFC0
0F00
0F80
0DC0
0CC0
0C00
0C00
0C00
0C00
ENDCHAR
STARTCHAR uni2955
ENCODING 10581
SWIDTH 600 0
DWIDTH 12 0
BBX 10 10 2 2
BITMAP
0C00
0C00
0C00
0C00
0CC0
0DC0
0F80
0F00
FFC0
FFC0
ENDCHAR
STARTCHAR uni2956
ENCODING 10582
SWIDTH 600 0
DWIDTH 12 0
BBX 10 10 2 2
BITMAP
C000
C000
C000
C000
FFC0
FFC0
F000
F800
DC00
CC00
ENDCHAR
STARTCHAR uni2957
ENCODING 10583
SWIDTH 600 0
DWIDTH 12 0
BBX 10 10 2 2
BITMAP
00C0
00C0
00C0
00C0
FFC0
FFC0
03C0
07C0
0EC0
0CC0
ENDCHAR
STARTCHAR uni2958
ENCODING 10584
SWIDTH 600 0
DWIDTH 12 0
BBX 10 10 2 2
BITMAP
FFC0
FFC0
3C00
7C00
EC00
CC00
0C00
0C00
0C00
0C00
ENDCHAR
STARTCHAR uni2959
ENCODING 10585
SWIDTH 600 0
DWIDTH 12 0
BBX 10 10 2 2
BITMAP
0C00
0C00
0C00
0C00
CC00
EC00
7C00
3C00
FFC0
FFC0
ENDCHAR
STARTCHAR uni295A
ENCODING 10586
SWIDTH 600 0
DWIDTH 12 0
BBX 10 10 2 2
BITMAP
0CC0
1CC0
38C0
30C0
FFC0
FFC0
00C0
00C0
00C0
00C0
ENDCHAR
STARTCHAR uni295B
ENCODING 10587
SWIDTH 600 0
DWIDTH 12 0
BBX 10 10 2 2
BITMAP
CC00
CE00
C700
C300
FFC0
FFC0
C000
C000
C000
C000
ENDCHAR
STARTCHAR uni295C
ENCODING 10588
SWIDTH 600 0
DWIDTH 12 0
BBX 10 10 2 2
BITMAP
0C00
0C00
0F00
0F80
0DC0
0CC0
0C00
0C00
FFC0
FFC0
ENDCHAR
STARTCHAR uni295D
ENCODING 10589
SWIDTH 600 0
DWIDTH 12 0
BBX 10 10 2 2
BITMAP
FFC0
FFC0
0C00
0C00
0CC0
0DC0
0F80
0F00
0C00
0C00
ENDCHAR
STARTCHAR uni295E
ENCODING 10590
SWIDTH 600 0
DWIDTH 12 0
BBX 10 10 2 2
BITMAP
00C0
00C0
00C0
00C0
FFC0
FFC0
30C0
38C0
1CC0
0CC0
ENDCHAR
STARTCHAR uni295F
ENCODING 10591
SWIDTH 600 0
DWIDTH 12 0
BBX 10 10 2 2
BITMAP
C000
C000
C000
C000
FFC0
FFC0
C300
C700
CE00
CC00
ENDCHAR
STARTCHAR uni2960
ENCODING 10592
SWIDTH 600 0
DWIDTH 12 0
BBX 10 10 2 2
BITMAP
0C00
0C00
3C00
7C00
EC00
CC00
0C00
0C00
FFC0
FFC0
ENDCHAR
STARTCHAR uni2961
ENCODING 10593
SWIDTH 600 0
DWIDTH 12 0
BBX 10 10 2 2
BITMAP
FFC0
FFC0
0C00
0C00
CC00
EC00
7C00
3C00
0C00
0C00
ENDCHAR
STARTCHAR uni2980
ENCODING 10624
SWIDTH 600 0
DWIDTH 12 0
BBX 10 14 2 0
BITMAP
CCC0
CCC0
CCC0
CCC0
CCC0
CCC0
CCC0
CCC0
CCC0
CCC0
CCC0
CCC0
CCC0
CCC0
ENDCHAR
STARTCHAR uni29B6
ENCODING 10678
SWIDTH 600 0
DWIDTH 12 0
BBX 10 10 2 2
BITMAP
3F00
7F80
EDC0
CCC0
CCC0
CCC0
CCC0
EDC0
7F80
3F00
ENDCHAR
STARTCHAR uni29BA
ENCODING 10682
SWIDTH 600 0
DWIDTH 12 0
BBX 10 10 2 2
BITMAP
3F00
7F80
EDC0
CCC0
FFC0
FFC0
C0C0
E1C0
7F80
3F00
ENDCHAR
STARTCHAR uni2A25
ENCODING 10789
SWIDTH 600 0
DWIDTH 12 0
BBX 10 14 2 0
BITMAP
0C00
0C00
0C00
0C00
FFC0
FFC0
0C00
0C00
0C00
0C00
0000
0000
0C00
0C00
ENDCHAR
STARTCHAR uni2A2A
ENCODING 10794
SWIDTH 600 0
DWIDTH 12 0
BBX 10 6 2 2
BITMAP
FFC0
FFC0
0000
0000
0C00
0C00
ENDCHAR
STARTCHAR uni2A2B
ENCODING 10795
SWIDTH 600 0
DWIDTH 12 0
BBX 10 10 2 2
BITMAP
C000
C000
0000
0000
FFC0
FFC0
0000
0000
00C0
00C0
ENDCHAR
STARTCHAR uni2A2C
ENCODING 10796
SWIDTH 600 0
DWIDTH 12 0
BBX 10 10 2 2
BITMAP
00C0
00C0
0000
0000
FFC0
FFC0
0000
0000
C000
C000
ENDCHAR
STARTCHAR uni2A30
ENCODING 10800
SWIDTH 600 0
DWIDTH 12 0
BBX 10 12 2 2
BITMAP
0C00
0C00
C0C0
E1C0
7380
3F00
1E00
1E00
3F00
7380
E1C0
C0C0
ENDCHAR
STARTCHAR uni2A40
ENCODING 10816
SWIDTH 600 0
DWIDTH 12 0
BBX 10 10 2 2
BITMAP
3F00
7F80
E1C0
C0C0
CCC0
CCC0
C0C0
C0C0
C0C0
C0C0
ENDCHAR
STARTCHAR uni2A51
ENCODING 10833
SWIDTH 600 0
DWIDTH 12 0
BBX 10 10 2 4
BITMAP
0C00
0C00
0000
0000
0C00
1E00
3F00
7380
E1C0
C0C0
ENDCHAR
STARTCHAR uni2A52
ENCODING 10834
SWIDTH 600 0
DWIDTH 12 0
BBX 10 10 2 4
BITMAP
0C00
0C00
0000
0000
C0C0
E1C0
7380
3F00
1E00
0C00
ENDCHAR
STARTCHAR uni2A66
ENCODING 10854
SWIDTH 600 0
DWIDTH 12 0
BBX 10 10 2 0
BITMAP
FFC0
FFC0
0000
0000
FFC0
FFC0
0000
0000
0C00
0C00
ENDCHAR
STARTCHAR uni2A67
ENCODING 10855
SWIDTH 600 0
DWIDTH 12 0
BBX 10 14 2 0
BITMAP
0C00
0C00
0000
0000
FFC0
FFC0
0000
0000
FFC0
FFC0
0000
0000
FFC0
FFC0
ENDCHAR
STARTCHAR uni2A6A
ENCODING 10858
SWIDTH 600 0
DWIDTH 12 0
BBX 10 10 2 4
BITMAP
0C00
0C00
0000
0000
3000
7800
FCC0
CFC0
0780
0300
ENDCHAR
STARTCHAR uni2A6B
ENCODING 10859
SWIDTH 600 0
DWIDTH 12 0
BBX 10 10 2 2
BITMAP
00C0
00C0
3000
7800
FCC0
CFC0
0780
0300
C000
C000
ENDCHAR
STARTCHAR uni2A73
ENCODING 10867
SWIDTH 600 0
DWIDTH 12 0
BBX 10 14 2 0
BITMAP
FFC0
FFC0
0000
0000
FFC0
FFC0
0000
0000
3000
7800
FCC0
CFC0
0780
0300
ENDCHAR
STARTCHAR uni2A77
ENCODING 10871
SWIDTH 600 0
DWIDTH 12 0
BBX 10 14 2 0
BITMAP
3300
3300
0000
0000
FFC0
FFC0
0000
0000
FFC0
FFC0
0000
0000
3300
3300
ENDCHAR
STARTCHAR uni2AAE
ENCODING 10926
SWIDTH 600 0
DWIDTH 12 0
BBX 10 12 2 2
BITMAP
0C00
1E00
FFC0
F3C0
0000
0000
FFC0
FFC0
0000
0000
FFC0
FFC0
ENDCHAR
STARTCHAR uni2ABD
ENCODING 10941
SWIDTH 600 0
DWIDTH 12 0
BBX 10 10 2 2
BITMAP
3FC0
7FC0
E000
C000
CC00
CC00
C000
E000
7FC0
3FC0
ENDCHAR
STARTCHAR uni2ABE
ENCODING 10942
SWIDTH 600 0
DWIDTH 12 0
BBX 10 10 2 2
BITMAP
FF00
FF80
01C0
00C0
0CC0
0CC0
00C0
01C0
FF80
FF00
ENDCHAR
STARTCHAR uni2ABF
ENCODING 10943
SWIDTH 600 0
DWIDTH 12 0
BBX 10 14 2 0
BITMAP
3FC0
7FC0
E000
E000
7FC0
3FC0
0000
0000
0C00
0C00
3F00
3F00
0C00
0C00
ENDCHAR
STARTCHAR uni2AC0
ENCODING 10944
SWIDTH 600 0
DWIDTH 12 0
BBX 10 14 2 0
BITMAP
FF00
FF80
01C0
01C0
FF80
FF00
0000
0000
0C00
0C00
3F00
3F00
0C00
0C00
ENDCHAR
STARTCHAR uni2AC1
ENCODING 10945
SWIDTH 600 0
DWIDTH 12 0
BBX 10 14 2 0
BITMAP
3FC0
7FC0
E000
E000
7FC0
3FC0
0000
0000
3300
3F00
1E00
1E00
3F00
3300
ENDCHAR
STARTCHAR uni2AC2
ENCODING 10946
SWIDTH 600 0
DWIDTH 12 0
BBX 10 14 2 0
BITMAP
FF00
FF80
01C0
01C0
FF80
FF00
0000
0000
3300
3F00
1E00
1E00
3F00
3300
ENDCHAR
STARTCHAR uni2AC3
ENCODING 10947
SWIDTH 600 0
DWIDTH 12 0
BBX 10 14 2 0
BITMAP
0C00
0C00
0000
0000
3FC0
7FC0
E000
E000
7FC0
3FC0
0000
0000
FFC0
FFC0
ENDCHAR
STARTCHAR uni2AC4
ENCODING 10948
SWIDTH 600 0
DWIDTH 12 0
BBX 10 14 2 0
BITMAP
0C00
0C00
0000
0000
FF00
FF80
01C0
01C0
FF80
FF00
0000
0000
FFC0
FFC0
ENDCHAR
STARTCHAR uni2AC5
ENCODING 10949
SWIDTH 600 0
DWIDTH 12 0
BBX 10 14 2 0
BITMAP
3FC0
7FC0
E000
E000
7FC0
3FC0
0000
0000
FFC0
FFC0
0000
0000
FFC0
FFC0
ENDCHAR
STARTCHAR uni2AC6
ENCODING 10950
SWIDTH 600 0
DWIDTH 12 0
BBX 10 14 2 0
BITMAP
FF00
FF80
01C0
01C0
FF80
FF00
0000
0000
FFC0
FFC0
0000
0000
FFC0
FFC0
ENDCHAR
STARTCHAR uni2AC7
ENCODING 10951
SWIDTH 600 0
DWIDTH 12 0
BBX 10 14 2 0
BITMAP
3FC0
7FC0
E000
E000
7FC0
3FC0
0000
0000
3000
7800
FCC0
CFC0
0780
0300
ENDCHAR
STARTCHAR uni2AC8
ENCODING 10952
SWIDTH 600 0
DWIDTH 12 0
BBX 10 14 2 0
BITMAP
FF00
FF80
01C0
01C0
FF80
FF00
0000
0000
3000
7800
FCC0
CFC0
0780
0300
ENDCHAR
STARTCHAR uni2ACF
ENCODING 10959
SWIDTH 600 0
DWIDTH 12 0
BBX 10 10 2 2
BITMAP
3FC0
7FC0
E0C0
C0C0
C0C0
C0C0
C0C0
E0C0
7FC0
3FC0
ENDCHAR
STARTCHAR uni2AD0
ENCODING 10960
SWIDTH 600 0
DWIDTH 12 0
BBX 10 10 2 2
BITMAP
FF00
FF80
C1C0
C0C0
C0C0
C0C0
C0C0
C1C0
FF80
FF00
ENDCHAR
STARTCHAR uni2AD1
ENCODING 10961
SWIDTH 600 0
DWIDTH 12 0
BBX 10 14 2 0
BITMAP
3FC0
7FC0
E0C0
C0C0
C0C0
C0C0
C0C0
E0C0
7FC0
3FC0
0000
0000
FFC0
FFC0
ENDCHAR
STARTCHAR uni2AD2
ENCODING 10962
SWIDTH 600 0
DWIDTH 12 0
BBX 10 14 2 0
BITMAP
FF00
FF80
C1C0
C0C0
C0C0
C0C0
C0C0
C1C0
FF80
FF00
0000
0000
FFC0
FFC0
ENDCHAR
STARTCHAR uni2AD3
ENCODING 10963
SWIDTH 600 0
DWIDTH 12 0
BBX 10 14 2 0
BITMAP
3FC0
7FC0
E000
E000
7FC0
3FC0
0000
0000
FF00
FF80
01C0
01C0
FF80
FF00
ENDCHAR
STARTCHAR uni2AD4
ENCODING 10964
SWIDTH 600 0
DWIDTH 12 0
BBX 10 14 2 0
BITMAP
FF00
FF80
01C0
01C0
FF80
FF00
0000
0000
3FC0
7FC0
E000
E000
7FC0
3FC0
ENDCHAR
STARTCHAR uni2AD5
ENCODING 10965
SWIDTH 600 0
DWIDTH 12 0
BBX 10 14 2 0
BITMAP
3FC0
7FC0
E000
E000
7FC0
3FC0
0000
0000
3FC0
7FC0
E000
E000
7FC0
3FC0
ENDCHAR
STARTCHAR uni2AD6
ENCODING 10966
SWIDTH 600 0
DWIDTH 12 0
BBX 10 14 2 0
BITMAP
FF00
FF80
01C0
01C0
FF80
FF00
0000
0000
FF00
FF80
01C0
01C0
FF80
FF00
ENDCHAR
STARTCHAR uni2AD9
ENCODING 10969
SWIDTH 600 0
DWIDTH 12 0
BBX 10 10 2 2
BITMAP
3F00
7F80
EDC0
CCC0
CCC0
CCC0
CCC0
CCC0
CCC0
CCC0
ENDCHAR
STARTCHAR uni2ADA
ENCODING 10970
SWIDTH 600 0
DWIDTH 12 0
BBX 10 14 2 0
BITMAP
3F00
3F00
0C00
0C00
3F00
7F80
EDC0
CCC0
CCC0
CCC0
CCC0
CCC0
CCC0
CCC0
ENDCHAR
STARTCHAR uni2ADB
ENCODING 10971
SWIDTH 600 0
DWIDTH 12 0
BBX 10 14 2 0
BITMAP
0C00
0C00
3F00
7F80
EDC0
CCC0
CCC0
CCC0
CCC0
CCC0
CCC0
CCC0
0C00
0C00
ENDCHAR
STARTCHAR uni2ADE
ENCODING 10974
SWIDTH 600 0
DWIDTH 12 0
BBX 6 10 4 2
BITMAP
0C
0C
0C
0C
FC
FC
0C
0C
0C
0C
ENDCHAR
STARTCHAR uni2ADF
ENCODING 10975
SWIDTH 600 0
DWIDTH 12 0
BBX 10 6 2 4
BITMAP
FFC0
FFC0
0C00
0C00
0C00
0C00
ENDCHAR
STARTCHAR uni2AE0
ENCODING 10976
SWIDTH 600 0
DWIDTH 12 0
BBX 10 6 2 4
BITMAP
0C00
0C00
0C00
0C00
FFC0
FFC0
ENDCHAR
STARTCHAR uni2AE2
ENCODING 10978
SWIDTH 600 0
DWIDTH 12 0
BBX 10 14 2 0
BITMAP
C000
C000
FFC0
FFC0
C000
C000
FFC0
FFC0
C000
C000
FFC0
FFC0
C000
C000
ENDCHAR
STARTCHAR uni2AE3
ENCODING 10979
SWIDTH 600 0
DWIDTH 12 0
BBX 10 10 2 2
BITMAP
0CC0
0CC0
0CC0
0CC0
FCC0
FCC0
0CC0
0CC0
0CC0
0CC0
ENDCHAR
STARTCHAR uni2AE4
ENCODING 10980
SWIDTH 600 0
DWIDTH 12 0
BBX 10 10 2 2
BITMAP
00C0
00C0
FFC0
FFC0
00C0
00C0
FFC0
FFC0
00C0
00C0
ENDCHAR
STARTCHAR uni2AE5
ENCODING 10981
SWIDTH 600 0
DWIDTH 12 0
BBX 10 10 2 2
BITMAP
0CC0
0CC0
FCC0
FCC0
0CC0
0CC0
FCC0
FCC0
0CC0
0CC0
ENDCHAR
STARTCHAR uni2AE6
ENCODING 10982
SWIDTH 600 0
DWIDTH 12 0
BBX 10 10 2 2
BITMAP
CC00
CC00
CC00
CC00
FFC0
FFC0
CC00
CC00
CC00
CC00
ENDCHAR
STARTCHAR uni2AE7
ENCODING 10983
SWIDTH 600 0
DWIDTH 12 0
BBX 10 10 2 2
BITMAP
FFC0
FFC0
0000
0000
FFC0
FFC0
0C00
0C00
0C00
0C00
ENDCHAR
STARTCHAR uni2AE8
ENCODING 10984
SWIDTH 600 0
DWIDTH 12 0
BBX 10 10 2 2
BITMAP
0C00
0C00
0C00
0C00
FFC0
FFC0
0000
0000
FFC0
FFC0
ENDCHAR
STARTCHAR uni2AE9
ENCODING 10985
SWIDTH 600 0
DWIDTH 12 0
BBX 10 14 2 0
BITMAP
0C00
0C00
0C00
0C00
FFC0
FFC0
0000
0000
FFC0
FFC0
0C00
0C00
0C00
0C00
ENDCHAR
STARTCHAR uni2AEA
ENCODING 10986
SWIDTH 600 0
DWIDTH 12 0
BBX 10 10 2 2
BITMAP
FFC0
FFC0
3300
3300
3300
3300
3300
3300
3300
3300
ENDCHAR
STARTCHAR uni2AEB
ENCODING 10987
SWIDTH 600 0
DWIDTH 12 0
BBX 10 10 2 2
BITMAP
3300
3300
3300
3300
3300
3300
3300
3300
FFC0
FFC0
ENDCHAR
STARTCHAR uni2AEC
ENCODING 10988
SWIDTH 600 0
DWIDTH 12 0
BBX 10 10 2 2
BITMAP
FFC0
FFC0
00C0
00C0
FFC0
FFC0
00C0
00C0
00C0
00C0
ENDCHAR
STARTCHAR uni2AED
ENCODING 10989
SWIDTH 600 0
DWIDTH 12 0
BBX 10 10 2 2
BITMAP
FFC0
FFC0
C000
C000
FFC0
FFC0
C000
C000
C000
C000
ENDCHAR
STARTCHAR uni2AF2
ENCODING 10994
SWIDTH 600 0
DWIDTH 12 0
BBX 10 14 2 0
BITMAP
3300
3300
3300
3300
3300
3300
FFC0
FFC0
3300
3300
3300
3300
3300
3300
ENDCHAR
STARTCHAR uni2AF4
ENCODING 10996
SWIDTH 600 0
DWIDTH 12 0
BBX 10 14 2 0
BITMAP
CCC0
CCC0
CCC0
CCC0
CCC0
CCC0
CCC0
CCC0
CCC0
CCC0
CCC0
CCC0
CCC0
CCC0
ENDCHAR
STARTCHAR uni2AF5
ENCODING 10997
SWIDTH 600 0
DWIDTH 12 0
BBX 10 14 2 0
BITMAP
CCC0
CCC0
CCC0
CCC0
CCC0
CCC0
FFC0
FFC0
CCC0
CCC0
CCC0
CCC0
CCC0
CCC0
ENDCHAR
STARTCHAR uni2AFC
ENCODING 11004
SWIDTH 600 0
DWIDTH 12 0
BBX 10 18 2 -4
BITMAP
CCC0
CCC0
CCC0
CCC0
CCC0
CCC0
CCC0
CCC0
CCC0
CCC0
CCC0
CCC0
CCC0
CCC0
CCC0
CCC0
CCC0
CCC0
ENDCHAR
STARTCHAR uni2B1A
ENCODING 11034
SWIDTH 600 0
DWIDTH 12 0
BBX 10 10 2 2
BITMAP
CCC0
CCC0
0000
0000
C0C0
C0C0
0000
0000
CCC0
CCC0
ENDCHAR
STARTCHAR uni2C6F
ENCODING 11375
SWIDTH 600 0
DWIDTH 12 0
BBX 10 14 2 0
BITMAP
C0C0
C0C0
C0C0
C0C0
FFC0
FFC0
C0C0
C0C0
C0C0
E1C0
7380
3F00
1E00
0C00
ENDCHAR
STARTCHAR uni2C71
ENCODING 11377
SWIDTH 600 0
DWIDTH 12 0
BBX 10 10 2 0
BITMAP
C300
C780
CFC0
CCC0
CC00
CC00
CC00
FC00
7800
3000
ENDCHAR
STARTCHAR uni2C7B
ENCODING 11387
SWIDTH 600 0
DWIDTH 12 0
BBX 10 10 2 0
BITMAP
FFC0
FFC0
00C0
00C0
3FC0
3FC0
00C0
00C0
FFC0
FFC0
ENDCHAR
STARTCHAR uni2C7E
ENCODING 11390
SWIDTH 600 0
DWIDTH 12 0
BBX 10 18 2 -4
BITMAP
3F00
7F80
E1C0
C0C0
C000
E000
7F00
3F80
01C0
00C0
C0C0
E1C0
7F80
3F00
0C00
0E00
07C0
03C0
ENDCHAR
STARTCHAR uni2C7F
ENCODING 11391
SWIDTH 600 0
DWIDTH 12 0
BBX 10 18 2 -4
BITMAP
FFC0
FFC0
00C0
01C0
0380
0700
0E00
1C00
3800
7000
E000
C000
F000
F800
1C00
0E00
07C0
03C0
ENDCHAR
STARTCHAR uni2E18
ENCODING 11800
SWIDTH 600 0
DWIDTH 12 0
BBX 10 14 2 -4
BITMAP
0C00
0C00
0000
0000
0C00
0C00
3C00
7C00
EC00
CC00
CCC0
EDC0
7F80
3F00
ENDCHAR
STARTCHAR uni2E28
ENCODING 11816
SWIDTH 600 0
DWIDTH 12 0
BBX 10 14 2 0
BITMAP
30C0
71C0
E380
C300
C300
C300
C300
C300
C300
C300
C300
E380
71C0
30C0
ENDCHAR
STARTCHAR uni2E29
ENCODING 11817
SWIDTH 600 0
DWIDTH 12 0
BBX 10 14 2 0
BITMAP
C300
E380
71C0
30C0
30C0
30C0
30C0
30C0
30C0
30C0
30C0
71C0
E380
C300
ENDCHAR
STARTCHAR uni2E2A
ENCODING 11818
SWIDTH 600 0
DWIDTH 12 0
BBX 10 10 2 0
BITMAP
C0C0
C0C0
0000
0000
0000
0000
0000
0000
0C00
0C00
ENDCHAR
STARTCHAR uni2E2B
ENCODING 11819
SWIDTH 600 0
DWIDTH 12 0
BBX 10 10 2 0
BITMAP
0C00
0C00
0000
0000
0000
0000
0000
0000
C0C0
C0C0
ENDCHAR
STARTCHAR uni2E2C
ENCODING 11820
SWIDTH 600 0
DWIDTH 12 0
BBX 10 10 2 0
BITMAP
C0C0
C0C0
0000
0000
0000
0000
0000
0000
C0C0
C0C0
ENDCHAR
STARTCHAR uni2E2D
ENCODING 11821
SWIDTH 600 0
DWIDTH 12 0
BBX 10 10 2 0
BITMAP
0C00
0C00
0000
0000
CCC0
CCC0
0000
0000
0C00
0C00
ENDCHAR
STARTCHAR uni2E2E
ENCODING 11822
SWIDTH 600 0
DWIDTH 12 0
BBX 10 14 2 0
BITMAP
3F00
7F80
E1C0
E0C0
7000
3800
1C00
0C00
0C00
0C00
0000
0000
0C00
0C00
ENDCHAR
STARTCHAR uni2E36
ENCODING 11830
SWIDTH 600 0
DWIDTH 12 0
BBX 6 18 2 -4
BITMAP
0C
0C
0C
0C
FC
FC
0C
0C
0C
0C
0C
0C
0C
0C
0C
0C
0C
0C
ENDCHAR
STARTCHAR uni2E37
ENCODING 11831
SWIDTH 600 0
DWIDTH 12 0
BBX 6 18 6 -4
BITMAP
C0
C0
C0
C0
FC
FC
C0
C0
C0
C0
C0
C0
C0
C0
C0
C0
C0
C0
ENDCHAR
STARTCHAR uni2E38
ENCODING 11832
SWIDTH 600 0
DWIDTH 12 0
BBX 10 18 2 -4
BITMAP
0C00
0C00
0C00
0C00
0C00
0C00
0C00
0C00
0C00
0C00
0C00
0C00
FFC0
FFC0
0C00
0C00
0C00
0C00
ENDCHAR
STARTCHAR uni2E40
ENCODING 11840
SWIDTH 600 0
DWIDTH 12 0
BBX 6 6 4 4
BITMAP
FC
FC
00
00
FC
FC
ENDCHAR
STARTCHAR uni2E41
ENCODING 11841
SWIDTH 600 0
DWIDTH 12 0
BBX 4 6 6 -2
BITMAP
C0
C0
C0
E0
70
30
ENDCHAR
STARTCHAR uni2E42
ENCODING 11842
SWIDTH 600 0
DWIDTH 12 0
BBX 10 6 2 -2
BITMAP
C300
C300
C300
E380
71C0
30C0
ENDCHAR
STARTCHAR uni2E4B
ENCODING 11851
SWIDTH 600 0
DWIDTH 12 0
BBX 10 18 2 -4
BITMAP
0C00
0C00
0C00
0C00
FFC0
FFC0
0C00
0C00
FFC0
FFC0
0C00
0C00
FFC0
FFC0
0C00
0C00
0C00
0C00
ENDCHAR
ENDFONT
